<?xml version="1.0" encoding="UTF-8" standalone="yes"?><svg xmlns="http://www.w3.org/2000/svg" xmlns:xlink="http://www.w3.org/1999/xlink" height="682px" style="width:871px;height:682px;" version="1.1" viewBox="0 0 871 682" width="871px"><defs><filter height="300%" id="f1" width="300%" x="-1" y="-1"><feGaussianBlur result="blurOut" stdDeviation="2.0"/><feColorMatrix in="blurOut" result="blurOut2" type="matrix" values="0 0 0 0 0 0 0 0 0 0 0 0 0 0 0 0 0 0 .4 0"/><feOffset dx="4.0" dy="4.0" in="blurOut2" result="blurOut3"/><feBlend in="SourceGraphic" in2="blurOut3" mode="normal"/></filter></defs><g><rect fill="#FEFECE" filter="url(#f1)" height="73.9102" style="stroke: #A80036; stroke-width: 1.5;" width="181" x="135.5" y="8"/><ellipse cx="163.1" cy="24" fill="#B4A7E5" rx="11" ry="11" style="stroke: #A80036; stroke-width: 1.0;"/><path d="M163.7675,20.9897 L163.7675,27.1821 L165.162,27.1821 Q165.7265,27.1821 165.9713,27.3938 Q166.2162,27.6055 166.2162,28.0786 Q166.2162,28.5601 165.9672,28.78 Q165.7182,29 165.162,29 L160.2313,29 Q159.6669,29 159.422,28.7842 Q159.1771,28.5684 159.1771,28.0786 Q159.1771,27.5972 159.4179,27.3896 Q159.6586,27.1821 160.2313,27.1821 L161.6259,27.1821 L161.6259,20.9897 L160.2313,20.9897 Q159.6669,20.9897 159.422,20.7739 Q159.1771,20.5581 159.1771,20.0767 Q159.1771,19.5869 159.4179,19.3794 Q159.6586,19.1719 160.2313,19.1719 L165.162,19.1719 Q165.7514,19.1719 165.9838,19.3794 Q166.2162,19.5869 166.2162,20.0767 Q166.2162,20.5581 165.9755,20.7739 Q165.7348,20.9897 165.162,20.9897 Z "/><text fill="#000000" font-family="sans-serif" font-size="12" font-style="italic" lengthAdjust="spacingAndGlyphs" textLength="121" x="179.9" y="28.5352">CompletionController</text><line style="stroke: #A80036; stroke-width: 1.5;" x1="136.5" x2="315.5" y1="40" y2="40"/><text fill="#000000" font-family="sans-serif" font-size="11" lengthAdjust="spacingAndGlyphs" textLength="126" x="141.5" y="54.6348">associatedtype Success</text><text fill="#000000" font-family="sans-serif" font-size="11" lengthAdjust="spacingAndGlyphs" textLength="169" x="141.5" y="67.5898">Completion is Fallible«Success»</text><line style="stroke: #A80036; stroke-width: 1.5;" x1="136.5" x2="315.5" y1="73.9102" y2="73.9102"/><rect fill="#FEFECE" filter="url(#f1)" height="73.9102" style="stroke: #A80036; stroke-width: 1.5;" width="132" x="6" y="142"/><ellipse cx="36.75" cy="158" fill="#B4A7E5" rx="11" ry="11" style="stroke: #A80036; stroke-width: 1.0;"/><path d="M37.4175,154.9897 L37.4175,161.1821 L38.812,161.1821 Q39.3765,161.1821 39.6213,161.3938 Q39.8662,161.6055 39.8662,162.0786 Q39.8662,162.5601 39.6172,162.78 Q39.3682,163 38.812,163 L33.8813,163 Q33.3169,163 33.072,162.7842 Q32.8271,162.5684 32.8271,162.0786 Q32.8271,161.5972 33.0679,161.3896 Q33.3086,161.1821 33.8813,161.1821 L35.2759,161.1821 L35.2759,154.9897 L33.8813,154.9897 Q33.3169,154.9897 33.072,154.7739 Q32.8271,154.5581 32.8271,154.0767 Q32.8271,153.5869 33.0679,153.3794 Q33.3086,153.1719 33.8813,153.1719 L38.812,153.1719 Q39.4014,153.1719 39.6338,153.3794 Q39.8662,153.5869 39.8662,154.0767 Q39.8662,154.5581 39.6255,154.7739 Q39.3848,154.9897 38.812,154.9897 Z "/><text fill="#000000" font-family="sans-serif" font-size="12" font-style="italic" lengthAdjust="spacingAndGlyphs" textLength="65" x="54.25" y="162.5352">Completing</text><line style="stroke: #A80036; stroke-width: 1.5;" x1="7" x2="137" y1="174" y2="174"/><line style="stroke: #A80036; stroke-width: 1.5;" x1="7" x2="137" y1="182" y2="182"/><text fill="#000000" font-family="sans-serif" font-size="11" lengthAdjust="spacingAndGlyphs" textLength="100" x="12" y="196.6348">func onComplete()</text><text fill="#000000" font-family="sans-serif" font-size="11" lengthAdjust="spacingAndGlyphs" textLength="120" x="12" y="209.5898">func mapCompletion()</text><rect fill="#FEFECE" filter="url(#f1)" height="60.9551" style="stroke: #A80036; stroke-width: 1.5;" width="105" x="173.5" y="148.5"/><ellipse cx="188.5" cy="164.5" fill="#B4A7E5" rx="11" ry="11" style="stroke: #A80036; stroke-width: 1.0;"/><path d="M189.1675,161.4897 L189.1675,167.6821 L190.562,167.6821 Q191.1265,167.6821 191.3713,167.8938 Q191.6162,168.1055 191.6162,168.5786 Q191.6162,169.0601 191.3672,169.28 Q191.1182,169.5 190.562,169.5 L185.6313,169.5 Q185.0669,169.5 184.822,169.2842 Q184.5771,169.0684 184.5771,168.5786 Q184.5771,168.0972 184.8179,167.8896 Q185.0586,167.6821 185.6313,167.6821 L187.0259,167.6821 L187.0259,161.4897 L185.6313,161.4897 Q185.0669,161.4897 184.822,161.2739 Q184.5771,161.0581 184.5771,160.5767 Q184.5771,160.0869 184.8179,159.8794 Q185.0586,159.6719 185.6313,159.6719 L190.562,159.6719 Q191.1514,159.6719 191.3838,159.8794 Q191.6162,160.0869 191.6162,160.5767 Q191.6162,161.0581 191.3755,161.2739 Q191.1348,161.4897 190.562,161.4897 Z "/><text fill="#000000" font-family="sans-serif" font-size="12" font-style="italic" lengthAdjust="spacingAndGlyphs" textLength="73" x="202.5" y="169.0352">Completable</text><line style="stroke: #A80036; stroke-width: 1.5;" x1="174.5" x2="277.5" y1="180.5" y2="180.5"/><line style="stroke: #A80036; stroke-width: 1.5;" x1="174.5" x2="277.5" y1="188.5" y2="188.5"/><text fill="#000000" font-family="sans-serif" font-size="11" lengthAdjust="spacingAndGlyphs" textLength="84" x="179.5" y="203.1348">func complete()</text><rect fill="#FEFECE" filter="url(#f1)" height="60.9551" style="stroke: #A80036; stroke-width: 1.5;" width="136" x="613" y="14.5"/><ellipse cx="628" cy="30.5" fill="#B4A7E5" rx="11" ry="11" style="stroke: #A80036; stroke-width: 1.0;"/><path d="M628.6675,27.4897 L628.6675,33.6821 L630.062,33.6821 Q630.6265,33.6821 630.8713,33.8938 Q631.1162,34.1055 631.1162,34.5786 Q631.1162,35.0601 630.8672,35.28 Q630.6182,35.5 630.062,35.5 L625.1313,35.5 Q624.5669,35.5 624.322,35.2842 Q624.0771,35.0684 624.0771,34.5786 Q624.0771,34.0972 624.3179,33.8896 Q624.5586,33.6821 625.1313,33.6821 L626.5259,33.6821 L626.5259,27.4897 L625.1313,27.4897 Q624.5669,27.4897 624.322,27.2739 Q624.0771,27.0581 624.0771,26.5767 Q624.0771,26.0869 624.3179,25.8794 Q624.5586,25.6719 625.1313,25.6719 L630.062,25.6719 Q630.6514,25.6719 630.8838,25.8794 Q631.1162,26.0869 631.1162,26.5767 Q631.1162,27.0581 630.8755,27.2739 Q630.6348,27.4897 630.062,27.4897 Z "/><text fill="#000000" font-family="sans-serif" font-size="12" font-style="italic" lengthAdjust="spacingAndGlyphs" textLength="104" x="642" y="35.0352">UpdatesController</text><line style="stroke: #A80036; stroke-width: 1.5;" x1="614" x2="748" y1="46.5" y2="46.5"/><text fill="#000000" font-family="sans-serif" font-size="11" lengthAdjust="spacingAndGlyphs" textLength="121" x="619" y="61.1348">associatedtype Update</text><line style="stroke: #A80036; stroke-width: 1.5;" x1="614" x2="748" y1="67.4551" y2="67.4551"/><rect fill="#FEFECE" filter="url(#f1)" height="73.9102" style="stroke: #A80036; stroke-width: 1.5;" width="108" x="627" y="142"/><ellipse cx="652.8" cy="158" fill="#B4A7E5" rx="11" ry="11" style="stroke: #A80036; stroke-width: 1.0;"/><path d="M653.4675,154.9897 L653.4675,161.1821 L654.862,161.1821 Q655.4265,161.1821 655.6713,161.3938 Q655.9162,161.6055 655.9162,162.0786 Q655.9162,162.5601 655.6672,162.78 Q655.4182,163 654.862,163 L649.9313,163 Q649.3669,163 649.122,162.7842 Q648.8771,162.5684 648.8771,162.0786 Q648.8771,161.5972 649.1179,161.3896 Q649.3586,161.1821 649.9313,161.1821 L651.3259,161.1821 L651.3259,154.9897 L649.9313,154.9897 Q649.3669,154.9897 649.122,154.7739 Q648.8771,154.5581 648.8771,154.0767 Q648.8771,153.5869 649.1179,153.3794 Q649.3586,153.1719 649.9313,153.1719 L654.862,153.1719 Q655.4514,153.1719 655.6838,153.3794 Q655.9162,153.5869 655.9162,154.0767 Q655.9162,154.5581 655.6755,154.7739 Q655.4348,154.9897 654.862,154.9897 Z "/><text fill="#000000" font-family="sans-serif" font-size="12" font-style="italic" lengthAdjust="spacingAndGlyphs" textLength="52" x="669.2" y="162.5352">Updating</text><line style="stroke: #A80036; stroke-width: 1.5;" x1="628" x2="734" y1="174" y2="174"/><line style="stroke: #A80036; stroke-width: 1.5;" x1="628" x2="734" y1="182" y2="182"/><text fill="#000000" font-family="sans-serif" font-size="11" lengthAdjust="spacingAndGlyphs" textLength="87" x="633" y="196.6348">func onUpdate()</text><text fill="#000000" font-family="sans-serif" font-size="11" lengthAdjust="spacingAndGlyphs" textLength="96" x="633" y="209.5898">func mapUpdate()</text><rect fill="#FEFECE" filter="url(#f1)" height="60.9551" style="stroke: #A80036; stroke-width: 1.5;" width="92" x="770" y="148.5"/><ellipse cx="785" cy="164.5" fill="#B4A7E5" rx="11" ry="11" style="stroke: #A80036; stroke-width: 1.0;"/><path d="M785.6675,161.4897 L785.6675,167.6821 L787.062,167.6821 Q787.6265,167.6821 787.8713,167.8938 Q788.1162,168.1055 788.1162,168.5786 Q788.1162,169.0601 787.8672,169.28 Q787.6182,169.5 787.062,169.5 L782.1313,169.5 Q781.5669,169.5 781.322,169.2842 Q781.0771,169.0684 781.0771,168.5786 Q781.0771,168.0972 781.3179,167.8896 Q781.5586,167.6821 782.1313,167.6821 L783.5259,167.6821 L783.5259,161.4897 L782.1313,161.4897 Q781.5669,161.4897 781.322,161.2739 Q781.0771,161.0581 781.0771,160.5767 Q781.0771,160.0869 781.3179,159.8794 Q781.5586,159.6719 782.1313,159.6719 L787.062,159.6719 Q787.6514,159.6719 787.8838,159.8794 Q788.1162,160.0869 788.1162,160.5767 Q788.1162,161.0581 787.8755,161.2739 Q787.6348,161.4897 787.062,161.4897 Z "/><text fill="#000000" font-family="sans-serif" font-size="12" font-style="italic" lengthAdjust="spacingAndGlyphs" textLength="60" x="799" y="169.0352">Updatable</text><line style="stroke: #A80036; stroke-width: 1.5;" x1="771" x2="861" y1="180.5" y2="180.5"/><line style="stroke: #A80036; stroke-width: 1.5;" x1="771" x2="861" y1="188.5" y2="188.5"/><text fill="#000000" font-family="sans-serif" font-size="11" lengthAdjust="spacingAndGlyphs" textLength="72" x="776" y="203.1348">func update()</text><rect fill="#FEFECE" filter="url(#f1)" height="60.9551" style="stroke: #A80036; stroke-width: 1.5;" width="278" x="314" y="148.5"/><ellipse cx="402.25" cy="164.5" fill="#B4A7E5" rx="11" ry="11" style="stroke: #A80036; stroke-width: 1.0;"/><path d="M402.9175,161.4897 L402.9175,167.6821 L404.312,167.6821 Q404.8765,167.6821 405.1213,167.8938 Q405.3662,168.1055 405.3662,168.5786 Q405.3662,169.0601 405.1172,169.28 Q404.8682,169.5 404.312,169.5 L399.3813,169.5 Q398.8169,169.5 398.572,169.2842 Q398.3271,169.0684 398.3271,168.5786 Q398.3271,168.0972 398.5679,167.8896 Q398.8086,167.6821 399.3813,167.6821 L400.7759,167.6821 L400.7759,161.4897 L399.3813,161.4897 Q398.8169,161.4897 398.572,161.2739 Q398.3271,161.0581 398.3271,160.5767 Q398.3271,160.0869 398.5679,159.8794 Q398.8086,159.6719 399.3813,159.6719 L404.312,159.6719 Q404.9014,159.6719 405.1338,159.8794 Q405.3662,160.0869 405.3662,160.5767 Q405.3662,161.0581 405.1255,161.2739 Q404.8848,161.4897 404.312,161.4897 Z "/><text fill="#000000" font-family="sans-serif" font-size="12" font-style="italic" lengthAdjust="spacingAndGlyphs" textLength="93" x="422.75" y="169.0352">EventsController</text><line style="stroke: #A80036; stroke-width: 1.5;" x1="315" x2="591" y1="180.5" y2="180.5"/><text fill="#000000" font-family="sans-serif" font-size="11" lengthAdjust="spacingAndGlyphs" textLength="266" x="320" y="195.1348">typealias Event = ChannelEvent«Update, Success»</text><line style="stroke: #A80036; stroke-width: 1.5;" x1="315" x2="591" y1="201.4551" y2="201.4551"/><rect fill="#FEFECE" filter="url(#f1)" height="48" style="stroke: #A80036; stroke-width: 1.5;" width="107" x="339.5" y="276"/><ellipse cx="354.5" cy="292" fill="#B4A7E5" rx="11" ry="11" style="stroke: #A80036; stroke-width: 1.0;"/><path d="M355.1675,288.9897 L355.1675,295.1821 L356.562,295.1821 Q357.1265,295.1821 357.3713,295.3938 Q357.6162,295.6055 357.6162,296.0786 Q357.6162,296.5601 357.3672,296.78 Q357.1182,297 356.562,297 L351.6313,297 Q351.0669,297 350.822,296.7842 Q350.5771,296.5684 350.5771,296.0786 Q350.5771,295.5972 350.8179,295.3896 Q351.0586,295.1821 351.6313,295.1821 L353.0259,295.1821 L353.0259,288.9897 L351.6313,288.9897 Q351.0669,288.9897 350.822,288.7739 Q350.5771,288.5581 350.5771,288.0767 Q350.5771,287.5869 350.8179,287.3794 Q351.0586,287.1719 351.6313,287.1719 L356.562,287.1719 Q357.1514,287.1719 357.3838,287.3794 Q357.6162,287.5869 357.6162,288.0767 Q357.6162,288.5581 357.3755,288.7739 Q357.1348,288.9897 356.562,288.9897 Z "/><text fill="#000000" font-family="sans-serif" font-size="12" font-style="italic" lengthAdjust="spacingAndGlyphs" textLength="75" x="368.5" y="296.5352">EventsSource</text><line style="stroke: #A80036; stroke-width: 1.5;" x1="340.5" x2="445.5" y1="308" y2="308"/><line style="stroke: #A80036; stroke-width: 1.5;" x1="340.5" x2="445.5" y1="316" y2="316"/><rect fill="#FEFECE" filter="url(#f1)" height="48" style="stroke: #A80036; stroke-width: 1.5;" width="133" x="481.5" y="276"/><ellipse cx="496.5" cy="292" fill="#B4A7E5" rx="11" ry="11" style="stroke: #A80036; stroke-width: 1.0;"/><path d="M497.1675,288.9897 L497.1675,295.1821 L498.562,295.1821 Q499.1265,295.1821 499.3713,295.3938 Q499.6162,295.6055 499.6162,296.0786 Q499.6162,296.5601 499.3672,296.78 Q499.1182,297 498.562,297 L493.6313,297 Q493.0669,297 492.822,296.7842 Q492.5771,296.5684 492.5771,296.0786 Q492.5771,295.5972 492.8179,295.3896 Q493.0586,295.1821 493.6313,295.1821 L495.0259,295.1821 L495.0259,288.9897 L493.6313,288.9897 Q493.0669,288.9897 492.822,288.7739 Q492.5771,288.5581 492.5771,288.0767 Q492.5771,287.5869 492.8179,287.3794 Q493.0586,287.1719 493.6313,287.1719 L498.562,287.1719 Q499.1514,287.1719 499.3838,287.3794 Q499.6162,287.5869 499.6162,288.0767 Q499.6162,288.5581 499.3755,288.7739 Q499.1348,288.9897 498.562,288.9897 Z "/><text fill="#000000" font-family="sans-serif" font-size="12" font-style="italic" lengthAdjust="spacingAndGlyphs" textLength="101" x="510.5" y="296.5352">EventsDestination</text><line style="stroke: #A80036; stroke-width: 1.5;" x1="482.5" x2="613.5" y1="308" y2="308"/><line style="stroke: #A80036; stroke-width: 1.5;" x1="482.5" x2="613.5" y1="316" y2="316"/><rect fill="#FEFECE" filter="url(#f1)" height="48" style="stroke: #A80036; stroke-width: 1.5;" width="68" x="48" y="276"/><ellipse cx="63" cy="292" fill="#A9DCDF" rx="11" ry="11" style="stroke: #A80036; stroke-width: 1.0;"/><path d="M67.2803,294.1821 L67.4214,294.1821 Q67.8696,294.1821 68.1021,294.4104 Q68.3345,294.6387 68.3345,295.0786 Q68.3345,295.5684 68.0896,295.7842 Q67.8447,296 67.2803,296 L64.7817,296 Q64.209,296 63.9683,295.7883 Q63.7275,295.5767 63.7275,295.0786 Q63.7275,294.5972 63.9683,294.3896 Q64.209,294.1821 64.7817,294.1821 L65.0723,294.1821 L64.7319,293.2109 L61.146,293.2109 L60.7891,294.1821 L61.0796,294.1821 Q61.644,294.1821 61.8889,294.3938 Q62.1338,294.6055 62.1338,295.0786 Q62.1338,295.5684 61.8889,295.7842 Q61.644,296 61.0796,296 L58.938,296 Q58.3652,296 58.1245,295.7842 Q57.8838,295.5684 57.8838,295.0786 Q57.8838,294.6387 58.1162,294.4104 Q58.3486,294.1821 58.7969,294.1821 L58.938,294.1821 L61.1626,287.9897 L60.4985,287.9897 Q59.9341,287.9897 59.6892,287.7739 Q59.4443,287.5581 59.4443,287.0767 Q59.4443,286.5869 59.6892,286.3711 Q59.9341,286.1553 60.4985,286.1553 L63.6113,286.1553 Q64.3501,286.1553 64.6489,286.9521 L64.6489,286.9771 Z M62.9307,287.9897 L61.7271,291.4927 L64.1343,291.4927 Z "/><text fill="#000000" font-family="sans-serif" font-size="12" font-style="italic" lengthAdjust="spacingAndGlyphs" textLength="36" x="77" y="296.5352">Future</text><line style="stroke: #A80036; stroke-width: 1.5;" x1="49" x2="115" y1="308" y2="308"/><line style="stroke: #A80036; stroke-width: 1.5;" x1="49" x2="115" y1="316" y2="316"/><rect fill="#FEFECE" filter="url(#f1)" height="60.9551" style="stroke: #A80036; stroke-width: 1.5;" width="118" x="23" y="384"/><ellipse cx="38" cy="400" fill="#ADD1B2" rx="11" ry="11" style="stroke: #A80036; stroke-width: 1.0;"/><path d="M39.7031,395.6792 Q39.8691,395.3804 40.0435,395.2559 Q40.2178,395.1313 40.4834,395.1313 Q40.8901,395.1313 41.0603,395.3472 Q41.2305,395.563 41.2305,396.0859 L41.2471,398.2441 Q41.2471,398.8169 41.0603,399.0161 Q40.8735,399.2153 40.3838,399.2153 Q40.0352,399.2153 39.8484,399.0493 Q39.6616,398.8833 39.5288,398.4351 Q39.313,397.6465 38.8398,397.302 Q38.3667,396.9575 37.5283,396.9575 Q36.25,396.9575 35.5693,397.8208 Q34.8887,398.6841 34.8887,400.3193 Q34.8887,401.9463 35.5776,402.8179 Q36.2666,403.6895 37.5449,403.6895 Q38.4165,403.6895 39.4666,403.1084 Q40.5166,402.5273 40.7905,402.5273 Q41.1143,402.5273 41.3342,402.8013 Q41.5542,403.0752 41.5542,403.4819 Q41.5542,404.2124 40.2676,404.8599 Q38.981,405.5073 37.3706,405.5073 Q35.1958,405.5073 33.8511,404.0713 Q32.5063,402.6353 32.5063,400.3193 Q32.5063,398.0864 33.8677,396.6089 Q35.229,395.1313 37.3208,395.1313 Q37.9102,395.1313 38.4829,395.2642 Q39.0557,395.397 39.7031,395.6792 Z "/><text fill="#000000" font-family="sans-serif" font-size="12" lengthAdjust="spacingAndGlyphs" textLength="86" x="52" y="404.5352">ConstantFuture</text><line style="stroke: #A80036; stroke-width: 1.5;" x1="24" x2="140" y1="416" y2="416"/><line style="stroke: #A80036; stroke-width: 1.5;" x1="24" x2="140" y1="424" y2="424"/><rect fill="#F24D5C" height="6" style="stroke: #C82930; stroke-width: 1.0;" width="6" x="31" y="432.9775"/><text fill="#000000" font-family="sans-serif" font-size="11" lengthAdjust="spacingAndGlyphs" textLength="88" x="43" y="438.6348">init(completion:)</text><rect fill="#FEFECE" filter="url(#f1)" height="60.9551" style="stroke: #A80036; stroke-width: 1.5;" width="78" x="181" y="384"/><ellipse cx="196" cy="400" fill="#ADD1B2" rx="11" ry="11" style="stroke: #A80036; stroke-width: 1.0;"/><path d="M197.7031,395.6792 Q197.8691,395.3804 198.0435,395.2559 Q198.2178,395.1313 198.4834,395.1313 Q198.8901,395.1313 199.0603,395.3472 Q199.2305,395.563 199.2305,396.0859 L199.2471,398.2441 Q199.2471,398.8169 199.0603,399.0161 Q198.8735,399.2153 198.3838,399.2153 Q198.0352,399.2153 197.8484,399.0493 Q197.6616,398.8833 197.5288,398.4351 Q197.313,397.6465 196.8398,397.302 Q196.3667,396.9575 195.5283,396.9575 Q194.25,396.9575 193.5693,397.8208 Q192.8887,398.6841 192.8887,400.3193 Q192.8887,401.9463 193.5776,402.8179 Q194.2666,403.6895 195.5449,403.6895 Q196.4165,403.6895 197.4666,403.1084 Q198.5166,402.5273 198.7905,402.5273 Q199.1143,402.5273 199.3342,402.8013 Q199.5542,403.0752 199.5542,403.4819 Q199.5542,404.2124 198.2676,404.8599 Q196.981,405.5073 195.3706,405.5073 Q193.1958,405.5073 191.8511,404.0713 Q190.5063,402.6353 190.5063,400.3193 Q190.5063,398.0864 191.8677,396.6089 Q193.229,395.1313 195.3208,395.1313 Q195.9102,395.1313 196.4829,395.2642 Q197.0557,395.397 197.7031,395.6792 Z "/><text fill="#000000" font-family="sans-serif" font-size="12" lengthAdjust="spacingAndGlyphs" textLength="46" x="210" y="404.5352">Promise</text><line style="stroke: #A80036; stroke-width: 1.5;" x1="182" x2="258" y1="416" y2="416"/><line style="stroke: #A80036; stroke-width: 1.5;" x1="182" x2="258" y1="424" y2="424"/><ellipse cx="192" cy="435.9775" fill="#84BE84" rx="3" ry="3" style="stroke: #038048; stroke-width: 1.0;"/><text fill="#000000" font-family="sans-serif" font-size="11" lengthAdjust="spacingAndGlyphs" textLength="25" x="201" y="438.6348">init()</text><rect fill="#FEFECE" filter="url(#f1)" height="48" style="stroke: #A80036; stroke-width: 1.5;" width="78" x="354" y="390.5"/><ellipse cx="369" cy="406.5" fill="#A9DCDF" rx="11" ry="11" style="stroke: #A80036; stroke-width: 1.0;"/><path d="M373.2803,408.6821 L373.4214,408.6821 Q373.8696,408.6821 374.1021,408.9104 Q374.3345,409.1387 374.3345,409.5786 Q374.3345,410.0684 374.0896,410.2842 Q373.8447,410.5 373.2803,410.5 L370.7817,410.5 Q370.209,410.5 369.9683,410.2883 Q369.7275,410.0767 369.7275,409.5786 Q369.7275,409.0972 369.9683,408.8896 Q370.209,408.6821 370.7817,408.6821 L371.0723,408.6821 L370.7319,407.7109 L367.146,407.7109 L366.7891,408.6821 L367.0796,408.6821 Q367.644,408.6821 367.8889,408.8938 Q368.1338,409.1055 368.1338,409.5786 Q368.1338,410.0684 367.8889,410.2842 Q367.644,410.5 367.0796,410.5 L364.938,410.5 Q364.3652,410.5 364.1245,410.2842 Q363.8838,410.0684 363.8838,409.5786 Q363.8838,409.1387 364.1162,408.9104 Q364.3486,408.6821 364.7969,408.6821 L364.938,408.6821 L367.1626,402.4897 L366.4985,402.4897 Q365.9341,402.4897 365.6892,402.2739 Q365.4443,402.0581 365.4443,401.5767 Q365.4443,401.0869 365.6892,400.8711 Q365.9341,400.6553 366.4985,400.6553 L369.6113,400.6553 Q370.3501,400.6553 370.6489,401.4521 L370.6489,401.4771 Z M368.9307,402.4897 L367.7271,405.9927 L370.1343,405.9927 Z "/><text fill="#000000" font-family="sans-serif" font-size="12" font-style="italic" lengthAdjust="spacingAndGlyphs" textLength="46" x="383" y="411.0352">Channel</text><line style="stroke: #A80036; stroke-width: 1.5;" x1="355" x2="431" y1="422.5" y2="422.5"/><line style="stroke: #A80036; stroke-width: 1.5;" x1="355" x2="431" y1="430.5" y2="430.5"/><rect fill="#FEFECE" filter="url(#f1)" height="48" style="stroke: #A80036; stroke-width: 1.5;" width="111" x="383.5" y="505"/><ellipse cx="398.5" cy="521" fill="#A9DCDF" rx="11" ry="11" style="stroke: #A80036; stroke-width: 1.0;"/><path d="M402.7803,523.1821 L402.9214,523.1821 Q403.3696,523.1821 403.6021,523.4104 Q403.8345,523.6387 403.8345,524.0786 Q403.8345,524.5684 403.5896,524.7842 Q403.3447,525 402.7803,525 L400.2817,525 Q399.709,525 399.4683,524.7883 Q399.2275,524.5767 399.2275,524.0786 Q399.2275,523.5972 399.4683,523.3896 Q399.709,523.1821 400.2817,523.1821 L400.5723,523.1821 L400.2319,522.2109 L396.646,522.2109 L396.2891,523.1821 L396.5796,523.1821 Q397.144,523.1821 397.3889,523.3938 Q397.6338,523.6055 397.6338,524.0786 Q397.6338,524.5684 397.3889,524.7842 Q397.144,525 396.5796,525 L394.438,525 Q393.8652,525 393.6245,524.7842 Q393.3838,524.5684 393.3838,524.0786 Q393.3838,523.6387 393.6162,523.4104 Q393.8486,523.1821 394.2969,523.1821 L394.438,523.1821 L396.6626,516.9897 L395.9985,516.9897 Q395.4341,516.9897 395.1892,516.7739 Q394.9443,516.5581 394.9443,516.0767 Q394.9443,515.5869 395.1892,515.3711 Q395.4341,515.1553 395.9985,515.1553 L399.1113,515.1553 Q399.8501,515.1553 400.1489,515.9521 L400.1489,515.9771 Z M398.4307,516.9897 L397.2271,520.4927 L399.6343,520.4927 Z "/><text fill="#000000" font-family="sans-serif" font-size="12" font-style="italic" lengthAdjust="spacingAndGlyphs" textLength="79" x="412.5" y="525.5352">BaseProducer</text><line style="stroke: #A80036; stroke-width: 1.5;" x1="384.5" x2="493.5" y1="537" y2="537"/><line style="stroke: #A80036; stroke-width: 1.5;" x1="384.5" x2="493.5" y1="545" y2="545"/><rect fill="#FEFECE" filter="url(#f1)" height="60.9551" style="stroke: #A80036; stroke-width: 1.5;" width="221" x="234.5" y="613"/><ellipse cx="298.75" cy="629" fill="#ADD1B2" rx="11" ry="11" style="stroke: #A80036; stroke-width: 1.0;"/><path d="M300.4531,624.6792 Q300.6191,624.3804 300.7935,624.2559 Q300.9678,624.1313 301.2334,624.1313 Q301.6401,624.1313 301.8103,624.3472 Q301.9805,624.563 301.9805,625.0859 L301.9971,627.2441 Q301.9971,627.8169 301.8103,628.0161 Q301.6235,628.2153 301.1338,628.2153 Q300.7852,628.2153 300.5984,628.0493 Q300.4116,627.8833 300.2788,627.4351 Q300.063,626.6465 299.5898,626.302 Q299.1167,625.9575 298.2783,625.9575 Q297,625.9575 296.3193,626.8208 Q295.6387,627.6841 295.6387,629.3193 Q295.6387,630.9463 296.3276,631.8179 Q297.0166,632.6895 298.2949,632.6895 Q299.1665,632.6895 300.2166,632.1084 Q301.2666,631.5273 301.5405,631.5273 Q301.8643,631.5273 302.0842,631.8013 Q302.3042,632.0752 302.3042,632.4819 Q302.3042,633.2124 301.0176,633.8599 Q299.731,634.5073 298.1206,634.5073 Q295.9458,634.5073 294.6011,633.0713 Q293.2563,631.6353 293.2563,629.3193 Q293.2563,627.0864 294.6177,625.6089 Q295.979,624.1313 298.0708,624.1313 Q298.6602,624.1313 299.2329,624.2642 Q299.8057,624.397 300.4531,624.6792 Z "/><text fill="#000000" font-family="sans-serif" font-size="12" lengthAdjust="spacingAndGlyphs" textLength="84" x="319.25" y="633.5352">ProducerProxy</text><line style="stroke: #A80036; stroke-width: 1.5;" x1="235.5" x2="454.5" y1="645" y2="645"/><line style="stroke: #A80036; stroke-width: 1.5;" x1="235.5" x2="454.5" y1="653" y2="653"/><ellipse cx="245.5" cy="664.9775" fill="#84BE84" rx="3" ry="3" style="stroke: #038048; stroke-width: 1.0;"/><text fill="#000000" font-family="sans-serif" font-size="11" lengthAdjust="spacingAndGlyphs" textLength="195" x="254.5" y="667.6348">init(updateExecutor:updateHandler:)</text><rect fill="#FEFECE" filter="url(#f1)" height="60.9551" style="stroke: #A80036; stroke-width: 1.5;" width="84" x="491" y="613"/><ellipse cx="506" cy="629" fill="#ADD1B2" rx="11" ry="11" style="stroke: #A80036; stroke-width: 1.0;"/><path d="M507.7031,624.6792 Q507.8691,624.3804 508.0435,624.2559 Q508.2178,624.1313 508.4834,624.1313 Q508.8901,624.1313 509.0603,624.3472 Q509.2305,624.563 509.2305,625.0859 L509.2471,627.2441 Q509.2471,627.8169 509.0603,628.0161 Q508.8735,628.2153 508.3838,628.2153 Q508.0352,628.2153 507.8484,628.0493 Q507.6616,627.8833 507.5288,627.4351 Q507.313,626.6465 506.8398,626.302 Q506.3667,625.9575 505.5283,625.9575 Q504.25,625.9575 503.5693,626.8208 Q502.8887,627.6841 502.8887,629.3193 Q502.8887,630.9463 503.5776,631.8179 Q504.2666,632.6895 505.5449,632.6895 Q506.4165,632.6895 507.4666,632.1084 Q508.5166,631.5273 508.7905,631.5273 Q509.1143,631.5273 509.3342,631.8013 Q509.5542,632.0752 509.5542,632.4819 Q509.5542,633.2124 508.2676,633.8599 Q506.981,634.5073 505.3706,634.5073 Q503.1958,634.5073 501.8511,633.0713 Q500.5063,631.6353 500.5063,629.3193 Q500.5063,627.0864 501.8677,625.6089 Q503.229,624.1313 505.3208,624.1313 Q505.9102,624.1313 506.4829,624.2642 Q507.0557,624.397 507.7031,624.6792 Z "/><text fill="#000000" font-family="sans-serif" font-size="12" lengthAdjust="spacingAndGlyphs" textLength="52" x="520" y="633.5352">Producer</text><line style="stroke: #A80036; stroke-width: 1.5;" x1="492" x2="574" y1="645" y2="645"/><line style="stroke: #A80036; stroke-width: 1.5;" x1="492" x2="574" y1="653" y2="653"/><ellipse cx="502" cy="664.9775" fill="#84BE84" rx="3" ry="3" style="stroke: #038048; stroke-width: 1.0;"/><text fill="#000000" font-family="sans-serif" font-size="11" lengthAdjust="spacingAndGlyphs" textLength="25" x="511" y="667.6348">init()</text><rect fill="#FEFECE" filter="url(#f1)" height="60.9551" style="stroke: #A80036; stroke-width: 1.5;" width="221" x="538.5" y="384"/><ellipse cx="633.25" cy="400" fill="#ADD1B2" rx="11" ry="11" style="stroke: #A80036; stroke-width: 1.0;"/><path d="M634.9531,395.6792 Q635.1191,395.3804 635.2935,395.2559 Q635.4678,395.1313 635.7334,395.1313 Q636.1401,395.1313 636.3103,395.3472 Q636.4805,395.563 636.4805,396.0859 L636.4971,398.2441 Q636.4971,398.8169 636.3103,399.0161 Q636.1235,399.2153 635.6338,399.2153 Q635.2852,399.2153 635.0984,399.0493 Q634.9116,398.8833 634.7788,398.4351 Q634.563,397.6465 634.0898,397.302 Q633.6167,396.9575 632.7783,396.9575 Q631.5,396.9575 630.8193,397.8208 Q630.1387,398.6841 630.1387,400.3193 Q630.1387,401.9463 630.8276,402.8179 Q631.5166,403.6895 632.7949,403.6895 Q633.6665,403.6895 634.7166,403.1084 Q635.7666,402.5273 636.0405,402.5273 Q636.3643,402.5273 636.5842,402.8013 Q636.8042,403.0752 636.8042,403.4819 Q636.8042,404.2124 635.5176,404.8599 Q634.231,405.5073 632.6206,405.5073 Q630.4458,405.5073 629.1011,404.0713 Q627.7563,402.6353 627.7563,400.3193 Q627.7563,398.0864 629.1177,396.6089 Q630.479,395.1313 632.5708,395.1313 Q633.1602,395.1313 633.7329,395.2642 Q634.3057,395.397 634.9531,395.6792 Z "/><text fill="#000000" font-family="sans-serif" font-size="12" lengthAdjust="spacingAndGlyphs" textLength="23" x="653.75" y="404.5352">Sink</text><line style="stroke: #A80036; stroke-width: 1.5;" x1="539.5" x2="758.5" y1="416" y2="416"/><line style="stroke: #A80036; stroke-width: 1.5;" x1="539.5" x2="758.5" y1="424" y2="424"/><ellipse cx="549.5" cy="435.9775" fill="#84BE84" rx="3" ry="3" style="stroke: #038048; stroke-width: 1.0;"/><text fill="#000000" font-family="sans-serif" font-size="11" lengthAdjust="spacingAndGlyphs" textLength="195" x="558.5" y="438.6348">init(updateExecutor:updateHandler:)</text><path d="M168.0113,95.4577 C150.3029,110.8663 131.1634,127.5201 114.6675,141.8737 " fill="none" style="stroke: #A80036; stroke-width: 1.0; stroke-dasharray: 7.0,7.0;"/><polygon fill="none" points="163.4195,90.1742,183.1024,82.3265,172.6095,100.7357,163.4195,90.1742" style="stroke: #A80036; stroke-width: 1.0;"/><path d="M226,102.5866 C226,118.2649 226,134.6449 226,148.1999 " fill="none" style="stroke: #A80036; stroke-width: 1.0; stroke-dasharray: 7.0,7.0;"/><polygon fill="none" points="219.0001,102.3265,226,82.3265,233.0001,102.3264,219.0001,102.3265" style="stroke: #A80036; stroke-width: 1.0;"/><path d="M681,95.8161 C681,111.068 681,127.5101 681,141.7166 " fill="none" style="stroke: #A80036; stroke-width: 1.0; stroke-dasharray: 7.0,7.0;"/><polygon fill="none" points="674.0001,95.7423,681,75.7423,688.0001,95.7423,674.0001,95.7423" style="stroke: #A80036; stroke-width: 1.0;"/><path d="M726.4234,90.087 C745.7503,109.2707 767.7906,131.1477 785.1724,148.4007 " fill="none" style="stroke: #A80036; stroke-width: 1.0; stroke-dasharray: 7.0,7.0;"/><polygon fill="none" points="721.235,94.7999,711.9717,75.7423,731.0977,84.8637,721.235,94.7999" style="stroke: #A80036; stroke-width: 1.0;"/><path d="M306.4447,92.4872 C337.8981,111.0544 373.0619,131.8119 401.0601,148.3394 " fill="none" style="stroke: #A80036; stroke-width: 1.0; stroke-dasharray: 7.0,7.0;"/><polygon fill="none" points="302.5953,98.3436,288.9307,82.1485,309.7122,86.2874,302.5953,98.3436" style="stroke: #A80036; stroke-width: 1.0;"/><path d="M611.7253,85.7141 C577.4596,105.8527 536.7871,129.7567 505.1928,148.3253 " fill="none" style="stroke: #A80036; stroke-width: 1.0; stroke-dasharray: 7.0,7.0;"/><polygon fill="none" points="608.1886,79.6733,628.978,75.5743,615.2822,91.7431,608.1886,79.6733" style="stroke: #A80036; stroke-width: 1.0;"/><path d="M428.9393,227.5225 C420.6782,244.1823 411.7912,262.1044 404.9213,275.9587 " fill="none" style="stroke: #A80036; stroke-width: 1.0; stroke-dasharray: 7.0,7.0;"/><polygon fill="none" points="422.7031,224.3417,437.8595,209.5334,435.2457,230.5612,422.7031,224.3417" style="stroke: #A80036; stroke-width: 1.0;"/><path d="M489.4142,225.3802 C502.9599,242.6331 517.7794,261.5085 529.1246,275.9587 " fill="none" style="stroke: #A80036; stroke-width: 1.0; stroke-dasharray: 7.0,7.0;"/><polygon fill="none" points="483.8174,229.5871,476.9725,209.5334,494.8291,220.9416,483.8174,229.5871" style="stroke: #A80036; stroke-width: 1.0;"/><path d="M608.0172,216.5121 C544.2004,244.9368 487.1816,266.4439 446.7437,281.0849 " fill="none" style="stroke: #A80036; stroke-width: 1.0; stroke-dasharray: 7.0,7.0;"/><polygon fill="none" points="605.5371,209.9515,626.6459,208.1023,611.2975,222.7115,605.5371,209.9515" style="stroke: #A80036; stroke-width: 1.0;"/><path d="M156.9014,216.1139 C229.5096,244.61 294.8592,267.2641 339.3974,282.2713 " fill="none" style="stroke: #A80036; stroke-width: 1.0; stroke-dasharray: 7.0,7.0;"/><polygon fill="none" points="154.3108,222.617,138.2936,208.7444,159.4659,209.6006,154.3108,222.617" style="stroke: #A80036; stroke-width: 1.0;"/><path d="M751.9375,215.9894 C697.2565,242.7049 650.4455,261.696 613.6759,275.8313 " fill="none" style="stroke: #A80036; stroke-width: 1.0; stroke-dasharray: 7.0,7.0;"/><polygon fill="none" points="748.9381,209.6633,769.9648,207.0405,755.1631,222.2033,748.9381,209.6633" style="stroke: #A80036; stroke-width: 1.0;"/><path d="M297.4601,216.032 C368.8616,245.9404 434.035,266.8958 481.3663,281.0638 " fill="none" style="stroke: #A80036; stroke-width: 1.0; stroke-dasharray: 7.0,7.0;"/><polygon fill="none" points="294.3268,222.3056,278.6799,208.0166,299.8224,209.4294,294.3268,222.3056" style="stroke: #A80036; stroke-width: 1.0;"/><path d="M76.7353,236.2968 C77.8928,250.3031 79.0693,264.5389 80.0157,275.9903 " fill="none" style="stroke: #A80036; stroke-width: 1.0; stroke-dasharray: 7.0,7.0;"/><polygon fill="none" points="69.7531,236.7999,75.0819,216.2913,83.7055,235.6468,69.7531,236.7999" style="stroke: #A80036; stroke-width: 1.0;"/><path d="M126.5092,336.9297 C144.8268,352.128 165.7905,369.5218 183.2182,383.9818 " fill="none" style="stroke: #A80036; stroke-width: 1.0;"/><polygon fill="none" points="121.8514,342.1609,110.9293,324.003,130.7909,331.3866,121.8514,342.1609" style="stroke: #A80036; stroke-width: 1.0;"/><path d="M82,344.2477 C82,357.5296 82,371.7972 82,383.9818 " fill="none" style="stroke: #A80036; stroke-width: 1.0;"/><polygon fill="none" points="75.0001,344.003,82,324.003,89.0001,344.0029,75.0001,344.003" style="stroke: #A80036; stroke-width: 1.0;"/><path d="M224.702,229.9447 C223.5091,276.7668 221.7796,344.6502 220.7846,383.7049 " fill="none" style="stroke: #A80036; stroke-width: 1.0; stroke-dasharray: 7.0,7.0;"/><polygon fill="none" points="217.7084,229.6027,225.2156,209.7875,231.7038,229.9593,217.7084,229.6027" style="stroke: #A80036; stroke-width: 1.0;"/><path d="M393,344.0131 C393,359.6695 393,376.7233 393,390.1343 " fill="none" style="stroke: #A80036; stroke-width: 1.0; stroke-dasharray: 7.0,7.0;"/><polygon fill="none" points="386.0001,344.003,393,324.003,400.0001,344.0029,386.0001,344.003" style="stroke: #A80036; stroke-width: 1.0;"/><path d="M410.1475,457.1823 C416.5816,473.1976 423.6703,490.8423 429.2112,504.6343 " fill="none" style="stroke: #A80036; stroke-width: 1.0;"/><polygon fill="none" points="403.6035,459.6708,402.6431,438.503,416.5943,454.4518,403.6035,459.6708" style="stroke: #A80036; stroke-width: 1.0;"/><path d="M527.8435,342.3472 C505.0825,390.1662 468.8339,466.3215 450.4689,504.9047 " fill="none" style="stroke: #A80036; stroke-width: 1.0; stroke-dasharray: 7.0,7.0;"/><polygon fill="none" points="521.6249,339.1244,536.5411,324.0742,534.266,345.1414,521.6249,339.1244" style="stroke: #A80036; stroke-width: 1.0;"/><path d="M471.4241,568.4953 C483.3822,583.0613 496.7375,599.3292 507.9457,612.9818 " fill="none" style="stroke: #A80036; stroke-width: 1.0;"/><polygon fill="none" points="465.9857,572.9027,458.7055,553.003,476.8063,564.0194,465.9857,572.9027" style="stroke: #A80036; stroke-width: 1.0;"/><path d="M406.5759,568.4953 C394.6178,583.0613 381.2625,599.3292 370.0543,612.9818 " fill="none" style="stroke: #A80036; stroke-width: 1.0;"/><polygon fill="none" points="401.1937,564.0194,419.2945,553.003,412.0143,572.9027,401.1937,564.0194" style="stroke: #A80036; stroke-width: 1.0;"/><path d="M582.4247,339.026 C595.3784,353.7112 609.9076,370.1824 622.08,383.9818 " fill="none" style="stroke: #A80036; stroke-width: 1.0; stroke-dasharray: 7.0,7.0;"/><polygon fill="none" points="577.1537,343.6323,569.1729,324.003,587.6528,334.371,577.1537,343.6323" style="stroke: #A80036; stroke-width: 1.0;"/></g></svg>