<?xml version="1.0" encoding="UTF-8" standalone="yes"?><svg xmlns="http://www.w3.org/2000/svg" xmlns:xlink="http://www.w3.org/1999/xlink" height="709px" style="width:1051px;height:709px;" version="1.1" viewBox="0 0 1051 709" width="1051px"><defs><filter height="300%" id="f1" width="300%" x="-1" y="-1"><feGaussianBlur result="blurOut" stdDeviation="2.0"/><feColorMatrix in="blurOut" result="blurOut2" type="matrix" values="0 0 0 0 0 0 0 0 0 0 0 0 0 0 0 0 0 0 .4 0"/><feOffset dx="4.0" dy="4.0" in="blurOut2" result="blurOut3"/><feBlend in="SourceGraphic" in2="blurOut3" mode="normal"/></filter></defs><g><polygon fill="#FFFFFF" filter="url(#f1)" points="22,24,96,24,103,46.4883,910,46.4883,910,392,22,392,22,24" style="stroke: #000000; stroke-width: 2.0;"/><line style="stroke: #000000; stroke-width: 2.0;" x1="22" x2="103" y1="46.4883" y2="46.4883"/><text fill="#000000" font-family="sans-serif" font-size="14" font-weight="bold" lengthAdjust="spacingAndGlyphs" textLength="68" x="25" y="40.5352">Protocols</text><rect fill="#FEFECE" filter="url(#f1)" height="73.9102" style="stroke: #A80036; stroke-width: 1.5;" width="181" x="596.75" y="60"/><ellipse cx="624.35" cy="76" fill="#B4A7E5" rx="11" ry="11" style="stroke: #A80036; stroke-width: 1.0;"/><path d="M620.2777,71.7651 L620.2777,69.6069 L627.6571,69.6069 L627.6571,71.7651 L625.1918,71.7651 L625.1918,79.8418 L627.6571,79.8418 L627.6571,82 L620.2777,82 L620.2777,79.8418 L622.7431,79.8418 L622.7431,71.7651 Z "/><text fill="#000000" font-family="sans-serif" font-size="12" font-style="italic" lengthAdjust="spacingAndGlyphs" textLength="121" x="641.15" y="80.5352">CompletionController</text><line style="stroke: #A80036; stroke-width: 1.5;" x1="597.75" x2="776.75" y1="92" y2="92"/><text fill="#000000" font-family="sans-serif" font-size="11" lengthAdjust="spacingAndGlyphs" textLength="126" x="602.75" y="106.6348">associatedtype Success</text><text fill="#000000" font-family="sans-serif" font-size="11" lengthAdjust="spacingAndGlyphs" textLength="169" x="602.75" y="119.5898">Completion is Fallible«Success»</text><line style="stroke: #A80036; stroke-width: 1.5;" x1="597.75" x2="776.75" y1="125.9102" y2="125.9102"/><rect fill="#FEFECE" filter="url(#f1)" height="73.9102" style="stroke: #A80036; stroke-width: 1.5;" width="132" x="621" y="194"/><ellipse cx="651.75" cy="210" fill="#B4A7E5" rx="11" ry="11" style="stroke: #A80036; stroke-width: 1.0;"/><path d="M647.6777,205.7651 L647.6777,203.6069 L655.0571,203.6069 L655.0571,205.7651 L652.5918,205.7651 L652.5918,213.8418 L655.0571,213.8418 L655.0571,216 L647.6777,216 L647.6777,213.8418 L650.1431,213.8418 L650.1431,205.7651 Z "/><text fill="#000000" font-family="sans-serif" font-size="12" font-style="italic" lengthAdjust="spacingAndGlyphs" textLength="65" x="669.25" y="214.5352">Completing</text><line style="stroke: #A80036; stroke-width: 1.5;" x1="622" x2="752" y1="226" y2="226"/><line style="stroke: #A80036; stroke-width: 1.5;" x1="622" x2="752" y1="234" y2="234"/><text fill="#000000" font-family="sans-serif" font-size="11" lengthAdjust="spacingAndGlyphs" textLength="100" x="627" y="248.6348">func onComplete()</text><text fill="#000000" font-family="sans-serif" font-size="11" lengthAdjust="spacingAndGlyphs" textLength="120" x="627" y="261.5898">func mapCompletion()</text><rect fill="#FEFECE" filter="url(#f1)" height="60.9551" style="stroke: #A80036; stroke-width: 1.5;" width="105" x="788.75" y="200.5"/><ellipse cx="803.75" cy="216.5" fill="#B4A7E5" rx="11" ry="11" style="stroke: #A80036; stroke-width: 1.0;"/><path d="M799.6777,212.2651 L799.6777,210.1069 L807.0571,210.1069 L807.0571,212.2651 L804.5918,212.2651 L804.5918,220.3418 L807.0571,220.3418 L807.0571,222.5 L799.6777,222.5 L799.6777,220.3418 L802.1431,220.3418 L802.1431,212.2651 Z "/><text fill="#000000" font-family="sans-serif" font-size="12" font-style="italic" lengthAdjust="spacingAndGlyphs" textLength="73" x="817.75" y="221.0352">Completable</text><line style="stroke: #A80036; stroke-width: 1.5;" x1="789.75" x2="892.75" y1="232.5" y2="232.5"/><line style="stroke: #A80036; stroke-width: 1.5;" x1="789.75" x2="892.75" y1="240.5" y2="240.5"/><text fill="#000000" font-family="sans-serif" font-size="11" lengthAdjust="spacingAndGlyphs" textLength="84" x="794.75" y="255.1348">func complete()</text><rect fill="#FEFECE" filter="url(#f1)" height="60.9551" style="stroke: #A80036; stroke-width: 1.5;" width="136" x="159" y="66.5"/><ellipse cx="174" cy="82.5" fill="#B4A7E5" rx="11" ry="11" style="stroke: #A80036; stroke-width: 1.0;"/><path d="M169.9277,78.2651 L169.9277,76.1069 L177.3071,76.1069 L177.3071,78.2651 L174.8418,78.2651 L174.8418,86.3418 L177.3071,86.3418 L177.3071,88.5 L169.9277,88.5 L169.9277,86.3418 L172.3931,86.3418 L172.3931,78.2651 Z "/><text fill="#000000" font-family="sans-serif" font-size="12" font-style="italic" lengthAdjust="spacingAndGlyphs" textLength="104" x="188" y="87.0352">UpdatesController</text><line style="stroke: #A80036; stroke-width: 1.5;" x1="160" x2="294" y1="98.5" y2="98.5"/><text fill="#000000" font-family="sans-serif" font-size="11" lengthAdjust="spacingAndGlyphs" textLength="121" x="165" y="113.1348">associatedtype Update</text><line style="stroke: #A80036; stroke-width: 1.5;" x1="160" x2="294" y1="119.4551" y2="119.4551"/><rect fill="#FEFECE" filter="url(#f1)" height="73.9102" style="stroke: #A80036; stroke-width: 1.5;" width="108" x="38" y="194"/><ellipse cx="63.8" cy="210" fill="#B4A7E5" rx="11" ry="11" style="stroke: #A80036; stroke-width: 1.0;"/><path d="M59.7277,205.7651 L59.7277,203.6069 L67.1071,203.6069 L67.1071,205.7651 L64.6418,205.7651 L64.6418,213.8418 L67.1071,213.8418 L67.1071,216 L59.7277,216 L59.7277,213.8418 L62.1931,213.8418 L62.1931,205.7651 Z "/><text fill="#000000" font-family="sans-serif" font-size="12" font-style="italic" lengthAdjust="spacingAndGlyphs" textLength="52" x="80.2" y="214.5352">Updating</text><line style="stroke: #A80036; stroke-width: 1.5;" x1="39" x2="145" y1="226" y2="226"/><line style="stroke: #A80036; stroke-width: 1.5;" x1="39" x2="145" y1="234" y2="234"/><text fill="#000000" font-family="sans-serif" font-size="11" lengthAdjust="spacingAndGlyphs" textLength="87" x="44" y="248.6348">func onUpdate()</text><text fill="#000000" font-family="sans-serif" font-size="11" lengthAdjust="spacingAndGlyphs" textLength="96" x="44" y="261.5898">func mapUpdate()</text><rect fill="#FEFECE" filter="url(#f1)" height="60.9551" style="stroke: #A80036; stroke-width: 1.5;" width="92" x="181" y="200.5"/><ellipse cx="196" cy="216.5" fill="#B4A7E5" rx="11" ry="11" style="stroke: #A80036; stroke-width: 1.0;"/><path d="M191.9277,212.2651 L191.9277,210.1069 L199.3071,210.1069 L199.3071,212.2651 L196.8418,212.2651 L196.8418,220.3418 L199.3071,220.3418 L199.3071,222.5 L191.9277,222.5 L191.9277,220.3418 L194.3931,220.3418 L194.3931,212.2651 Z "/><text fill="#000000" font-family="sans-serif" font-size="12" font-style="italic" lengthAdjust="spacingAndGlyphs" textLength="60" x="210" y="221.0352">Updatable</text><line style="stroke: #A80036; stroke-width: 1.5;" x1="182" x2="272" y1="232.5" y2="232.5"/><line style="stroke: #A80036; stroke-width: 1.5;" x1="182" x2="272" y1="240.5" y2="240.5"/><text fill="#000000" font-family="sans-serif" font-size="11" lengthAdjust="spacingAndGlyphs" textLength="72" x="187" y="255.1348">func update()</text><rect fill="#FEFECE" filter="url(#f1)" height="60.9551" style="stroke: #A80036; stroke-width: 1.5;" width="278" x="308" y="200.5"/><ellipse cx="396.25" cy="216.5" fill="#B4A7E5" rx="11" ry="11" style="stroke: #A80036; stroke-width: 1.0;"/><path d="M392.1777,212.2651 L392.1777,210.1069 L399.5571,210.1069 L399.5571,212.2651 L397.0918,212.2651 L397.0918,220.3418 L399.5571,220.3418 L399.5571,222.5 L392.1777,222.5 L392.1777,220.3418 L394.6431,220.3418 L394.6431,212.2651 Z "/><text fill="#000000" font-family="sans-serif" font-size="12" font-style="italic" lengthAdjust="spacingAndGlyphs" textLength="93" x="416.75" y="221.0352">EventsController</text><line style="stroke: #A80036; stroke-width: 1.5;" x1="309" x2="585" y1="232.5" y2="232.5"/><text fill="#000000" font-family="sans-serif" font-size="11" lengthAdjust="spacingAndGlyphs" textLength="266" x="314" y="247.1348">typealias Event = ChannelEvent«Update, Success»</text><line style="stroke: #A80036; stroke-width: 1.5;" x1="309" x2="585" y1="253.4551" y2="253.4551"/><rect fill="#FEFECE" filter="url(#f1)" height="48" style="stroke: #A80036; stroke-width: 1.5;" width="89" x="338.75" y="328"/><ellipse cx="353.75" cy="344" fill="#B4A7E5" rx="11" ry="11" style="stroke: #A80036; stroke-width: 1.0;"/><path d="M349.6777,339.7651 L349.6777,337.6069 L357.0571,337.6069 L357.0571,339.7651 L354.5918,339.7651 L354.5918,347.8418 L357.0571,347.8418 L357.0571,350 L349.6777,350 L349.6777,347.8418 L352.1431,347.8418 L352.1431,339.7651 Z "/><text fill="#000000" font-family="sans-serif" font-size="12" font-style="italic" lengthAdjust="spacingAndGlyphs" textLength="57" x="367.75" y="348.5352">Streaming</text><line style="stroke: #A80036; stroke-width: 1.5;" x1="339.75" x2="426.75" y1="360" y2="360"/><line style="stroke: #A80036; stroke-width: 1.5;" x1="339.75" x2="426.75" y1="368" y2="368"/><rect fill="#FEFECE" filter="url(#f1)" height="48" style="stroke: #A80036; stroke-width: 1.5;" width="97" x="462.75" y="328"/><ellipse cx="477.75" cy="344" fill="#B4A7E5" rx="11" ry="11" style="stroke: #A80036; stroke-width: 1.0;"/><path d="M473.6777,339.7651 L473.6777,337.6069 L481.0571,337.6069 L481.0571,339.7651 L478.5918,339.7651 L478.5918,347.8418 L481.0571,347.8418 L481.0571,350 L473.6777,350 L473.6777,347.8418 L476.1431,347.8418 L476.1431,339.7651 Z "/><text fill="#000000" font-family="sans-serif" font-size="12" font-style="italic" lengthAdjust="spacingAndGlyphs" textLength="65" x="491.75" y="348.5352">Streamable</text><line style="stroke: #A80036; stroke-width: 1.5;" x1="463.75" x2="558.75" y1="360" y2="360"/><line style="stroke: #A80036; stroke-width: 1.5;" x1="463.75" x2="558.75" y1="368" y2="368"/><rect fill="#FEFECE" filter="url(#f1)" height="48" style="stroke: #A80036; stroke-width: 1.5;" width="68" x="926" y="328"/><ellipse cx="941" cy="344" fill="#ADD1B2" rx="11" ry="11" style="stroke: #A80036; stroke-width: 1.0;"/><path d="M943.9731,349.6431 Q943.3921,349.9419 942.7529,350.0913 Q942.1138,350.2407 941.4082,350.2407 Q938.9014,350.2407 937.5815,348.5889 Q936.2617,346.937 936.2617,343.8159 Q936.2617,340.6865 937.5815,339.0347 Q938.9014,337.3828 941.4082,337.3828 Q942.1138,337.3828 942.7612,337.5322 Q943.4087,337.6816 943.9731,337.9805 L943.9731,340.7031 Q943.3423,340.1221 942.7488,339.8523 Q942.1553,339.5825 941.5244,339.5825 Q940.1797,339.5825 939.4949,340.6492 Q938.8101,341.7158 938.8101,343.8159 Q938.8101,345.9077 939.4949,346.9744 Q940.1797,348.041 941.5244,348.041 Q942.1553,348.041 942.7488,347.7712 Q943.3423,347.5015 943.9731,346.9204 Z "/><text fill="#000000" font-family="sans-serif" font-size="12" lengthAdjust="spacingAndGlyphs" textLength="36" x="955" y="348.5352">Future</text><line style="stroke: #A80036; stroke-width: 1.5;" x1="927" x2="993" y1="360" y2="360"/><line style="stroke: #A80036; stroke-width: 1.5;" x1="927" x2="993" y1="368" y2="368"/><rect fill="#FEFECE" filter="url(#f1)" height="48" style="stroke: #A80036; stroke-width: 1.5;" width="78" x="964" y="436"/><ellipse cx="979" cy="452" fill="#ADD1B2" rx="11" ry="11" style="stroke: #A80036; stroke-width: 1.0;"/><path d="M981.9731,457.6431 Q981.3921,457.9419 980.7529,458.0913 Q980.1138,458.2407 979.4082,458.2407 Q976.9014,458.2407 975.5815,456.5889 Q974.2617,454.937 974.2617,451.8159 Q974.2617,448.6865 975.5815,447.0347 Q976.9014,445.3828 979.4082,445.3828 Q980.1138,445.3828 980.7612,445.5322 Q981.4087,445.6816 981.9731,445.9805 L981.9731,448.7031 Q981.3423,448.1221 980.7488,447.8523 Q980.1553,447.5825 979.5244,447.5825 Q978.1797,447.5825 977.4949,448.6492 Q976.8101,449.7158 976.8101,451.8159 Q976.8101,453.9077 977.4949,454.9744 Q978.1797,456.041 979.5244,456.041 Q980.1553,456.041 980.7488,455.7712 Q981.3423,455.5015 981.9731,454.9204 Z "/><text fill="#000000" font-family="sans-serif" font-size="12" lengthAdjust="spacingAndGlyphs" textLength="46" x="993" y="456.5352">Promise</text><line style="stroke: #A80036; stroke-width: 1.5;" x1="965" x2="1041" y1="468" y2="468"/><line style="stroke: #A80036; stroke-width: 1.5;" x1="965" x2="1041" y1="476" y2="476"/><rect fill="#FEFECE" filter="url(#f1)" height="48" style="stroke: #A80036; stroke-width: 1.5;" width="78" x="344" y="436"/><ellipse cx="359" cy="452" fill="#ADD1B2" rx="11" ry="11" style="stroke: #A80036; stroke-width: 1.0;"/><path d="M361.9731,457.6431 Q361.3921,457.9419 360.7529,458.0913 Q360.1138,458.2407 359.4082,458.2407 Q356.9014,458.2407 355.5815,456.5889 Q354.2617,454.937 354.2617,451.8159 Q354.2617,448.6865 355.5815,447.0347 Q356.9014,445.3828 359.4082,445.3828 Q360.1138,445.3828 360.7612,445.5322 Q361.4087,445.6816 361.9731,445.9805 L361.9731,448.7031 Q361.3423,448.1221 360.7488,447.8523 Q360.1553,447.5825 359.5244,447.5825 Q358.1797,447.5825 357.4949,448.6492 Q356.8101,449.7158 356.8101,451.8159 Q356.8101,453.9077 357.4949,454.9744 Q358.1797,456.041 359.5244,456.041 Q360.1553,456.041 360.7488,455.7712 Q361.3423,455.5015 361.9731,454.9204 Z "/><text fill="#000000" font-family="sans-serif" font-size="12" lengthAdjust="spacingAndGlyphs" textLength="46" x="373" y="456.5352">Channel</text><line style="stroke: #A80036; stroke-width: 1.5;" x1="345" x2="421" y1="468" y2="468"/><line style="stroke: #A80036; stroke-width: 1.5;" x1="345" x2="421" y1="476" y2="476"/><rect fill="#FEFECE" filter="url(#f1)" height="48" style="stroke: #A80036; stroke-width: 1.5;" width="111" x="373.75" y="544"/><ellipse cx="388.75" cy="560" fill="#ADD1B2" rx="11" ry="11" style="stroke: #A80036; stroke-width: 1.0;"/><path d="M391.7231,565.6431 Q391.1421,565.9419 390.5029,566.0913 Q389.8638,566.2407 389.1582,566.2407 Q386.6514,566.2407 385.3315,564.5889 Q384.0117,562.937 384.0117,559.8159 Q384.0117,556.6865 385.3315,555.0347 Q386.6514,553.3828 389.1582,553.3828 Q389.8638,553.3828 390.5112,553.5322 Q391.1587,553.6816 391.7231,553.9805 L391.7231,556.7031 Q391.0923,556.1221 390.4988,555.8523 Q389.9053,555.5825 389.2744,555.5825 Q387.9297,555.5825 387.2449,556.6492 Q386.5601,557.7158 386.5601,559.8159 Q386.5601,561.9077 387.2449,562.9744 Q387.9297,564.041 389.2744,564.041 Q389.9053,564.041 390.4988,563.7712 Q391.0923,563.5015 391.7231,562.9204 Z "/><text fill="#000000" font-family="sans-serif" font-size="12" lengthAdjust="spacingAndGlyphs" textLength="79" x="402.75" y="564.5352">BaseProducer</text><line style="stroke: #A80036; stroke-width: 1.5;" x1="374.75" x2="483.75" y1="576" y2="576"/><line style="stroke: #A80036; stroke-width: 1.5;" x1="374.75" x2="483.75" y1="584" y2="584"/><rect fill="#FEFECE" filter="url(#f1)" height="48" style="stroke: #A80036; stroke-width: 1.5;" width="116" x="304" y="652"/><ellipse cx="319" cy="668" fill="#ADD1B2" rx="11" ry="11" style="stroke: #A80036; stroke-width: 1.0;"/><path d="M321.9731,673.6431 Q321.3921,673.9419 320.7529,674.0913 Q320.1138,674.2407 319.4082,674.2407 Q316.9014,674.2407 315.5815,672.5889 Q314.2617,670.937 314.2617,667.8159 Q314.2617,664.6865 315.5815,663.0347 Q316.9014,661.3828 319.4082,661.3828 Q320.1138,661.3828 320.7612,661.5322 Q321.4087,661.6816 321.9731,661.9805 L321.9731,664.7031 Q321.3423,664.1221 320.7488,663.8523 Q320.1553,663.5825 319.5244,663.5825 Q318.1797,663.5825 317.4949,664.6492 Q316.8101,665.7158 316.8101,667.8159 Q316.8101,669.9077 317.4949,670.9744 Q318.1797,672.041 319.5244,672.041 Q320.1553,672.041 320.7488,671.7712 Q321.3423,671.5015 321.9731,670.9204 Z "/><text fill="#000000" font-family="sans-serif" font-size="12" lengthAdjust="spacingAndGlyphs" textLength="84" x="333" y="672.5352">ProducerProxy</text><line style="stroke: #A80036; stroke-width: 1.5;" x1="305" x2="419" y1="684" y2="684"/><line style="stroke: #A80036; stroke-width: 1.5;" x1="305" x2="419" y1="692" y2="692"/><rect fill="#FEFECE" filter="url(#f1)" height="48" style="stroke: #A80036; stroke-width: 1.5;" width="84" x="455" y="652"/><ellipse cx="470" cy="668" fill="#ADD1B2" rx="11" ry="11" style="stroke: #A80036; stroke-width: 1.0;"/><path d="M472.9731,673.6431 Q472.3921,673.9419 471.7529,674.0913 Q471.1138,674.2407 470.4082,674.2407 Q467.9014,674.2407 466.5815,672.5889 Q465.2617,670.937 465.2617,667.8159 Q465.2617,664.6865 466.5815,663.0347 Q467.9014,661.3828 470.4082,661.3828 Q471.1138,661.3828 471.7612,661.5322 Q472.4087,661.6816 472.9731,661.9805 L472.9731,664.7031 Q472.3423,664.1221 471.7488,663.8523 Q471.1553,663.5825 470.5244,663.5825 Q469.1797,663.5825 468.4949,664.6492 Q467.8101,665.7158 467.8101,667.8159 Q467.8101,669.9077 468.4949,670.9744 Q469.1797,672.041 470.5244,672.041 Q471.1553,672.041 471.7488,671.7712 Q472.3423,671.5015 472.9731,670.9204 Z "/><text fill="#000000" font-family="sans-serif" font-size="12" lengthAdjust="spacingAndGlyphs" textLength="52" x="484" y="672.5352">Producer</text><line style="stroke: #A80036; stroke-width: 1.5;" x1="456" x2="538" y1="684" y2="684"/><line style="stroke: #A80036; stroke-width: 1.5;" x1="456" x2="538" y1="692" y2="692"/><rect fill="#FEFECE" filter="url(#f1)" height="48" style="stroke: #A80036; stroke-width: 1.5;" width="55" x="528.75" y="436"/><ellipse cx="543.75" cy="452" fill="#ADD1B2" rx="11" ry="11" style="stroke: #A80036; stroke-width: 1.0;"/><path d="M546.7231,457.6431 Q546.1421,457.9419 545.5029,458.0913 Q544.8638,458.2407 544.1582,458.2407 Q541.6514,458.2407 540.3315,456.5889 Q539.0117,454.937 539.0117,451.8159 Q539.0117,448.6865 540.3315,447.0347 Q541.6514,445.3828 544.1582,445.3828 Q544.8638,445.3828 545.5112,445.5322 Q546.1587,445.6816 546.7231,445.9805 L546.7231,448.7031 Q546.0923,448.1221 545.4988,447.8523 Q544.9053,447.5825 544.2744,447.5825 Q542.9297,447.5825 542.2449,448.6492 Q541.5601,449.7158 541.5601,451.8159 Q541.5601,453.9077 542.2449,454.9744 Q542.9297,456.041 544.2744,456.041 Q544.9053,456.041 545.4988,455.7712 Q546.0923,455.5015 546.7231,454.9204 Z "/><text fill="#000000" font-family="sans-serif" font-size="12" lengthAdjust="spacingAndGlyphs" textLength="23" x="557.75" y="456.5352">Sink</text><line style="stroke: #A80036; stroke-width: 1.5;" x1="529.75" x2="582.75" y1="468" y2="468"/><line style="stroke: #A80036; stroke-width: 1.5;" x1="529.75" x2="582.75" y1="476" y2="476"/><path d="M687,154.379 C687,167.796 687,181.755 687,193.974 " fill="none" style="stroke: #A80036; stroke-width: 1.0; stroke-dasharray: 7.0,7.0;"/><polygon fill="none" points="680,154.07,687,134.07,694,154.07,680,154.07" style="stroke: #A80036; stroke-width: 1.0;"/><path d="M744.515,147.299 C765.363,165.168 788.25,184.786 806.499,200.428 " fill="none" style="stroke: #A80036; stroke-width: 1.0; stroke-dasharray: 7.0,7.0;"/><polygon fill="none" points="739.711,152.4,729.081,134.07,748.822,141.771,739.711,152.4" style="stroke: #A80036; stroke-width: 1.0;"/><path d="M182.224,141.781 C164.935,158.686 145.394,177.792 128.93,193.891 " fill="none" style="stroke: #A80036; stroke-width: 1.0; stroke-dasharray: 7.0,7.0;"/><polygon fill="none" points="177.509,136.601,196.703,127.623,187.297,146.611,177.509,136.601" style="stroke: #A80036; stroke-width: 1.0;"/><path d="M227,147.733 C227,165.503 227,184.952 227,200.475 " fill="none" style="stroke: #A80036; stroke-width: 1.0; stroke-dasharray: 7.0,7.0;"/><polygon fill="none" points="220,147.623,227,127.623,234,147.623,220,147.623" style="stroke: #A80036; stroke-width: 1.0;"/><path d="M603.536,143.905 C569.452,162.652 531.02,183.789 500.767,200.428 " fill="none" style="stroke: #A80036; stroke-width: 1.0; stroke-dasharray: 7.0,7.0;"/><polygon fill="none" points="600.521,137.574,621.419,134.07,607.268,149.842,600.521,137.574" style="stroke: #A80036; stroke-width: 1.0;"/><path d="M293.73,138.038 C327.235,158.141 367.113,182.068 397.792,200.475 " fill="none" style="stroke: #A80036; stroke-width: 1.0; stroke-dasharray: 7.0,7.0;"/><polygon fill="none" points="289.921,143.916,276.372,127.623,297.124,131.911,289.921,143.916" style="stroke: #A80036; stroke-width: 1.0;"/><path d="M421.499,279.416 C412.502,296.145 402.789,314.205 395.37,327.999 " fill="none" style="stroke: #A80036; stroke-width: 1.0; stroke-dasharray: 7.0,7.0;"/><polygon fill="none" points="415.377,276.02,431.015,261.722,427.707,282.652,415.377,276.02" style="stroke: #A80036; stroke-width: 1.0;"/><path d="M472.501,279.416 C481.498,296.145 491.211,314.205 498.63,327.999 " fill="none" style="stroke: #A80036; stroke-width: 1.0; stroke-dasharray: 7.0,7.0;"/><polygon fill="none" points="466.293,282.652,462.985,261.722,478.623,276.02,466.293,282.652" style="stroke: #A80036; stroke-width: 1.0;"/><path d="M165.051,268.523 C234.243,298.506 297.444,321.459 338.607,335.849 " fill="none" style="stroke: #A80036; stroke-width: 1.0; stroke-dasharray: 7.0,7.0;"/><polygon fill="none" points="161.866,274.77,146.369,260.318,167.496,261.952,161.866,274.77" style="stroke: #A80036; stroke-width: 1.0;"/><path d="M601.83,268.281 C550.39,288.612 475.549,316.593 427.524,334.467 " fill="none" style="stroke: #A80036; stroke-width: 1.0; stroke-dasharray: 7.0,7.0;"/><polygon fill="none" points="599.458,261.691,620.627,260.766,604.655,274.69,599.458,261.691" style="stroke: #A80036; stroke-width: 1.0;"/><path d="M291.448,267.903 C341.136,289.937 414.066,316.487 462.637,333.86 " fill="none" style="stroke: #A80036; stroke-width: 1.0; stroke-dasharray: 7.0,7.0;"/><polygon fill="none" points="288.234,274.13,273.001,259.4,294.094,261.415,288.234,274.13" style="stroke: #A80036; stroke-width: 1.0;"/><path d="M770.288,267.882 C770.192,267.921 770.096,267.961 770,268 C698.369,297.419 612.221,323.208 559.554,337.945 " fill="none" style="stroke: #A80036; stroke-width: 1.0; stroke-dasharray: 7.0,7.0;"/><polygon fill="none" points="767.587,261.422,788.705,259.687,773.278,274.213,767.587,261.422" style="stroke: #A80036; stroke-width: 1.0;"/><path d="M771.561,268.284 C828.752,292.845 896.283,321.894 910,328 C915.15,330.293 920.582,332.75 925.893,335.175 " fill="none" style="stroke: #A80036; stroke-width: 1.0; stroke-dasharray: 7.0,7.0;"/><polygon fill="none" points="768.662,274.658,753.047,260.335,774.186,261.793,768.662,274.658" style="stroke: #A80036; stroke-width: 1.0;"/><path d="M976.865,394.575 C982.532,408.543 988.649,423.622 993.539,435.678 " fill="none" style="stroke: #A80036; stroke-width: 1.0;"/><polygon fill="none" points="970.362,397.165,969.33,376,983.335,391.902,970.362,397.165" style="stroke: #A80036; stroke-width: 1.0;"/><path d="M912.337,252.724 C949.017,267.404 990.445,291.18 1012,328 C1031.58,361.445 1021.19,408.239 1011.99,435.904 " fill="none" style="stroke: #A80036; stroke-width: 1.0; stroke-dasharray: 7.0,7.0;"/><polygon fill="none" points="909.788,259.245,893.441,245.762,914.628,246.108,909.788,259.245" style="stroke: #A80036; stroke-width: 1.0;"/><path d="M383,396.024 C383,409.579 383,424.038 383,435.678 " fill="none" style="stroke: #A80036; stroke-width: 1.0; stroke-dasharray: 7.0,7.0;"/><polygon fill="none" points="376,396,383,376,390,396,376,396" style="stroke: #A80036; stroke-width: 1.0;"/><path d="M401.042,502.575 C407.103,516.543 413.647,531.622 418.879,543.678 " fill="none" style="stroke: #A80036; stroke-width: 1.0;"/><polygon fill="none" points="394.522,505.134,392.981,484,407.365,499.561,394.522,505.134" style="stroke: #A80036; stroke-width: 1.0;"/><path d="M494.856,395.131 C477.812,439.613 451.561,508.12 437.921,543.72 " fill="none" style="stroke: #A80036; stroke-width: 1.0; stroke-dasharray: 7.0,7.0;"/><polygon fill="none" points="488.376,392.48,502.068,376.309,501.449,397.49,488.376,392.48" style="stroke: #A80036; stroke-width: 1.0;"/><path d="M454.746,609.134 C463.962,623.4992 474.038,639.2066 482.039,651.6784 " fill="none" style="stroke: #A80036; stroke-width: 1.0;"/><polygon fill="none" points="448.662,612.614,443.755,592,460.446,605.0546,448.662,612.614" style="stroke: #A80036; stroke-width: 1.0;"/><path d="M403.632,609.134 C394.552,623.4992 384.624,639.2066 376.741,651.6784 " fill="none" style="stroke: #A80036; stroke-width: 1.0;"/><polygon fill="none" points="397.859,605.1664,414.462,592,409.693,612.6465,397.859,605.1664" style="stroke: #A80036; stroke-width: 1.0;"/><path d="M528.65,394.575 C534.579,408.543 540.981,423.622 546.099,435.678 " fill="none" style="stroke: #A80036; stroke-width: 1.0; stroke-dasharray: 7.0,7.0;"/><polygon fill="none" points="522.136,397.146,520.764,376,535.023,391.675,522.136,397.146" style="stroke: #A80036; stroke-width: 1.0;"/></g></svg>