<?xml version="1.0" encoding="UTF-8" standalone="yes"?><svg xmlns="http://www.w3.org/2000/svg" xmlns:xlink="http://www.w3.org/1999/xlink" height="1143px" style="width:3071px;height:1143px;" version="1.1" viewBox="0 0 3071 1143" width="3071px"><defs><filter height="300%" id="f1" width="300%" x="-1" y="-1"><feGaussianBlur result="blurOut" stdDeviation="2.0"/><feColorMatrix in="blurOut" result="blurOut2" type="matrix" values="0 0 0 0 0 0 0 0 0 0 0 0 0 0 0 0 0 0 .4 0"/><feOffset dx="4.0" dy="4.0" in="blurOut2" result="blurOut3"/><feBlend in="SourceGraphic" in2="blurOut3" mode="normal"/></filter></defs><g><polygon fill="#FFFFFF" filter="url(#f1)" points="2040,73.5,2145,73.5,2152,95.9883,3064,95.9883,3064,591.5,2040,591.5,2040,73.5" style="stroke: #000000; stroke-width: 2.0;"/><line style="stroke: #000000; stroke-width: 2.0;" x1="2040" x2="2152" y1="95.9883" y2="95.9883"/><text fill="#000000" font-family="sans-serif" font-size="14" font-weight="bold" lengthAdjust="spacingAndGlyphs" textLength="99" x="2044" y="89.0352">Key Protocols</text><polygon fill="#FFFFFF" filter="url(#f1)" points="1520,678,1647,678,1654,700.4883,2850,700.4883,2850,1136,1520,1136,1520,678" style="stroke: #000000; stroke-width: 2.0;"/><line style="stroke: #000000; stroke-width: 2.0;" x1="1520" x2="1654" y1="700.4883" y2="700.4883"/><text fill="#000000" font-family="sans-serif" font-size="14" font-weight="bold" lengthAdjust="spacingAndGlyphs" textLength="121" x="1524" y="693.5352">Async Primitives</text><polygon fill="#FFFFFF" filter="url(#f1)" points="1130,60.5,1390,60.5,1397,82.9883,2016,82.9883,2016,654,1130,654,1130,60.5" style="stroke: #000000; stroke-width: 2.0;"/><line style="stroke: #000000; stroke-width: 2.0;" x1="1130" x2="1397" y1="82.9883" y2="82.9883"/><text fill="#000000" font-family="sans-serif" font-size="14" font-weight="bold" lengthAdjust="spacingAndGlyphs" textLength="254" x="1134" y="76.0352">Memory &amp; Async Execution Helpers</text><polygon fill="#FFFFFF" filter="url(#f1)" points="22,24,181,24,188,46.4883,966,46.4883,966,421,22,421,22,24" style="stroke: #000000; stroke-width: 2.0;"/><line style="stroke: #000000; stroke-width: 2.0;" x1="22" x2="188" y1="46.4883" y2="46.4883"/><text fill="#000000" font-family="sans-serif" font-size="14" font-weight="bold" lengthAdjust="spacingAndGlyphs" textLength="153" x="26" y="39.5352">Various Utility Types</text><rect fill="#FEFECE" filter="url(#f1)" height="60.9551" style="stroke: #A80036; stroke-width: 1.5;" width="201" x="2616.5" y="108.5"/><ellipse cx="2631.5" cy="124.5" fill="#B4A7E5" rx="11" ry="11" style="stroke: #A80036; stroke-width: 1.0;"/><path d="M2632.1675,121.4897 L2632.1675,127.6821 L2633.562,127.6821 Q2634.1265,127.6821 2634.3713,127.8938 Q2634.6162,128.1055 2634.6162,128.5786 Q2634.6162,129.0601 2634.3672,129.28 Q2634.1182,129.5 2633.562,129.5 L2628.6313,129.5 Q2628.0669,129.5 2627.822,129.2842 Q2627.5771,129.0684 2627.5771,128.5786 Q2627.5771,128.0972 2627.8179,127.8896 Q2628.0586,127.6821 2628.6313,127.6821 L2630.0259,127.6821 L2630.0259,121.4897 L2628.6313,121.4897 Q2628.0669,121.4897 2627.822,121.2739 Q2627.5771,121.0581 2627.5771,120.5767 Q2627.5771,120.0869 2627.8179,119.8794 Q2628.0586,119.6719 2628.6313,119.6719 L2633.562,119.6719 Q2634.1514,119.6719 2634.3838,119.8794 Q2634.6162,120.0869 2634.6162,120.5767 Q2634.6162,121.0581 2634.3755,121.2739 Q2634.1348,121.4897 2633.562,121.4897 Z "/><text fill="#000000" font-family="sans-serif" font-size="12" font-style="italic" lengthAdjust="spacingAndGlyphs" textLength="121" x="2645.5" y="129.0352">CompletionController</text><rect fill="#FFFFFF" height="16.1328" style="stroke: #000000; stroke-width: 1.0; stroke-dasharray: 2.0,2.0;" width="46" x="2774.5" y="105.5"/><text fill="#000000" font-family="sans-serif" font-size="12" font-style="italic" lengthAdjust="spacingAndGlyphs" textLength="44" x="2775.5" y="118.1016">Success</text><line style="stroke: #A80036; stroke-width: 1.5;" x1="2617.5" x2="2816.5" y1="140.5" y2="140.5"/><text fill="#000000" font-family="sans-serif" font-size="11" lengthAdjust="spacingAndGlyphs" textLength="175" x="2622.5" y="155.1348">Completion is Fallible&lt;Success&gt;</text><line style="stroke: #A80036; stroke-width: 1.5;" x1="2617.5" x2="2816.5" y1="161.4551" y2="161.4551"/><rect fill="#FEFECE" filter="url(#f1)" height="73.9102" style="stroke: #A80036; stroke-width: 1.5;" width="145" x="2221.5" y="305"/><ellipse cx="2236.5" cy="321" fill="#B4A7E5" rx="11" ry="11" style="stroke: #A80036; stroke-width: 1.0;"/><path d="M2237.1675,317.9897 L2237.1675,324.1821 L2238.562,324.1821 Q2239.1265,324.1821 2239.3713,324.3938 Q2239.6162,324.6055 2239.6162,325.0786 Q2239.6162,325.5601 2239.3672,325.78 Q2239.1182,326 2238.562,326 L2233.6313,326 Q2233.0669,326 2232.822,325.7842 Q2232.5771,325.5684 2232.5771,325.0786 Q2232.5771,324.5972 2232.8179,324.3896 Q2233.0586,324.1821 2233.6313,324.1821 L2235.0259,324.1821 L2235.0259,317.9897 L2233.6313,317.9897 Q2233.0669,317.9897 2232.822,317.7739 Q2232.5771,317.5581 2232.5771,317.0767 Q2232.5771,316.5869 2232.8179,316.3794 Q2233.0586,316.1719 2233.6313,316.1719 L2238.562,316.1719 Q2239.1514,316.1719 2239.3838,316.3794 Q2239.6162,316.5869 2239.6162,317.0767 Q2239.6162,317.5581 2239.3755,317.7739 Q2239.1348,317.9897 2238.562,317.9897 Z "/><text fill="#000000" font-family="sans-serif" font-size="12" font-style="italic" lengthAdjust="spacingAndGlyphs" textLength="65" x="2250.5" y="325.5352">Completing</text><rect fill="#FFFFFF" height="16.1328" style="stroke: #000000; stroke-width: 1.0; stroke-dasharray: 2.0,2.0;" width="46" x="2323.5" y="302"/><text fill="#000000" font-family="sans-serif" font-size="12" font-style="italic" lengthAdjust="spacingAndGlyphs" textLength="44" x="2324.5" y="314.6016">Success</text><line style="stroke: #A80036; stroke-width: 1.5;" x1="2222.5" x2="2365.5" y1="337" y2="337"/><line style="stroke: #A80036; stroke-width: 1.5;" x1="2222.5" x2="2365.5" y1="345" y2="345"/><text fill="#000000" font-family="sans-serif" font-size="11" lengthAdjust="spacingAndGlyphs" textLength="100" x="2227.5" y="359.6348">func onComplete()</text><text fill="#000000" font-family="sans-serif" font-size="11" lengthAdjust="spacingAndGlyphs" textLength="120" x="2227.5" y="372.5898">func mapCompletion()</text><rect fill="#FEFECE" filter="url(#f1)" height="60.9551" style="stroke: #A80036; stroke-width: 1.5;" width="153" x="2894.5" y="311.5"/><ellipse cx="2909.5" cy="327.5" fill="#B4A7E5" rx="11" ry="11" style="stroke: #A80036; stroke-width: 1.0;"/><path d="M2910.1675,324.4897 L2910.1675,330.6821 L2911.562,330.6821 Q2912.1265,330.6821 2912.3713,330.8938 Q2912.6162,331.1055 2912.6162,331.5786 Q2912.6162,332.0601 2912.3672,332.28 Q2912.1182,332.5 2911.562,332.5 L2906.6313,332.5 Q2906.0669,332.5 2905.822,332.2842 Q2905.5771,332.0684 2905.5771,331.5786 Q2905.5771,331.0972 2905.8179,330.8896 Q2906.0586,330.6821 2906.6313,330.6821 L2908.0259,330.6821 L2908.0259,324.4897 L2906.6313,324.4897 Q2906.0669,324.4897 2905.822,324.2739 Q2905.5771,324.0581 2905.5771,323.5767 Q2905.5771,323.0869 2905.8179,322.8794 Q2906.0586,322.6719 2906.6313,322.6719 L2911.562,322.6719 Q2912.1514,322.6719 2912.3838,322.8794 Q2912.6162,323.0869 2912.6162,323.5767 Q2912.6162,324.0581 2912.3755,324.2739 Q2912.1348,324.4897 2911.562,324.4897 Z "/><text fill="#000000" font-family="sans-serif" font-size="12" font-style="italic" lengthAdjust="spacingAndGlyphs" textLength="73" x="2923.5" y="332.0352">Completable</text><rect fill="#FFFFFF" height="16.1328" style="stroke: #000000; stroke-width: 1.0; stroke-dasharray: 2.0,2.0;" width="46" x="3004.5" y="308.5"/><text fill="#000000" font-family="sans-serif" font-size="12" font-style="italic" lengthAdjust="spacingAndGlyphs" textLength="44" x="3005.5" y="321.1016">Success</text><line style="stroke: #A80036; stroke-width: 1.5;" x1="2895.5" x2="3046.5" y1="343.5" y2="343.5"/><line style="stroke: #A80036; stroke-width: 1.5;" x1="2895.5" x2="3046.5" y1="351.5" y2="351.5"/><text fill="#000000" font-family="sans-serif" font-size="11" lengthAdjust="spacingAndGlyphs" textLength="84" x="2900.5" y="366.1348">func complete()</text><rect fill="#FEFECE" filter="url(#f1)" height="48" style="stroke: #A80036; stroke-width: 1.5;" width="182" x="2380" y="115"/><ellipse cx="2395" cy="131" fill="#B4A7E5" rx="11" ry="11" style="stroke: #A80036; stroke-width: 1.0;"/><path d="M2395.6675,127.9897 L2395.6675,134.1821 L2397.062,134.1821 Q2397.6265,134.1821 2397.8713,134.3938 Q2398.1162,134.6055 2398.1162,135.0786 Q2398.1162,135.5601 2397.8672,135.78 Q2397.6182,136 2397.062,136 L2392.1313,136 Q2391.5669,136 2391.322,135.7842 Q2391.0771,135.5684 2391.0771,135.0786 Q2391.0771,134.5972 2391.3179,134.3896 Q2391.5586,134.1821 2392.1313,134.1821 L2393.5259,134.1821 L2393.5259,127.9897 L2392.1313,127.9897 Q2391.5669,127.9897 2391.322,127.7739 Q2391.0771,127.5581 2391.0771,127.0767 Q2391.0771,126.5869 2391.3179,126.3794 Q2391.5586,126.1719 2392.1313,126.1719 L2397.062,126.1719 Q2397.6514,126.1719 2397.8838,126.3794 Q2398.1162,126.5869 2398.1162,127.0767 Q2398.1162,127.5581 2397.8755,127.7739 Q2397.6348,127.9897 2397.062,127.9897 Z "/><text fill="#000000" font-family="sans-serif" font-size="12" font-style="italic" lengthAdjust="spacingAndGlyphs" textLength="104" x="2409" y="135.5352">UpdatesController</text><rect fill="#FFFFFF" height="16.1328" style="stroke: #000000; stroke-width: 1.0; stroke-dasharray: 2.0,2.0;" width="44" x="2521" y="112"/><text fill="#000000" font-family="sans-serif" font-size="12" font-style="italic" lengthAdjust="spacingAndGlyphs" textLength="42" x="2522" y="124.6016">Update</text><line style="stroke: #A80036; stroke-width: 1.5;" x1="2381" x2="2561" y1="147" y2="147"/><line style="stroke: #A80036; stroke-width: 1.5;" x1="2381" x2="2561" y1="155" y2="155"/><rect fill="#FEFECE" filter="url(#f1)" height="73.9102" style="stroke: #A80036; stroke-width: 1.5;" width="130" x="2056" y="305"/><ellipse cx="2071" cy="321" fill="#B4A7E5" rx="11" ry="11" style="stroke: #A80036; stroke-width: 1.0;"/><path d="M2071.6675,317.9897 L2071.6675,324.1821 L2073.062,324.1821 Q2073.6265,324.1821 2073.8713,324.3938 Q2074.1162,324.6055 2074.1162,325.0786 Q2074.1162,325.5601 2073.8672,325.78 Q2073.6182,326 2073.062,326 L2068.1313,326 Q2067.5669,326 2067.322,325.7842 Q2067.0771,325.5684 2067.0771,325.0786 Q2067.0771,324.5972 2067.3179,324.3896 Q2067.5586,324.1821 2068.1313,324.1821 L2069.5259,324.1821 L2069.5259,317.9897 L2068.1313,317.9897 Q2067.5669,317.9897 2067.322,317.7739 Q2067.0771,317.5581 2067.0771,317.0767 Q2067.0771,316.5869 2067.3179,316.3794 Q2067.5586,316.1719 2068.1313,316.1719 L2073.062,316.1719 Q2073.6514,316.1719 2073.8838,316.3794 Q2074.1162,316.5869 2074.1162,317.0767 Q2074.1162,317.5581 2073.8755,317.7739 Q2073.6348,317.9897 2073.062,317.9897 Z "/><text fill="#000000" font-family="sans-serif" font-size="12" font-style="italic" lengthAdjust="spacingAndGlyphs" textLength="52" x="2085" y="325.5352">Updating</text><rect fill="#FFFFFF" height="16.1328" style="stroke: #000000; stroke-width: 1.0; stroke-dasharray: 2.0,2.0;" width="44" x="2145" y="302"/><text fill="#000000" font-family="sans-serif" font-size="12" font-style="italic" lengthAdjust="spacingAndGlyphs" textLength="42" x="2146" y="314.6016">Update</text><line style="stroke: #A80036; stroke-width: 1.5;" x1="2057" x2="2185" y1="337" y2="337"/><line style="stroke: #A80036; stroke-width: 1.5;" x1="2057" x2="2185" y1="345" y2="345"/><text fill="#000000" font-family="sans-serif" font-size="11" lengthAdjust="spacingAndGlyphs" textLength="87" x="2062" y="359.6348">func onUpdate()</text><text fill="#000000" font-family="sans-serif" font-size="11" lengthAdjust="spacingAndGlyphs" textLength="96" x="2062" y="372.5898">func mapUpdate()</text><rect fill="#FEFECE" filter="url(#f1)" height="60.9551" style="stroke: #A80036; stroke-width: 1.5;" width="138" x="2402" y="311.5"/><ellipse cx="2417" cy="327.5" fill="#B4A7E5" rx="11" ry="11" style="stroke: #A80036; stroke-width: 1.0;"/><path d="M2417.6675,324.4897 L2417.6675,330.6821 L2419.062,330.6821 Q2419.6265,330.6821 2419.8713,330.8938 Q2420.1162,331.1055 2420.1162,331.5786 Q2420.1162,332.0601 2419.8672,332.28 Q2419.6182,332.5 2419.062,332.5 L2414.1313,332.5 Q2413.5669,332.5 2413.322,332.2842 Q2413.0771,332.0684 2413.0771,331.5786 Q2413.0771,331.0972 2413.3179,330.8896 Q2413.5586,330.6821 2414.1313,330.6821 L2415.5259,330.6821 L2415.5259,324.4897 L2414.1313,324.4897 Q2413.5669,324.4897 2413.322,324.2739 Q2413.0771,324.0581 2413.0771,323.5767 Q2413.0771,323.0869 2413.3179,322.8794 Q2413.5586,322.6719 2414.1313,322.6719 L2419.062,322.6719 Q2419.6514,322.6719 2419.8838,322.8794 Q2420.1162,323.0869 2420.1162,323.5767 Q2420.1162,324.0581 2419.8755,324.2739 Q2419.6348,324.4897 2419.062,324.4897 Z "/><text fill="#000000" font-family="sans-serif" font-size="12" font-style="italic" lengthAdjust="spacingAndGlyphs" textLength="60" x="2431" y="332.0352">Updatable</text><rect fill="#FFFFFF" height="16.1328" style="stroke: #000000; stroke-width: 1.0; stroke-dasharray: 2.0,2.0;" width="44" x="2499" y="308.5"/><text fill="#000000" font-family="sans-serif" font-size="12" font-style="italic" lengthAdjust="spacingAndGlyphs" textLength="42" x="2500" y="321.1016">Update</text><line style="stroke: #A80036; stroke-width: 1.5;" x1="2403" x2="2539" y1="343.5" y2="343.5"/><line style="stroke: #A80036; stroke-width: 1.5;" x1="2403" x2="2539" y1="351.5" y2="351.5"/><text fill="#000000" font-family="sans-serif" font-size="11" lengthAdjust="spacingAndGlyphs" textLength="72" x="2408" y="366.1348">func update()</text><rect fill="#FEFECE" filter="url(#f1)" height="60.9551" style="stroke: #A80036; stroke-width: 1.5;" width="284" x="2575" y="311.5"/><ellipse cx="2617.45" cy="327.5" fill="#B4A7E5" rx="11" ry="11" style="stroke: #A80036; stroke-width: 1.0;"/><path d="M2618.1175,324.4897 L2618.1175,330.6821 L2619.512,330.6821 Q2620.0765,330.6821 2620.3213,330.8938 Q2620.5662,331.1055 2620.5662,331.5786 Q2620.5662,332.0601 2620.3172,332.28 Q2620.0682,332.5 2619.512,332.5 L2614.5813,332.5 Q2614.0169,332.5 2613.772,332.2842 Q2613.5271,332.0684 2613.5271,331.5786 Q2613.5271,331.0972 2613.7679,330.8896 Q2614.0086,330.6821 2614.5813,330.6821 L2615.9759,330.6821 L2615.9759,324.4897 L2614.5813,324.4897 Q2614.0169,324.4897 2613.772,324.2739 Q2613.5271,324.0581 2613.5271,323.5767 Q2613.5271,323.0869 2613.7679,322.8794 Q2614.0086,322.6719 2614.5813,322.6719 L2619.512,322.6719 Q2620.1014,322.6719 2620.3338,322.8794 Q2620.5662,323.0869 2620.5662,323.5767 Q2620.5662,324.0581 2620.3255,324.2739 Q2620.0848,324.4897 2619.512,324.4897 Z "/><text fill="#000000" font-family="sans-serif" font-size="12" font-style="italic" lengthAdjust="spacingAndGlyphs" textLength="93" x="2637.55" y="332.0352">EventsController</text><rect fill="#FFFFFF" height="16.1328" style="stroke: #000000; stroke-width: 1.0; stroke-dasharray: 2.0,2.0;" width="96" x="2766" y="308.5"/><text fill="#000000" font-family="sans-serif" font-size="12" font-style="italic" lengthAdjust="spacingAndGlyphs" textLength="94" x="2767" y="321.1016">Update, Success</text><line style="stroke: #A80036; stroke-width: 1.5;" x1="2576" x2="2858" y1="343.5" y2="343.5"/><text fill="#000000" font-family="sans-serif" font-size="11" lengthAdjust="spacingAndGlyphs" textLength="272" x="2581" y="358.1348">typealias Event = ChannelEvent&lt;Update, Success&gt;</text><line style="stroke: #A80036; stroke-width: 1.5;" x1="2576" x2="2858" y1="364.4551" y2="364.4551"/><rect fill="#FEFECE" filter="url(#f1)" height="48" style="stroke: #A80036; stroke-width: 1.5;" width="205" x="2334.5" y="527.5"/><ellipse cx="2349.5" cy="543.5" fill="#B4A7E5" rx="11" ry="11" style="stroke: #A80036; stroke-width: 1.0;"/><path d="M2350.1675,540.4897 L2350.1675,546.6821 L2351.562,546.6821 Q2352.1265,546.6821 2352.3713,546.8938 Q2352.6162,547.1055 2352.6162,547.5786 Q2352.6162,548.0601 2352.3672,548.28 Q2352.1182,548.5 2351.562,548.5 L2346.6313,548.5 Q2346.0669,548.5 2345.822,548.2842 Q2345.5771,548.0684 2345.5771,547.5786 Q2345.5771,547.0972 2345.8179,546.8896 Q2346.0586,546.6821 2346.6313,546.6821 L2348.0259,546.6821 L2348.0259,540.4897 L2346.6313,540.4897 Q2346.0669,540.4897 2345.822,540.2739 Q2345.5771,540.0581 2345.5771,539.5767 Q2345.5771,539.0869 2345.8179,538.8794 Q2346.0586,538.6719 2346.6313,538.6719 L2351.562,538.6719 Q2352.1514,538.6719 2352.3838,538.8794 Q2352.6162,539.0869 2352.6162,539.5767 Q2352.6162,540.0581 2352.3755,540.2739 Q2352.1348,540.4897 2351.562,540.4897 Z "/><text fill="#000000" font-family="sans-serif" font-size="12" font-style="italic" lengthAdjust="spacingAndGlyphs" textLength="75" x="2363.5" y="548.0352">EventsSource</text><rect fill="#FFFFFF" height="16.1328" style="stroke: #000000; stroke-width: 1.0; stroke-dasharray: 2.0,2.0;" width="96" x="2446.5" y="524.5"/><text fill="#000000" font-family="sans-serif" font-size="12" font-style="italic" lengthAdjust="spacingAndGlyphs" textLength="94" x="2447.5" y="537.1016">Update, Success</text><line style="stroke: #A80036; stroke-width: 1.5;" x1="2335.5" x2="2538.5" y1="559.5" y2="559.5"/><line style="stroke: #A80036; stroke-width: 1.5;" x1="2335.5" x2="2538.5" y1="567.5" y2="567.5"/><rect fill="#FEFECE" filter="url(#f1)" height="48" style="stroke: #A80036; stroke-width: 1.5;" width="231" x="2605.5" y="527.5"/><ellipse cx="2620.5" cy="543.5" fill="#B4A7E5" rx="11" ry="11" style="stroke: #A80036; stroke-width: 1.0;"/><path d="M2621.1675,540.4897 L2621.1675,546.6821 L2622.562,546.6821 Q2623.1265,546.6821 2623.3713,546.8938 Q2623.6162,547.1055 2623.6162,547.5786 Q2623.6162,548.0601 2623.3672,548.28 Q2623.1182,548.5 2622.562,548.5 L2617.6313,548.5 Q2617.0669,548.5 2616.822,548.2842 Q2616.5771,548.0684 2616.5771,547.5786 Q2616.5771,547.0972 2616.8179,546.8896 Q2617.0586,546.6821 2617.6313,546.6821 L2619.0259,546.6821 L2619.0259,540.4897 L2617.6313,540.4897 Q2617.0669,540.4897 2616.822,540.2739 Q2616.5771,540.0581 2616.5771,539.5767 Q2616.5771,539.0869 2616.8179,538.8794 Q2617.0586,538.6719 2617.6313,538.6719 L2622.562,538.6719 Q2623.1514,538.6719 2623.3838,538.8794 Q2623.6162,539.0869 2623.6162,539.5767 Q2623.6162,540.0581 2623.3755,540.2739 Q2623.1348,540.4897 2622.562,540.4897 Z "/><text fill="#000000" font-family="sans-serif" font-size="12" font-style="italic" lengthAdjust="spacingAndGlyphs" textLength="101" x="2634.5" y="548.0352">EventsDestination</text><rect fill="#FFFFFF" height="16.1328" style="stroke: #000000; stroke-width: 1.0; stroke-dasharray: 2.0,2.0;" width="96" x="2743.5" y="524.5"/><text fill="#000000" font-family="sans-serif" font-size="12" font-style="italic" lengthAdjust="spacingAndGlyphs" textLength="94" x="2744.5" y="537.1016">Update, Success</text><line style="stroke: #A80036; stroke-width: 1.5;" x1="2606.5" x2="2835.5" y1="559.5" y2="559.5"/><line style="stroke: #A80036; stroke-width: 1.5;" x1="2606.5" x2="2835.5" y1="567.5" y2="567.5"/><rect fill="#FEFECE" filter="url(#f1)" height="73.9102" style="stroke: #A80036; stroke-width: 1.5;" width="215" x="2100.5" y="719.5"/><ellipse cx="2161.75" cy="735.5" fill="#A9DCDF" rx="11" ry="11" style="stroke: #A80036; stroke-width: 1.0;"/><path d="M2166.0303,737.6821 L2166.1714,737.6821 Q2166.6196,737.6821 2166.8521,737.9104 Q2167.0845,738.1387 2167.0845,738.5786 Q2167.0845,739.0684 2166.8396,739.2842 Q2166.5947,739.5 2166.0303,739.5 L2163.5317,739.5 Q2162.959,739.5 2162.7183,739.2883 Q2162.4775,739.0767 2162.4775,738.5786 Q2162.4775,738.0972 2162.7183,737.8896 Q2162.959,737.6821 2163.5317,737.6821 L2163.8223,737.6821 L2163.4819,736.7109 L2159.896,736.7109 L2159.5391,737.6821 L2159.8296,737.6821 Q2160.394,737.6821 2160.6389,737.8938 Q2160.8838,738.1055 2160.8838,738.5786 Q2160.8838,739.0684 2160.6389,739.2842 Q2160.394,739.5 2159.8296,739.5 L2157.688,739.5 Q2157.1152,739.5 2156.8745,739.2842 Q2156.6338,739.0684 2156.6338,738.5786 Q2156.6338,738.1387 2156.8662,737.9104 Q2157.0986,737.6821 2157.5469,737.6821 L2157.688,737.6821 L2159.9126,731.4897 L2159.2485,731.4897 Q2158.6841,731.4897 2158.4392,731.2739 Q2158.1943,731.0581 2158.1943,730.5767 Q2158.1943,730.0869 2158.4392,729.8711 Q2158.6841,729.6553 2159.2485,729.6553 L2162.3613,729.6553 Q2163.1001,729.6553 2163.3989,730.4521 L2163.3989,730.4771 Z M2161.6807,731.4897 L2160.4771,734.9927 L2162.8843,734.9927 Z "/><text fill="#000000" font-family="sans-serif" font-size="12" font-style="italic" lengthAdjust="spacingAndGlyphs" textLength="36" x="2182.25" y="740.0352">Future</text><rect fill="#FFFFFF" height="16.1328" style="stroke: #000000; stroke-width: 1.0; stroke-dasharray: 2.0,2.0;" width="46" x="2272.5" y="716.5"/><text fill="#000000" font-family="sans-serif" font-size="12" font-style="italic" lengthAdjust="spacingAndGlyphs" textLength="44" x="2273.5" y="729.1016">Success</text><line style="stroke: #A80036; stroke-width: 1.5;" x1="2101.5" x2="2314.5" y1="751.5" y2="751.5"/><text fill="#000000" font-family="sans-serif" font-size="11" font-weight="bold" lengthAdjust="spacingAndGlyphs" textLength="203" x="2106.5" y="766.1348">abstract immutable proxy of a value</text><text fill="#000000" font-family="sans-serif" font-size="11" font-weight="bold" lengthAdjust="spacingAndGlyphs" textLength="146" x="2106.5" y="779.0898">that will be available later</text><line style="stroke: #A80036; stroke-width: 1.0;" x1="2101.5" x2="2314.5" y1="785.4102" y2="785.4102"/><line style="stroke: #A80036; stroke-width: 1.0;" x1="2101.5" x2="2314.5" y1="787.4102" y2="787.4102"/><rect fill="#FEFECE" filter="url(#f1)" height="86.8652" style="stroke: #A80036; stroke-width: 1.5;" width="197" x="2044.5" y="860"/><ellipse cx="2073.45" cy="876" fill="#ADD1B2" rx="11" ry="11" style="stroke: #A80036; stroke-width: 1.0;"/><path d="M2075.1531,871.6792 Q2075.3191,871.3804 2075.4935,871.2559 Q2075.6678,871.1313 2075.9334,871.1313 Q2076.3401,871.1313 2076.5103,871.3472 Q2076.6805,871.563 2076.6805,872.0859 L2076.6971,874.2441 Q2076.6971,874.8169 2076.5103,875.0161 Q2076.3235,875.2153 2075.8338,875.2153 Q2075.4852,875.2153 2075.2984,875.0493 Q2075.1116,874.8833 2074.9788,874.4351 Q2074.763,873.6465 2074.2898,873.302 Q2073.8167,872.9575 2072.9783,872.9575 Q2071.7,872.9575 2071.0193,873.8208 Q2070.3387,874.6841 2070.3387,876.3193 Q2070.3387,877.9463 2071.0276,878.8179 Q2071.7166,879.6895 2072.9949,879.6895 Q2073.8665,879.6895 2074.9166,879.1084 Q2075.9666,878.5273 2076.2405,878.5273 Q2076.5643,878.5273 2076.7842,878.8013 Q2077.0042,879.0752 2077.0042,879.4819 Q2077.0042,880.2124 2075.7176,880.8599 Q2074.431,881.5073 2072.8206,881.5073 Q2070.6458,881.5073 2069.3011,880.0713 Q2067.9563,878.6353 2067.9563,876.3193 Q2067.9563,874.0864 2069.3177,872.6089 Q2070.679,871.1313 2072.7708,871.1313 Q2073.3602,871.1313 2073.9329,871.2642 Q2074.5057,871.397 2075.1531,871.6792 Z "/><text fill="#000000" font-family="sans-serif" font-size="12" lengthAdjust="spacingAndGlyphs" textLength="86" x="2090.55" y="880.5352">ConstantFuture</text><rect fill="#FFFFFF" height="16.1328" style="stroke: #000000; stroke-width: 1.0; stroke-dasharray: 2.0,2.0;" width="46" x="2198.5" y="857"/><text fill="#000000" font-family="sans-serif" font-size="12" font-style="italic" lengthAdjust="spacingAndGlyphs" textLength="44" x="2199.5" y="869.6016">Success</text><line style="stroke: #A80036; stroke-width: 1.5;" x1="2045.5" x2="2240.5" y1="892" y2="892"/><text fill="#000000" font-family="sans-serif" font-size="11" font-weight="bold" lengthAdjust="spacingAndGlyphs" textLength="185" x="2050.5" y="906.6348">private implementation of future</text><text fill="#000000" font-family="sans-serif" font-size="11" font-weight="bold" lengthAdjust="spacingAndGlyphs" textLength="170" x="2050.5" y="919.5898">that has been made completed</text><line style="stroke: #A80036; stroke-width: 1.0;" x1="2045.5" x2="2240.5" y1="925.9102" y2="925.9102"/><line style="stroke: #A80036; stroke-width: 1.0;" x1="2045.5" x2="2240.5" y1="927.9102" y2="927.9102"/><rect fill="#F24D5C" height="6" style="stroke: #C82930; stroke-width: 1.0;" width="6" x="2052.5" y="934.8877"/><text fill="#000000" font-family="sans-serif" font-size="11" lengthAdjust="spacingAndGlyphs" textLength="88" x="2064.5" y="940.5449">init(completion:)</text><rect fill="#FEFECE" filter="url(#f1)" height="73.9102" style="stroke: #A80036; stroke-width: 1.5;" width="126" x="2277" y="866.5"/><ellipse cx="2292" cy="882.5" fill="#ADD1B2" rx="11" ry="11" style="stroke: #A80036; stroke-width: 1.0;"/><path d="M2293.7031,878.1792 Q2293.8691,877.8804 2294.0435,877.7559 Q2294.2178,877.6313 2294.4834,877.6313 Q2294.8901,877.6313 2295.0603,877.8472 Q2295.2305,878.063 2295.2305,878.5859 L2295.2471,880.7441 Q2295.2471,881.3169 2295.0603,881.5161 Q2294.8735,881.7153 2294.3838,881.7153 Q2294.0352,881.7153 2293.8484,881.5493 Q2293.6616,881.3833 2293.5288,880.9351 Q2293.313,880.1465 2292.8398,879.802 Q2292.3667,879.4575 2291.5283,879.4575 Q2290.25,879.4575 2289.5693,880.3208 Q2288.8887,881.1841 2288.8887,882.8193 Q2288.8887,884.4463 2289.5776,885.3179 Q2290.2666,886.1895 2291.5449,886.1895 Q2292.4165,886.1895 2293.4666,885.6084 Q2294.5166,885.0273 2294.7905,885.0273 Q2295.1143,885.0273 2295.3342,885.3013 Q2295.5542,885.5752 2295.5542,885.9819 Q2295.5542,886.7124 2294.2676,887.3599 Q2292.981,888.0073 2291.3706,888.0073 Q2289.1958,888.0073 2287.8511,886.5713 Q2286.5063,885.1353 2286.5063,882.8193 Q2286.5063,880.5864 2287.8677,879.1089 Q2289.229,877.6313 2291.3208,877.6313 Q2291.9102,877.6313 2292.4829,877.7642 Q2293.0557,877.897 2293.7031,878.1792 Z "/><text fill="#000000" font-family="sans-serif" font-size="12" lengthAdjust="spacingAndGlyphs" textLength="46" x="2306" y="887.0352">Promise</text><rect fill="#FFFFFF" height="16.1328" style="stroke: #000000; stroke-width: 1.0; stroke-dasharray: 2.0,2.0;" width="46" x="2360" y="863.5"/><text fill="#000000" font-family="sans-serif" font-size="12" font-style="italic" lengthAdjust="spacingAndGlyphs" textLength="44" x="2361" y="876.1016">Success</text><line style="stroke: #A80036; stroke-width: 1.5;" x1="2278" x2="2402" y1="898.5" y2="898.5"/><text fill="#000000" font-family="sans-serif" font-size="11" font-weight="bold" lengthAdjust="spacingAndGlyphs" textLength="83" x="2283" y="913.1348">mutable future</text><line style="stroke: #A80036; stroke-width: 1.0;" x1="2278" x2="2402" y1="919.4551" y2="919.4551"/><line style="stroke: #A80036; stroke-width: 1.0;" x1="2278" x2="2402" y1="921.4551" y2="921.4551"/><ellipse cx="2288" cy="931.4326" fill="#84BE84" rx="3" ry="3" style="stroke: #038048; stroke-width: 1.0;"/><text fill="#000000" font-family="sans-serif" font-size="11" lengthAdjust="spacingAndGlyphs" textLength="25" x="2297" y="934.0898">init()</text><rect fill="#FEFECE" filter="url(#f1)" height="86.8652" style="stroke: #A80036; stroke-width: 1.5;" width="223" x="2350.5" y="713"/><ellipse cx="2386.65" cy="729" fill="#A9DCDF" rx="11" ry="11" style="stroke: #A80036; stroke-width: 1.0;"/><path d="M2390.9303,731.1821 L2391.0714,731.1821 Q2391.5196,731.1821 2391.7521,731.4104 Q2391.9845,731.6387 2391.9845,732.0786 Q2391.9845,732.5684 2391.7396,732.7842 Q2391.4947,733 2390.9303,733 L2388.4317,733 Q2387.859,733 2387.6183,732.7883 Q2387.3775,732.5767 2387.3775,732.0786 Q2387.3775,731.5972 2387.6183,731.3896 Q2387.859,731.1821 2388.4317,731.1821 L2388.7223,731.1821 L2388.3819,730.2109 L2384.796,730.2109 L2384.4391,731.1821 L2384.7296,731.1821 Q2385.294,731.1821 2385.5389,731.3938 Q2385.7838,731.6055 2385.7838,732.0786 Q2385.7838,732.5684 2385.5389,732.7842 Q2385.294,733 2384.7296,733 L2382.588,733 Q2382.0152,733 2381.7745,732.7842 Q2381.5338,732.5684 2381.5338,732.0786 Q2381.5338,731.6387 2381.7662,731.4104 Q2381.9986,731.1821 2382.4469,731.1821 L2382.588,731.1821 L2384.8126,724.9897 L2384.1485,724.9897 Q2383.5841,724.9897 2383.3392,724.7739 Q2383.0943,724.5581 2383.0943,724.0767 Q2383.0943,723.5869 2383.3392,723.3711 Q2383.5841,723.1553 2384.1485,723.1553 L2387.2613,723.1553 Q2388.0001,723.1553 2388.2989,723.9521 L2388.2989,723.9771 Z M2386.5807,724.9897 L2385.3771,728.4927 L2387.7843,728.4927 Z "/><text fill="#000000" font-family="sans-serif" font-size="12" font-style="italic" lengthAdjust="spacingAndGlyphs" textLength="46" x="2405.35" y="733.5352">Channel</text><rect fill="#FFFFFF" height="16.1328" style="stroke: #000000; stroke-width: 1.0; stroke-dasharray: 2.0,2.0;" width="96" x="2480.5" y="710"/><text fill="#000000" font-family="sans-serif" font-size="12" font-style="italic" lengthAdjust="spacingAndGlyphs" textLength="94" x="2481.5" y="722.6016">Update, Success</text><line style="stroke: #A80036; stroke-width: 1.5;" x1="2351.5" x2="2572.5" y1="745" y2="745"/><text fill="#000000" font-family="sans-serif" font-size="11" font-weight="bold" lengthAdjust="spacingAndGlyphs" textLength="211" x="2356.5" y="759.6348">abstract immutable proxy for updates</text><text fill="#000000" font-family="sans-serif" font-size="11" font-weight="bold" lengthAdjust="spacingAndGlyphs" textLength="148" x="2356.5" y="772.5898">that will arrive one by one</text><text fill="#000000" font-family="sans-serif" font-size="11" font-weight="bold" lengthAdjust="spacingAndGlyphs" textLength="143" x="2356.5" y="785.5449">followed by a completion</text><line style="stroke: #A80036; stroke-width: 1.0;" x1="2351.5" x2="2572.5" y1="791.8652" y2="791.8652"/><line style="stroke: #A80036; stroke-width: 1.0;" x1="2351.5" x2="2572.5" y1="793.8652" y2="793.8652"/><rect fill="#FEFECE" filter="url(#f1)" height="60.9551" style="stroke: #A80036; stroke-width: 1.5;" width="209" x="2438.5" y="873"/><ellipse cx="2453.5" cy="889" fill="#A9DCDF" rx="11" ry="11" style="stroke: #A80036; stroke-width: 1.0;"/><path d="M2457.7803,891.1821 L2457.9214,891.1821 Q2458.3696,891.1821 2458.6021,891.4104 Q2458.8345,891.6387 2458.8345,892.0786 Q2458.8345,892.5684 2458.5896,892.7842 Q2458.3447,893 2457.7803,893 L2455.2817,893 Q2454.709,893 2454.4683,892.7883 Q2454.2275,892.5767 2454.2275,892.0786 Q2454.2275,891.5972 2454.4683,891.3896 Q2454.709,891.1821 2455.2817,891.1821 L2455.5723,891.1821 L2455.2319,890.2109 L2451.646,890.2109 L2451.2891,891.1821 L2451.5796,891.1821 Q2452.144,891.1821 2452.3889,891.3938 Q2452.6338,891.6055 2452.6338,892.0786 Q2452.6338,892.5684 2452.3889,892.7842 Q2452.144,893 2451.5796,893 L2449.438,893 Q2448.8652,893 2448.6245,892.7842 Q2448.3838,892.5684 2448.3838,892.0786 Q2448.3838,891.6387 2448.6162,891.4104 Q2448.8486,891.1821 2449.2969,891.1821 L2449.438,891.1821 L2451.6626,884.9897 L2450.9985,884.9897 Q2450.4341,884.9897 2450.1892,884.7739 Q2449.9443,884.5581 2449.9443,884.0767 Q2449.9443,883.5869 2450.1892,883.3711 Q2450.4341,883.1553 2450.9985,883.1553 L2454.1113,883.1553 Q2454.8501,883.1553 2455.1489,883.9521 L2455.1489,883.9771 Z M2453.4307,884.9897 L2452.2271,888.4927 L2454.6343,888.4927 Z "/><text fill="#000000" font-family="sans-serif" font-size="12" font-style="italic" lengthAdjust="spacingAndGlyphs" textLength="79" x="2467.5" y="893.5352">BaseProducer</text><rect fill="#FFFFFF" height="16.1328" style="stroke: #000000; stroke-width: 1.0; stroke-dasharray: 2.0,2.0;" width="96" x="2554.5" y="870"/><text fill="#000000" font-family="sans-serif" font-size="12" font-style="italic" lengthAdjust="spacingAndGlyphs" textLength="94" x="2555.5" y="882.6016">Update, Success</text><line style="stroke: #A80036; stroke-width: 1.5;" x1="2439.5" x2="2646.5" y1="905" y2="905"/><text fill="#000000" font-family="sans-serif" font-size="11" font-weight="bold" lengthAdjust="spacingAndGlyphs" textLength="142" x="2444.5" y="919.6348">abstract mutable Channel</text><line style="stroke: #A80036; stroke-width: 1.0;" x1="2439.5" x2="2646.5" y1="925.9551" y2="925.9551"/><line style="stroke: #A80036; stroke-width: 1.0;" x1="2439.5" x2="2646.5" y1="927.9551" y2="927.9551"/><rect fill="#FEFECE" filter="url(#f1)" height="73.9102" style="stroke: #A80036; stroke-width: 1.5;" width="249" x="2084.5" y="1026.5"/><ellipse cx="2129.75" cy="1042.5" fill="#ADD1B2" rx="11" ry="11" style="stroke: #A80036; stroke-width: 1.0;"/><path d="M2131.4531,1038.1792 Q2131.6191,1037.8804 2131.7935,1037.7559 Q2131.9678,1037.6313 2132.2334,1037.6313 Q2132.6401,1037.6313 2132.8103,1037.8472 Q2132.9805,1038.063 2132.9805,1038.5859 L2132.9971,1040.7441 Q2132.9971,1041.3169 2132.8103,1041.5161 Q2132.6235,1041.7153 2132.1338,1041.7153 Q2131.7852,1041.7153 2131.5984,1041.5493 Q2131.4116,1041.3833 2131.2788,1040.9351 Q2131.063,1040.1465 2130.5898,1039.802 Q2130.1167,1039.4575 2129.2783,1039.4575 Q2128,1039.4575 2127.3193,1040.3208 Q2126.6387,1041.1841 2126.6387,1042.8193 Q2126.6387,1044.4463 2127.3276,1045.3179 Q2128.0166,1046.1895 2129.2949,1046.1895 Q2130.1665,1046.1895 2131.2166,1045.6084 Q2132.2666,1045.0273 2132.5405,1045.0273 Q2132.8643,1045.0273 2133.0842,1045.3013 Q2133.3042,1045.5752 2133.3042,1045.9819 Q2133.3042,1046.7124 2132.0176,1047.3599 Q2130.731,1048.0073 2129.1206,1048.0073 Q2126.9458,1048.0073 2125.6011,1046.5713 Q2124.2563,1045.1353 2124.2563,1042.8193 Q2124.2563,1040.5864 2125.6177,1039.1089 Q2126.979,1037.6313 2129.0708,1037.6313 Q2129.6602,1037.6313 2130.2329,1037.7642 Q2130.8057,1037.897 2131.4531,1038.1792 Z "/><text fill="#000000" font-family="sans-serif" font-size="12" lengthAdjust="spacingAndGlyphs" textLength="52" x="2150.25" y="1047.0352">Producer</text><rect fill="#FFFFFF" height="16.1328" style="stroke: #000000; stroke-width: 1.0; stroke-dasharray: 2.0,2.0;" width="96" x="2240.5" y="1023.5"/><text fill="#000000" font-family="sans-serif" font-size="12" font-style="italic" lengthAdjust="spacingAndGlyphs" textLength="94" x="2241.5" y="1036.1016">Update, Success</text><line style="stroke: #A80036; stroke-width: 1.5;" x1="2085.5" x2="2332.5" y1="1058.5" y2="1058.5"/><text fill="#000000" font-family="sans-serif" font-size="11" font-weight="bold" lengthAdjust="spacingAndGlyphs" textLength="237" x="2090.5" y="1073.1348">mutable Channel you can update manually</text><line style="stroke: #A80036; stroke-width: 1.0;" x1="2085.5" x2="2332.5" y1="1079.4551" y2="1079.4551"/><line style="stroke: #A80036; stroke-width: 1.0;" x1="2085.5" x2="2332.5" y1="1081.4551" y2="1081.4551"/><ellipse cx="2095.5" cy="1091.4326" fill="#84BE84" rx="3" ry="3" style="stroke: #038048; stroke-width: 1.0;"/><text fill="#000000" font-family="sans-serif" font-size="11" lengthAdjust="spacingAndGlyphs" textLength="25" x="2104.5" y="1094.0898">init()</text><rect fill="#FEFECE" filter="url(#f1)" height="86.8652" style="stroke: #A80036; stroke-width: 1.5;" width="221" x="2368.5" y="1020"/><ellipse cx="2386.65" cy="1036" fill="#ADD1B2" rx="11" ry="11" style="stroke: #A80036; stroke-width: 1.0;"/><path d="M2388.3531,1031.6792 Q2388.5191,1031.3804 2388.6935,1031.2559 Q2388.8678,1031.1313 2389.1334,1031.1313 Q2389.5401,1031.1313 2389.7103,1031.3472 Q2389.8805,1031.563 2389.8805,1032.0859 L2389.8971,1034.2441 Q2389.8971,1034.8169 2389.7103,1035.0161 Q2389.5235,1035.2153 2389.0338,1035.2153 Q2388.6852,1035.2153 2388.4984,1035.0493 Q2388.3116,1034.8833 2388.1788,1034.4351 Q2387.963,1033.6465 2387.4898,1033.302 Q2387.0167,1032.9575 2386.1783,1032.9575 Q2384.9,1032.9575 2384.2193,1033.8208 Q2383.5387,1034.6841 2383.5387,1036.3193 Q2383.5387,1037.9463 2384.2276,1038.8179 Q2384.9166,1039.6895 2386.1949,1039.6895 Q2387.0665,1039.6895 2388.1166,1039.1084 Q2389.1666,1038.5273 2389.4405,1038.5273 Q2389.7643,1038.5273 2389.9842,1038.8013 Q2390.2042,1039.0752 2390.2042,1039.4819 Q2390.2042,1040.2124 2388.9176,1040.8599 Q2387.631,1041.5073 2386.0206,1041.5073 Q2383.8458,1041.5073 2382.5011,1040.0713 Q2381.1563,1038.6353 2381.1563,1036.3193 Q2381.1563,1034.0864 2382.5177,1032.6089 Q2383.879,1031.1313 2385.9708,1031.1313 Q2386.5602,1031.1313 2387.1329,1031.2642 Q2387.7057,1031.397 2388.3531,1031.6792 Z "/><text fill="#000000" font-family="sans-serif" font-size="12" lengthAdjust="spacingAndGlyphs" textLength="84" x="2401.35" y="1040.5352">ProducerProxy</text><rect fill="#FFFFFF" height="16.1328" style="stroke: #000000; stroke-width: 1.0; stroke-dasharray: 2.0,2.0;" width="96" x="2496.5" y="1017"/><text fill="#000000" font-family="sans-serif" font-size="12" font-style="italic" lengthAdjust="spacingAndGlyphs" textLength="94" x="2497.5" y="1029.6016">Update, Success</text><line style="stroke: #A80036; stroke-width: 1.5;" x1="2369.5" x2="2588.5" y1="1052" y2="1052"/><text fill="#000000" font-family="sans-serif" font-size="11" font-weight="bold" lengthAdjust="spacingAndGlyphs" textLength="170" x="2374.5" y="1066.6348">mutable Channel that acts like</text><text fill="#000000" font-family="sans-serif" font-size="11" font-weight="bold" lengthAdjust="spacingAndGlyphs" textLength="187" x="2374.5" y="1079.5898">a proxy to some read-write value</text><line style="stroke: #A80036; stroke-width: 1.0;" x1="2369.5" x2="2588.5" y1="1085.9102" y2="1085.9102"/><line style="stroke: #A80036; stroke-width: 1.0;" x1="2369.5" x2="2588.5" y1="1087.9102" y2="1087.9102"/><ellipse cx="2379.5" cy="1097.8877" fill="#84BE84" rx="3" ry="3" style="stroke: #038048; stroke-width: 1.0;"/><text fill="#000000" font-family="sans-serif" font-size="11" lengthAdjust="spacingAndGlyphs" textLength="195" x="2388.5" y="1100.5449">init(updateExecutor:updateHandler:)</text><rect fill="#FEFECE" filter="url(#f1)" height="112.7754" style="stroke: #A80036; stroke-width: 1.5;" width="209" x="2624.5" y="1007"/><ellipse cx="2658.85" cy="1023" fill="#ADD1B2" rx="11" ry="11" style="stroke: #A80036; stroke-width: 1.0;"/><path d="M2660.5531,1018.6792 Q2660.7191,1018.3804 2660.8935,1018.2559 Q2661.0678,1018.1313 2661.3334,1018.1313 Q2661.7401,1018.1313 2661.9103,1018.3472 Q2662.0805,1018.563 2662.0805,1019.0859 L2662.0971,1021.2441 Q2662.0971,1021.8169 2661.9103,1022.0161 Q2661.7235,1022.2153 2661.2338,1022.2153 Q2660.8852,1022.2153 2660.6984,1022.0493 Q2660.5116,1021.8833 2660.3788,1021.4351 Q2660.163,1020.6465 2659.6898,1020.302 Q2659.2167,1019.9575 2658.3783,1019.9575 Q2657.1,1019.9575 2656.4193,1020.8208 Q2655.7387,1021.6841 2655.7387,1023.3193 Q2655.7387,1024.9463 2656.4276,1025.8179 Q2657.1166,1026.6895 2658.3949,1026.6895 Q2659.2665,1026.6895 2660.3166,1026.1084 Q2661.3666,1025.5273 2661.6405,1025.5273 Q2661.9643,1025.5273 2662.1842,1025.8013 Q2662.4042,1026.0752 2662.4042,1026.4819 Q2662.4042,1027.2124 2661.1176,1027.8599 Q2659.831,1028.5073 2658.2206,1028.5073 Q2656.0458,1028.5073 2654.7011,1027.0713 Q2653.3563,1025.6353 2653.3563,1023.3193 Q2653.3563,1021.0864 2654.7177,1019.6089 Q2656.079,1018.1313 2658.1708,1018.1313 Q2658.7602,1018.1313 2659.3329,1018.2642 Q2659.9057,1018.397 2660.5531,1018.6792 Z "/><text fill="#000000" font-family="sans-serif" font-size="12" lengthAdjust="spacingAndGlyphs" textLength="98" x="2677.15" y="1027.5352">DynamicProperty</text><rect fill="#FFFFFF" height="16.1328" style="stroke: #000000; stroke-width: 1.0; stroke-dasharray: 2.0,2.0;" width="34" x="2802.5" y="1004"/><text fill="#000000" font-family="sans-serif" font-size="12" font-style="italic" lengthAdjust="spacingAndGlyphs" textLength="32" x="2803.5" y="1016.6016">Value</text><line style="stroke: #A80036; stroke-width: 1.5;" x1="2625.5" x2="2832.5" y1="1039" y2="1039"/><text fill="#000000" font-family="sans-serif" font-size="11" font-weight="bold" lengthAdjust="spacingAndGlyphs" textLength="170" x="2630.5" y="1053.6348">mutable Channel that acts like</text><text fill="#000000" font-family="sans-serif" font-size="11" font-weight="bold" lengthAdjust="spacingAndGlyphs" textLength="108" x="2630.5" y="1066.5898">a dynamic property</text><text fill="#000000" font-family="sans-serif" font-size="11" lengthAdjust="spacingAndGlyphs" textLength="83" x="2630.5" y="1079.5449">Update in Value</text><text fill="#000000" font-family="sans-serif" font-size="11" lengthAdjust="spacingAndGlyphs" textLength="82" x="2630.5" y="1092.5">Success is Void</text><line style="stroke: #A80036; stroke-width: 1.0;" x1="2625.5" x2="2832.5" y1="1098.8203" y2="1098.8203"/><line style="stroke: #A80036; stroke-width: 1.0;" x1="2625.5" x2="2832.5" y1="1100.8203" y2="1100.8203"/><ellipse cx="2635.5" cy="1110.7979" fill="#84BE84" rx="3" ry="3" style="stroke: #038048; stroke-width: 1.0;"/><text fill="#000000" font-family="sans-serif" font-size="11" lengthAdjust="spacingAndGlyphs" textLength="183" x="2644.5" y="1113.4551">init(_ initialValue:updateExecutor:)</text><rect fill="#FEFECE" filter="url(#f1)" height="86.8652" style="stroke: #A80036; stroke-width: 1.5;" width="225" x="2608.5" y="713"/><ellipse cx="2656.25" cy="729" fill="#ADD1B2" rx="11" ry="11" style="stroke: #A80036; stroke-width: 1.0;"/><path d="M2657.9531,724.6792 Q2658.1191,724.3804 2658.2935,724.2559 Q2658.4678,724.1313 2658.7334,724.1313 Q2659.1401,724.1313 2659.3103,724.3472 Q2659.4805,724.563 2659.4805,725.0859 L2659.4971,727.2441 Q2659.4971,727.8169 2659.3103,728.0161 Q2659.1235,728.2153 2658.6338,728.2153 Q2658.2852,728.2153 2658.0984,728.0493 Q2657.9116,727.8833 2657.7788,727.4351 Q2657.563,726.6465 2657.0898,726.302 Q2656.6167,725.9575 2655.7783,725.9575 Q2654.5,725.9575 2653.8193,726.8208 Q2653.1387,727.6841 2653.1387,729.3193 Q2653.1387,730.9463 2653.8276,731.8179 Q2654.5166,732.6895 2655.7949,732.6895 Q2656.6665,732.6895 2657.7166,732.1084 Q2658.7666,731.5273 2659.0405,731.5273 Q2659.3643,731.5273 2659.5842,731.8013 Q2659.8042,732.0752 2659.8042,732.4819 Q2659.8042,733.2124 2658.5176,733.8599 Q2657.231,734.5073 2655.6206,734.5073 Q2653.4458,734.5073 2652.1011,733.0713 Q2650.7563,731.6353 2650.7563,729.3193 Q2650.7563,727.0864 2652.1177,725.6089 Q2653.479,724.1313 2655.5708,724.1313 Q2656.1602,724.1313 2656.7329,724.2642 Q2657.3057,724.397 2657.9531,724.6792 Z "/><text fill="#000000" font-family="sans-serif" font-size="12" lengthAdjust="spacingAndGlyphs" textLength="23" x="2676.75" y="733.5352">Sink</text><rect fill="#FFFFFF" height="16.1328" style="stroke: #000000; stroke-width: 1.0; stroke-dasharray: 2.0,2.0;" width="96" x="2740.5" y="710"/><text fill="#000000" font-family="sans-serif" font-size="12" font-style="italic" lengthAdjust="spacingAndGlyphs" textLength="94" x="2741.5" y="722.6016">Update, Success</text><line style="stroke: #A80036; stroke-width: 1.5;" x1="2609.5" x2="2832.5" y1="745" y2="745"/><text fill="#000000" font-family="sans-serif" font-size="11" font-weight="bold" lengthAdjust="spacingAndGlyphs" textLength="213" x="2614.5" y="759.6348">updatable object that acts like a setter</text><text fill="#000000" font-family="sans-serif" font-size="11" font-weight="bold" lengthAdjust="spacingAndGlyphs" textLength="202" x="2614.5" y="772.5898">and looks like an EventsDestination</text><line style="stroke: #A80036; stroke-width: 1.0;" x1="2609.5" x2="2832.5" y1="778.9102" y2="778.9102"/><line style="stroke: #A80036; stroke-width: 1.0;" x1="2609.5" x2="2832.5" y1="780.9102" y2="780.9102"/><ellipse cx="2619.5" cy="790.8877" fill="#84BE84" rx="3" ry="3" style="stroke: #038048; stroke-width: 1.0;"/><text fill="#000000" font-family="sans-serif" font-size="11" lengthAdjust="spacingAndGlyphs" textLength="195" x="2628.5" y="793.5449">init(updateExecutor:updateHandler:)</text><rect fill="#FEFECE" filter="url(#f1)" height="60.9551" style="stroke: #A80036; stroke-width: 1.5;" width="260" x="1805" y="726"/><ellipse cx="1888.25" cy="742" fill="#ADD1B2" rx="11" ry="11" style="stroke: #A80036; stroke-width: 1.0;"/><path d="M1889.9531,737.6792 Q1890.1191,737.3804 1890.2935,737.2559 Q1890.4678,737.1313 1890.7334,737.1313 Q1891.1401,737.1313 1891.3103,737.3472 Q1891.4805,737.563 1891.4805,738.0859 L1891.4971,740.2441 Q1891.4971,740.8169 1891.3103,741.0161 Q1891.1235,741.2153 1890.6338,741.2153 Q1890.2852,741.2153 1890.0984,741.0493 Q1889.9116,740.8833 1889.7788,740.4351 Q1889.563,739.6465 1889.0898,739.302 Q1888.6167,738.9575 1887.7783,738.9575 Q1886.5,738.9575 1885.8193,739.8208 Q1885.1387,740.6841 1885.1387,742.3193 Q1885.1387,743.9463 1885.8276,744.8179 Q1886.5166,745.6895 1887.7949,745.6895 Q1888.6665,745.6895 1889.7166,745.1084 Q1890.7666,744.5273 1891.0405,744.5273 Q1891.3643,744.5273 1891.5842,744.8013 Q1891.8042,745.0752 1891.8042,745.4819 Q1891.8042,746.2124 1890.5176,746.8599 Q1889.231,747.5073 1887.6206,747.5073 Q1885.4458,747.5073 1884.1011,746.0713 Q1882.7563,744.6353 1882.7563,742.3193 Q1882.7563,740.0864 1884.1177,738.6089 Q1885.479,737.1313 1887.5708,737.1313 Q1888.1602,737.1313 1888.7329,737.2642 Q1889.3057,737.397 1889.9531,737.6792 Z "/><text fill="#000000" font-family="sans-serif" font-size="12" lengthAdjust="spacingAndGlyphs" textLength="85" x="1908.75" y="746.5352">CachableValue</text><line style="stroke: #A80036; stroke-width: 1.5;" x1="1806" x2="2064" y1="758" y2="758"/><text fill="#000000" font-family="sans-serif" font-size="11" font-weight="bold" lengthAdjust="spacingAndGlyphs" textLength="248" x="1811" y="772.6348">a simple cache that can contain single value</text><line style="stroke: #A80036; stroke-width: 1.0;" x1="1806" x2="2064" y1="778.9551" y2="778.9551"/><line style="stroke: #A80036; stroke-width: 1.0;" x1="1806" x2="2064" y1="780.9551" y2="780.9551"/><rect fill="#FEFECE" filter="url(#f1)" height="73.9102" style="stroke: #A80036; stroke-width: 1.5;" width="234" x="1536" y="719.5"/><ellipse cx="1631.25" cy="735.5" fill="#ADD1B2" rx="11" ry="11" style="stroke: #A80036; stroke-width: 1.0;"/><path d="M1632.9531,731.1792 Q1633.1191,730.8804 1633.2935,730.7559 Q1633.4678,730.6313 1633.7334,730.6313 Q1634.1401,730.6313 1634.3103,730.8472 Q1634.4805,731.063 1634.4805,731.5859 L1634.4971,733.7441 Q1634.4971,734.3169 1634.3103,734.5161 Q1634.1235,734.7153 1633.6338,734.7153 Q1633.2852,734.7153 1633.0984,734.5493 Q1632.9116,734.3833 1632.7788,733.9351 Q1632.563,733.1465 1632.0898,732.802 Q1631.6167,732.4575 1630.7783,732.4575 Q1629.5,732.4575 1628.8193,733.3208 Q1628.1387,734.1841 1628.1387,735.8193 Q1628.1387,737.4463 1628.8276,738.3179 Q1629.5166,739.1895 1630.7949,739.1895 Q1631.6665,739.1895 1632.7166,738.6084 Q1633.7666,738.0273 1634.0405,738.0273 Q1634.3643,738.0273 1634.5842,738.3013 Q1634.8042,738.5752 1634.8042,738.9819 Q1634.8042,739.7124 1633.5176,740.3599 Q1632.231,741.0073 1630.6206,741.0073 Q1628.4458,741.0073 1627.1011,739.5713 Q1625.7563,738.1353 1625.7563,735.8193 Q1625.7563,733.5864 1627.1177,732.1089 Q1628.479,730.6313 1630.5708,730.6313 Q1631.1602,730.6313 1631.7329,730.7642 Q1632.3057,730.897 1632.9531,731.1792 Z "/><text fill="#000000" font-family="sans-serif" font-size="12" lengthAdjust="spacingAndGlyphs" textLength="35" x="1651.75" y="740.0352">Cache</text><line style="stroke: #A80036; stroke-width: 1.5;" x1="1537" x2="1769" y1="751.5" y2="751.5"/><text fill="#000000" font-family="sans-serif" font-size="11" font-weight="bold" lengthAdjust="spacingAndGlyphs" textLength="176" x="1542" y="766.1348">a simple cache that can contain</text><text fill="#000000" font-family="sans-serif" font-size="11" font-weight="bold" lengthAdjust="spacingAndGlyphs" textLength="222" x="1542" y="779.0898">multiple values by unique hashable key</text><line style="stroke: #A80036; stroke-width: 1.0;" x1="1537" x2="1769" y1="785.4102" y2="785.4102"/><line style="stroke: #A80036; stroke-width: 1.0;" x1="1537" x2="1769" y1="787.4102" y2="787.4102"/><rect fill="#FEFECE" filter="url(#f1)" height="172.5957" style="stroke: #A80036; stroke-width: 1.5;" width="196" x="1509" y="465"/><ellipse cx="1577.75" cy="481" fill="#ADD1B2" rx="11" ry="11" style="stroke: #A80036; stroke-width: 1.0;"/><path d="M1579.4531,476.6792 Q1579.6191,476.3804 1579.7935,476.2559 Q1579.9678,476.1313 1580.2334,476.1313 Q1580.6401,476.1313 1580.8103,476.3472 Q1580.9805,476.563 1580.9805,477.0859 L1580.9971,479.2441 Q1580.9971,479.8169 1580.8103,480.0161 Q1580.6235,480.2153 1580.1338,480.2153 Q1579.7852,480.2153 1579.5984,480.0493 Q1579.4116,479.8833 1579.2788,479.4351 Q1579.063,478.6465 1578.5898,478.302 Q1578.1167,477.9575 1577.2783,477.9575 Q1576,477.9575 1575.3193,478.8208 Q1574.6387,479.6841 1574.6387,481.3193 Q1574.6387,482.9463 1575.3276,483.8179 Q1576.0166,484.6895 1577.2949,484.6895 Q1578.1665,484.6895 1579.2166,484.1084 Q1580.2666,483.5273 1580.5405,483.5273 Q1580.8643,483.5273 1581.0842,483.8013 Q1581.3042,484.0752 1581.3042,484.4819 Q1581.3042,485.2124 1580.0176,485.8599 Q1578.731,486.5073 1577.1206,486.5073 Q1574.9458,486.5073 1573.6011,485.0713 Q1572.2563,483.6353 1572.2563,481.3193 Q1572.2563,479.0864 1573.6177,477.6089 Q1574.979,476.1313 1577.0708,476.1313 Q1577.6602,476.1313 1578.2329,476.2642 Q1578.8057,476.397 1579.4531,476.6792 Z "/><text fill="#000000" font-family="sans-serif" font-size="12" lengthAdjust="spacingAndGlyphs" textLength="50" x="1598.25" y="485.5352">Executor</text><line style="stroke: #A80036; stroke-width: 1.5;" x1="1510" x2="1704" y1="497" y2="497"/><text fill="#000000" font-family="sans-serif" font-size="11" font-weight="bold" lengthAdjust="spacingAndGlyphs" textLength="184" x="1515" y="511.6348">encapsulates asynchrounous way</text><text fill="#000000" font-family="sans-serif" font-size="11" font-weight="bold" lengthAdjust="spacingAndGlyphs" textLength="152" x="1515" y="524.5898">of execution escaped block</text><line style="stroke: #A80036; stroke-width: 1.0;" x1="1510" x2="1704" y1="530.9102" y2="530.9102"/><line style="stroke: #A80036; stroke-width: 1.0;" x1="1510" x2="1704" y1="532.9102" y2="532.9102"/><text fill="#000000" font-family="sans-serif" font-size="11" lengthAdjust="spacingAndGlyphs" textLength="53" x="1515" y="545.5449">case main</text><text fill="#000000" font-family="sans-serif" font-size="11" lengthAdjust="spacingAndGlyphs" textLength="69" x="1515" y="558.5">case primary</text><text fill="#000000" font-family="sans-serif" font-size="11" lengthAdjust="spacingAndGlyphs" textLength="64" x="1515" y="571.4551">case default</text><text fill="#000000" font-family="sans-serif" font-size="11" lengthAdjust="spacingAndGlyphs" textLength="77" x="1515" y="584.4102">func queue(_:)</text><text fill="#000000" font-family="sans-serif" font-size="11" lengthAdjust="spacingAndGlyphs" textLength="131" x="1515" y="597.3652">func operationQueue(_:)</text><line style="stroke: #A80036; stroke-width: 1.0;" x1="1510" x2="1704" y1="603.6855" y2="603.6855"/><text fill="#000000" font-family="sans-serif" font-size="11" lengthAdjust="spacingAndGlyphs" textLength="121" x="1515" y="618.3203">func execute(from:, _:)</text><text fill="#000000" font-family="sans-serif" font-size="11" lengthAdjust="spacingAndGlyphs" textLength="120" x="1515" y="631.2754">func execute(after:, _:)</text><rect fill="#FEFECE" filter="url(#f1)" height="60.9551" style="stroke: #A80036; stroke-width: 1.5;" width="203" x="1770.5" y="521"/><ellipse cx="1833.25" cy="537" fill="#ADD1B2" rx="11" ry="11" style="stroke: #A80036; stroke-width: 1.0;"/><path d="M1834.9531,532.6792 Q1835.1191,532.3804 1835.2935,532.2559 Q1835.4678,532.1313 1835.7334,532.1313 Q1836.1401,532.1313 1836.3103,532.3472 Q1836.4805,532.563 1836.4805,533.0859 L1836.4971,535.2441 Q1836.4971,535.8169 1836.3103,536.0161 Q1836.1235,536.2153 1835.6338,536.2153 Q1835.2852,536.2153 1835.0984,536.0493 Q1834.9116,535.8833 1834.7788,535.4351 Q1834.563,534.6465 1834.0898,534.302 Q1833.6167,533.9575 1832.7783,533.9575 Q1831.5,533.9575 1830.8193,534.8208 Q1830.1387,535.6841 1830.1387,537.3193 Q1830.1387,538.9463 1830.8276,539.8179 Q1831.5166,540.6895 1832.7949,540.6895 Q1833.6665,540.6895 1834.7166,540.1084 Q1835.7666,539.5273 1836.0405,539.5273 Q1836.3643,539.5273 1836.5842,539.8013 Q1836.8042,540.0752 1836.8042,540.4819 Q1836.8042,541.2124 1835.5176,541.8599 Q1834.231,542.5073 1832.6206,542.5073 Q1830.4458,542.5073 1829.1011,541.0713 Q1827.7563,539.6353 1827.7563,537.3193 Q1827.7563,535.0864 1829.1177,533.6089 Q1830.479,532.1313 1832.5708,532.1313 Q1833.1602,532.1313 1833.7329,532.2642 Q1834.3057,532.397 1834.9531,532.6792 Z "/><text fill="#000000" font-family="sans-serif" font-size="12" lengthAdjust="spacingAndGlyphs" textLength="69" x="1853.75" y="541.5352">ReleasePool</text><line style="stroke: #A80036; stroke-width: 1.5;" x1="1771.5" x2="1972.5" y1="553" y2="553"/><text fill="#000000" font-family="sans-serif" font-size="11" font-weight="bold" lengthAdjust="spacingAndGlyphs" textLength="191" x="1776.5" y="567.6348">retains another objects until drain</text><line style="stroke: #A80036; stroke-width: 1.0;" x1="1771.5" x2="1972.5" y1="573.9551" y2="573.9551"/><line style="stroke: #A80036; stroke-width: 1.0;" x1="1771.5" x2="1972.5" y1="575.9551" y2="575.9551"/><rect fill="#FEFECE" filter="url(#f1)" height="86.8652" style="stroke: #A80036; stroke-width: 1.5;" width="304" x="1421" y="95.5"/><ellipse cx="1544.75" cy="111.5" fill="#B4A7E5" rx="11" ry="11" style="stroke: #A80036; stroke-width: 1.0;"/><path d="M1545.4175,108.4897 L1545.4175,114.6821 L1546.812,114.6821 Q1547.3765,114.6821 1547.6213,114.8938 Q1547.8662,115.1055 1547.8662,115.5786 Q1547.8662,116.0601 1547.6172,116.28 Q1547.3682,116.5 1546.812,116.5 L1541.8813,116.5 Q1541.3169,116.5 1541.072,116.2842 Q1540.8271,116.0684 1540.8271,115.5786 Q1540.8271,115.0972 1541.0679,114.8896 Q1541.3086,114.6821 1541.8813,114.6821 L1543.2759,114.6821 L1543.2759,108.4897 L1541.8813,108.4897 Q1541.3169,108.4897 1541.072,108.2739 Q1540.8271,108.0581 1540.8271,107.5767 Q1540.8271,107.0869 1541.0679,106.8794 Q1541.3086,106.6719 1541.8813,106.6719 L1546.812,106.6719 Q1547.4014,106.6719 1547.6338,106.8794 Q1547.8662,107.0869 1547.8662,107.5767 Q1547.8662,108.0581 1547.6255,108.2739 Q1547.3848,108.4897 1546.812,108.4897 Z "/><text fill="#000000" font-family="sans-serif" font-size="12" font-style="italic" lengthAdjust="spacingAndGlyphs" textLength="48" x="1565.25" y="116.0352">Retainer</text><line style="stroke: #A80036; stroke-width: 1.5;" x1="1422" x2="1724" y1="127.5" y2="127.5"/><text fill="#000000" font-family="sans-serif" font-size="11" font-weight="bold" lengthAdjust="spacingAndGlyphs" textLength="292" x="1427" y="142.1348">Extends lifetime of attached objects until self deinit</text><line style="stroke: #A80036; stroke-width: 1.0;" x1="1422" x2="1724" y1="148.4551" y2="148.4551"/><line style="stroke: #A80036; stroke-width: 1.0;" x1="1422" x2="1724" y1="150.4551" y2="150.4551"/><text fill="#000000" font-family="sans-serif" font-size="11" lengthAdjust="spacingAndGlyphs" textLength="129" x="1427" y="163.0898">func releaseOnDeinit(_:)</text><text fill="#000000" font-family="sans-serif" font-size="11" lengthAdjust="spacingAndGlyphs" textLength="106" x="1427" y="176.0449">func notifyDeinit(_:)</text><rect fill="#FEFECE" filter="url(#f1)" height="73.9102" style="stroke: #A80036; stroke-width: 1.5;" width="256" x="1744" y="305"/><ellipse cx="1814.75" cy="321" fill="#B4A7E5" rx="11" ry="11" style="stroke: #A80036; stroke-width: 1.0;"/><path d="M1815.4175,317.9897 L1815.4175,324.1821 L1816.812,324.1821 Q1817.3765,324.1821 1817.6213,324.3938 Q1817.8662,324.6055 1817.8662,325.0786 Q1817.8662,325.5601 1817.6172,325.78 Q1817.3682,326 1816.812,326 L1811.8813,326 Q1811.3169,326 1811.072,325.7842 Q1810.8271,325.5684 1810.8271,325.0786 Q1810.8271,324.5972 1811.0679,324.3896 Q1811.3086,324.1821 1811.8813,324.1821 L1813.2759,324.1821 L1813.2759,317.9897 L1811.8813,317.9897 Q1811.3169,317.9897 1811.072,317.7739 Q1810.8271,317.5581 1810.8271,317.0767 Q1810.8271,316.5869 1811.0679,316.3794 Q1811.3086,316.1719 1811.8813,316.1719 L1816.812,316.1719 Q1817.4014,316.1719 1817.6338,316.3794 Q1817.8662,316.5869 1817.8662,317.0767 Q1817.8662,317.5581 1817.6255,317.7739 Q1817.3848,317.9897 1816.812,317.9897 Z "/><text fill="#000000" font-family="sans-serif" font-size="12" font-style="italic" lengthAdjust="spacingAndGlyphs" textLength="106" x="1835.25" y="325.5352">ReleasePoolOwner</text><line style="stroke: #A80036; stroke-width: 1.5;" x1="1745" x2="1999" y1="337" y2="337"/><text fill="#000000" font-family="sans-serif" font-size="11" font-weight="bold" lengthAdjust="spacingAndGlyphs" textLength="244" x="1750" y="351.6348">Protocol that implements Retainer methods</text><text fill="#000000" font-family="sans-serif" font-size="11" font-weight="bold" lengthAdjust="spacingAndGlyphs" textLength="156" x="1750" y="364.5898">using provided ReleasePool</text><line style="stroke: #A80036; stroke-width: 1.0;" x1="1745" x2="1999" y1="370.9102" y2="370.9102"/><line style="stroke: #A80036; stroke-width: 1.0;" x1="1745" x2="1999" y1="372.9102" y2="372.9102"/><rect fill="#FEFECE" filter="url(#f1)" height="73.9102" style="stroke: #A80036; stroke-width: 1.5;" width="256" x="1146" y="305"/><ellipse cx="1208.25" cy="321" fill="#B4A7E5" rx="11" ry="11" style="stroke: #A80036; stroke-width: 1.0;"/><path d="M1208.9175,317.9897 L1208.9175,324.1821 L1210.312,324.1821 Q1210.8765,324.1821 1211.1213,324.3938 Q1211.3662,324.6055 1211.3662,325.0786 Q1211.3662,325.5601 1211.1172,325.78 Q1210.8682,326 1210.312,326 L1205.3813,326 Q1204.8169,326 1204.572,325.7842 Q1204.3271,325.5684 1204.3271,325.0786 Q1204.3271,324.5972 1204.5679,324.3896 Q1204.8086,324.1821 1205.3813,324.1821 L1206.7759,324.1821 L1206.7759,317.9897 L1205.3813,317.9897 Q1204.8169,317.9897 1204.572,317.7739 Q1204.3271,317.5581 1204.3271,317.0767 Q1204.3271,316.5869 1204.5679,316.3794 Q1204.8086,316.1719 1205.3813,316.1719 L1210.312,316.1719 Q1210.9014,316.1719 1211.1338,316.3794 Q1211.3662,316.5869 1211.3662,317.0767 Q1211.3662,317.5581 1211.1255,317.7739 Q1210.8848,317.9897 1210.312,317.9897 Z "/><text fill="#000000" font-family="sans-serif" font-size="12" font-style="italic" lengthAdjust="spacingAndGlyphs" textLength="123" x="1228.75" y="325.5352">ObjCInjectedRetainer</text><line style="stroke: #A80036; stroke-width: 1.5;" x1="1147" x2="1401" y1="337" y2="337"/><text fill="#000000" font-family="sans-serif" font-size="11" font-weight="bold" lengthAdjust="spacingAndGlyphs" textLength="244" x="1152" y="351.6348">Protocol that implements Retainer methods</text><text fill="#000000" font-family="sans-serif" font-size="11" font-weight="bold" lengthAdjust="spacingAndGlyphs" textLength="151" x="1152" y="364.5898">using Objective-C runtime</text><line style="stroke: #A80036; stroke-width: 1.5;" x1="1147" x2="1401" y1="370.9102" y2="370.9102"/><rect fill="#FEFECE" filter="url(#f1)" height="60.9551" style="stroke: #A80036; stroke-width: 1.5;" width="272" x="1437" y="311.5"/><ellipse cx="1519.25" cy="327.5" fill="#B4A7E5" rx="11" ry="11" style="stroke: #A80036; stroke-width: 1.0;"/><path d="M1519.9175,324.4897 L1519.9175,330.6821 L1521.312,330.6821 Q1521.8765,330.6821 1522.1213,330.8938 Q1522.3662,331.1055 1522.3662,331.5786 Q1522.3662,332.0601 1522.1172,332.28 Q1521.8682,332.5 1521.312,332.5 L1516.3813,332.5 Q1515.8169,332.5 1515.572,332.2842 Q1515.3271,332.0684 1515.3271,331.5786 Q1515.3271,331.0972 1515.5679,330.8896 Q1515.8086,330.6821 1516.3813,330.6821 L1517.7759,330.6821 L1517.7759,324.4897 L1516.3813,324.4897 Q1515.8169,324.4897 1515.572,324.2739 Q1515.3271,324.0581 1515.3271,323.5767 Q1515.3271,323.0869 1515.5679,322.8794 Q1515.8086,322.6719 1516.3813,322.6719 L1521.312,322.6719 Q1521.9014,322.6719 1522.1338,322.8794 Q1522.3662,323.0869 1522.3662,323.5767 Q1522.3662,324.0581 1522.1255,324.2739 Q1521.8848,324.4897 1521.312,324.4897 Z "/><text fill="#000000" font-family="sans-serif" font-size="12" font-style="italic" lengthAdjust="spacingAndGlyphs" textLength="99" x="1539.75" y="332.0352">ExecutionContext</text><line style="stroke: #A80036; stroke-width: 1.5;" x1="1438" x2="1708" y1="343.5" y2="343.5"/><text fill="#000000" font-family="sans-serif" font-size="11" font-weight="bold" lengthAdjust="spacingAndGlyphs" textLength="260" x="1443" y="358.1348">Protocol for concurrency-aware active objects</text><line style="stroke: #A80036; stroke-width: 1.0;" x1="1438" x2="1708" y1="364.4551" y2="364.4551"/><line style="stroke: #A80036; stroke-width: 1.0;" x1="1438" x2="1708" y1="366.4551" y2="366.4551"/><rect fill="#FEFECE" filter="url(#f1)" height="73.9102" style="stroke: #A80036; stroke-width: 1.5;" width="328" x="1146" y="514.5"/><ellipse cx="1213.25" cy="530.5" fill="#B4A7E5" rx="11" ry="11" style="stroke: #A80036; stroke-width: 1.0;"/><path d="M1213.9175,527.4897 L1213.9175,533.6821 L1215.312,533.6821 Q1215.8765,533.6821 1216.1213,533.8938 Q1216.3662,534.1055 1216.3662,534.5786 Q1216.3662,535.0601 1216.1172,535.28 Q1215.8682,535.5 1215.312,535.5 L1210.3813,535.5 Q1209.8169,535.5 1209.572,535.2842 Q1209.3271,535.0684 1209.3271,534.5786 Q1209.3271,534.0972 1209.5679,533.8896 Q1209.8086,533.6821 1210.3813,533.6821 L1211.7759,533.6821 L1211.7759,527.4897 L1210.3813,527.4897 Q1209.8169,527.4897 1209.572,527.2739 Q1209.3271,527.0581 1209.3271,526.5767 Q1209.3271,526.0869 1209.5679,525.8794 Q1209.8086,525.6719 1210.3813,525.6719 L1215.312,525.6719 Q1215.9014,525.6719 1216.1338,525.8794 Q1216.3662,526.0869 1216.3662,526.5767 Q1216.3662,527.0581 1216.1255,527.2739 Q1215.8848,527.4897 1215.312,527.4897 Z "/><text fill="#000000" font-family="sans-serif" font-size="12" font-style="italic" lengthAdjust="spacingAndGlyphs" textLength="185" x="1233.75" y="535.0352">ObjCUIInjectedExecutionContext</text><line style="stroke: #A80036; stroke-width: 1.5;" x1="1147" x2="1473" y1="546.5" y2="546.5"/><text fill="#000000" font-family="sans-serif" font-size="11" font-weight="bold" lengthAdjust="spacingAndGlyphs" textLength="316" x="1152" y="561.1348">Protocol that implements Retainer and ExecutionContext</text><text fill="#000000" font-family="sans-serif" font-size="11" font-weight="bold" lengthAdjust="spacingAndGlyphs" textLength="171" x="1152" y="574.0898">methods for UI related classes</text><line style="stroke: #A80036; stroke-width: 1.5;" x1="1147" x2="1473" y1="580.4102" y2="580.4102"/><rect fill="#FEFECE" filter="url(#f1)" height="159.6406" style="stroke: #A80036; stroke-width: 1.5;" width="233" x="38.5" y="59"/><ellipse cx="106.75" cy="75" fill="#ADD1B2" rx="11" ry="11" style="stroke: #A80036; stroke-width: 1.0;"/><path d="M108.4531,70.6792 Q108.6191,70.3804 108.7935,70.2559 Q108.9678,70.1313 109.2334,70.1313 Q109.6401,70.1313 109.8103,70.3472 Q109.9805,70.563 109.9805,71.0859 L109.9971,73.2441 Q109.9971,73.8169 109.8103,74.0161 Q109.6235,74.2153 109.1338,74.2153 Q108.7852,74.2153 108.5984,74.0493 Q108.4116,73.8833 108.2788,73.4351 Q108.063,72.6465 107.5898,72.302 Q107.1167,71.9575 106.2783,71.9575 Q105,71.9575 104.3193,72.8208 Q103.6387,73.6841 103.6387,75.3193 Q103.6387,76.9463 104.3276,77.8179 Q105.0166,78.6895 106.2949,78.6895 Q107.1665,78.6895 108.2166,78.1084 Q109.2666,77.5273 109.5405,77.5273 Q109.8643,77.5273 110.0842,77.8013 Q110.3042,78.0752 110.3042,78.4819 Q110.3042,79.2124 109.0176,79.8599 Q107.731,80.5073 106.1206,80.5073 Q103.9458,80.5073 102.6011,79.0713 Q101.2563,77.6353 101.2563,75.3193 Q101.2563,73.0864 102.6177,71.6089 Q103.979,70.1313 106.0708,70.1313 Q106.6602,70.1313 107.2329,70.2642 Q107.8057,70.397 108.4531,70.6792 Z "/><text fill="#000000" font-family="sans-serif" font-size="12" lengthAdjust="spacingAndGlyphs" textLength="40" x="127.25" y="79.5352">Fallible</text><rect fill="#FFFFFF" height="16.1328" style="stroke: #000000; stroke-width: 1.0; stroke-dasharray: 2.0,2.0;" width="46" x="228.5" y="56"/><text fill="#000000" font-family="sans-serif" font-size="12" font-style="italic" lengthAdjust="spacingAndGlyphs" textLength="44" x="229.5" y="68.6016">Success</text><line style="stroke: #A80036; stroke-width: 1.5;" x1="39.5" x2="270.5" y1="91" y2="91"/><text fill="#000000" font-family="sans-serif" font-size="11" font-weight="bold" lengthAdjust="spacingAndGlyphs" textLength="98" x="44.5" y="105.6348">Validation Monad</text><text fill="#000000" font-family="sans-serif" font-size="11" font-weight="bold" lengthAdjust="spacingAndGlyphs" textLength="221" x="44.5" y="118.5898">A container of either Success or Failure</text><line style="stroke: #A80036; stroke-width: 1.0;" x1="39.5" x2="270.5" y1="124.9102" y2="124.9102"/><line style="stroke: #A80036; stroke-width: 1.0;" x1="39.5" x2="270.5" y1="126.9102" y2="126.9102"/><text fill="#000000" font-family="sans-serif" font-size="11" lengthAdjust="spacingAndGlyphs" textLength="121" x="44.5" y="139.5449">case success(Success)</text><text fill="#000000" font-family="sans-serif" font-size="11" lengthAdjust="spacingAndGlyphs" textLength="97" x="44.5" y="152.5">case failure(Error)</text><line style="stroke: #A80036; stroke-width: 1.0;" x1="39.5" x2="270.5" y1="158.8203" y2="158.8203"/><text fill="#000000" font-family="sans-serif" font-size="11" lengthAdjust="spacingAndGlyphs" textLength="67" x="44.5" y="173.4551">func map(_:)</text><text fill="#000000" font-family="sans-serif" font-size="11" lengthAdjust="spacingAndGlyphs" textLength="92" x="44.5" y="186.4102">func liftSuccess()</text><text fill="#000000" font-family="sans-serif" font-size="11" lengthAdjust="spacingAndGlyphs" textLength="101" x="44.5" y="199.3652">func onSuccess(_:)</text><text fill="#000000" font-family="sans-serif" font-size="11" lengthAdjust="spacingAndGlyphs" textLength="94" x="44.5" y="212.3203">func onFailure(_:)</text><rect fill="#FEFECE" filter="url(#f1)" height="159.6406" style="stroke: #A80036; stroke-width: 1.5;" width="203" x="306.5" y="59"/><ellipse cx="356.25" cy="75" fill="#ADD1B2" rx="11" ry="11" style="stroke: #A80036; stroke-width: 1.0;"/><path d="M357.9531,70.6792 Q358.1191,70.3804 358.2935,70.2559 Q358.4678,70.1313 358.7334,70.1313 Q359.1401,70.1313 359.3103,70.3472 Q359.4805,70.563 359.4805,71.0859 L359.4971,73.2441 Q359.4971,73.8169 359.3103,74.0161 Q359.1235,74.2153 358.6338,74.2153 Q358.2852,74.2153 358.0984,74.0493 Q357.9116,73.8833 357.7788,73.4351 Q357.563,72.6465 357.0898,72.302 Q356.6167,71.9575 355.7783,71.9575 Q354.5,71.9575 353.8193,72.8208 Q353.1387,73.6841 353.1387,75.3193 Q353.1387,76.9463 353.8276,77.8179 Q354.5166,78.6895 355.7949,78.6895 Q356.6665,78.6895 357.7166,78.1084 Q358.7666,77.5273 359.0405,77.5273 Q359.3643,77.5273 359.5842,77.8013 Q359.8042,78.0752 359.8042,78.4819 Q359.8042,79.2124 358.5176,79.8599 Q357.231,80.5073 355.6206,80.5073 Q353.4458,80.5073 352.1011,79.0713 Q350.7563,77.6353 350.7563,75.3193 Q350.7563,73.0864 352.1177,71.6089 Q353.479,70.1313 355.5708,70.1313 Q356.1602,70.1313 356.7329,70.2642 Q357.3057,70.397 357.9531,70.6792 Z "/><text fill="#000000" font-family="sans-serif" font-size="12" lengthAdjust="spacingAndGlyphs" textLength="33" x="376.75" y="79.5352">Either</text><rect fill="#FFFFFF" height="16.1328" style="stroke: #000000; stroke-width: 1.0; stroke-dasharray: 2.0,2.0;" width="60" x="452.5" y="56"/><text fill="#000000" font-family="sans-serif" font-size="12" font-style="italic" lengthAdjust="spacingAndGlyphs" textLength="58" x="453.5" y="68.6016">Left, Right</text><line style="stroke: #A80036; stroke-width: 1.5;" x1="307.5" x2="508.5" y1="91" y2="91"/><text fill="#000000" font-family="sans-serif" font-size="11" font-weight="bold" lengthAdjust="spacingAndGlyphs" textLength="74" x="312.5" y="105.6348">Either Monad</text><text fill="#000000" font-family="sans-serif" font-size="11" font-weight="bold" lengthAdjust="spacingAndGlyphs" textLength="191" x="312.5" y="118.5898">A container of either Left or Right</text><line style="stroke: #A80036; stroke-width: 1.0;" x1="307.5" x2="508.5" y1="124.9102" y2="124.9102"/><line style="stroke: #A80036; stroke-width: 1.0;" x1="307.5" x2="508.5" y1="126.9102" y2="126.9102"/><text fill="#000000" font-family="sans-serif" font-size="11" lengthAdjust="spacingAndGlyphs" textLength="72" x="312.5" y="139.5449">case left(Left)</text><text fill="#000000" font-family="sans-serif" font-size="11" lengthAdjust="spacingAndGlyphs" textLength="87" x="312.5" y="152.5">case right(right)</text><line style="stroke: #A80036; stroke-width: 1.0;" x1="307.5" x2="508.5" y1="158.8203" y2="158.8203"/><text fill="#000000" font-family="sans-serif" font-size="11" lengthAdjust="spacingAndGlyphs" textLength="87" x="312.5" y="173.4551">func mapLeft(_:)</text><text fill="#000000" font-family="sans-serif" font-size="11" lengthAdjust="spacingAndGlyphs" textLength="95" x="312.5" y="186.4102">func mapRight(_:)</text><text fill="#000000" font-family="sans-serif" font-size="11" lengthAdjust="spacingAndGlyphs" textLength="78" x="312.5" y="199.3652">func onLeft(_:)</text><text fill="#000000" font-family="sans-serif" font-size="11" lengthAdjust="spacingAndGlyphs" textLength="86" x="312.5" y="212.3203">func onRight(_:)</text><rect fill="#FEFECE" filter="url(#f1)" height="99.8203" style="stroke: #A80036; stroke-width: 1.5;" width="255" x="544.5" y="89"/><ellipse cx="581.1" cy="105" fill="#ADD1B2" rx="11" ry="11" style="stroke: #A80036; stroke-width: 1.0;"/><path d="M582.8031,100.6792 Q582.9691,100.3804 583.1435,100.2559 Q583.3178,100.1313 583.5834,100.1313 Q583.9901,100.1313 584.1603,100.3472 Q584.3305,100.563 584.3305,101.0859 L584.3471,103.2441 Q584.3471,103.8169 584.1603,104.0161 Q583.9735,104.2153 583.4838,104.2153 Q583.1352,104.2153 582.9484,104.0493 Q582.7616,103.8833 582.6288,103.4351 Q582.413,102.6465 581.9398,102.302 Q581.4667,101.9575 580.6283,101.9575 Q579.35,101.9575 578.6693,102.8208 Q577.9887,103.6841 577.9887,105.3193 Q577.9887,106.9463 578.6776,107.8179 Q579.3666,108.6895 580.6449,108.6895 Q581.5165,108.6895 582.5666,108.1084 Q583.6166,107.5273 583.8905,107.5273 Q584.2143,107.5273 584.4342,107.8013 Q584.6542,108.0752 584.6542,108.4819 Q584.6542,109.2124 583.3676,109.8599 Q582.081,110.5073 580.4706,110.5073 Q578.2958,110.5073 576.9511,109.0713 Q575.6063,107.6353 575.6063,105.3193 Q575.6063,103.0864 576.9677,101.6089 Q578.329,100.1313 580.4208,100.1313 Q581.0102,100.1313 581.5829,100.2642 Q582.1557,100.397 582.8031,100.6792 Z "/><text fill="#000000" font-family="sans-serif" font-size="12" lengthAdjust="spacingAndGlyphs" textLength="77" x="599.9" y="109.5352">ChannelEvent</text><rect fill="#FFFFFF" height="16.1328" style="stroke: #000000; stroke-width: 1.0; stroke-dasharray: 2.0,2.0;" width="96" x="706.5" y="86"/><text fill="#000000" font-family="sans-serif" font-size="12" font-style="italic" lengthAdjust="spacingAndGlyphs" textLength="94" x="707.5" y="98.6016">Update, Success</text><line style="stroke: #A80036; stroke-width: 1.5;" x1="545.5" x2="798.5" y1="121" y2="121"/><text fill="#000000" font-family="sans-serif" font-size="11" font-weight="bold" lengthAdjust="spacingAndGlyphs" textLength="74" x="550.5" y="135.6348">Either Monad</text><text fill="#000000" font-family="sans-serif" font-size="11" font-weight="bold" lengthAdjust="spacingAndGlyphs" textLength="243" x="550.5" y="148.5898">made specially to look like a channel event</text><line style="stroke: #A80036; stroke-width: 1.0;" x1="545.5" x2="798.5" y1="154.9102" y2="154.9102"/><line style="stroke: #A80036; stroke-width: 1.0;" x1="545.5" x2="798.5" y1="156.9102" y2="156.9102"/><text fill="#000000" font-family="sans-serif" font-size="11" lengthAdjust="spacingAndGlyphs" textLength="110" x="550.5" y="169.5449">case update(Update)</text><text fill="#000000" font-family="sans-serif" font-size="11" lengthAdjust="spacingAndGlyphs" textLength="193" x="550.5" y="182.5">case completion(Fallible&lt;Success&gt;)</text><rect fill="#FEFECE" filter="url(#f1)" height="73.9102" style="stroke: #A80036; stroke-width: 1.5;" width="234" x="38" y="305"/><ellipse cx="98.25" cy="321" fill="#ADD1B2" rx="11" ry="11" style="stroke: #A80036; stroke-width: 1.0;"/><path d="M99.9531,316.6792 Q100.1191,316.3804 100.2935,316.2559 Q100.4678,316.1313 100.7334,316.1313 Q101.1401,316.1313 101.3103,316.3472 Q101.4805,316.563 101.4805,317.0859 L101.4971,319.2441 Q101.4971,319.8169 101.3103,320.0161 Q101.1235,320.2153 100.6338,320.2153 Q100.2852,320.2153 100.0984,320.0493 Q99.9116,319.8833 99.7788,319.4351 Q99.563,318.6465 99.0898,318.302 Q98.6167,317.9575 97.7783,317.9575 Q96.5,317.9575 95.8193,318.8208 Q95.1387,319.6841 95.1387,321.3193 Q95.1387,322.9463 95.8276,323.8179 Q96.5166,324.6895 97.7949,324.6895 Q98.6665,324.6895 99.7166,324.1084 Q100.7666,323.5273 101.0405,323.5273 Q101.3643,323.5273 101.5842,323.8013 Q101.8042,324.0752 101.8042,324.4819 Q101.8042,325.2124 100.5176,325.8599 Q99.231,326.5073 97.6206,326.5073 Q95.4458,326.5073 94.1011,325.0713 Q92.7563,323.6353 92.7563,321.3193 Q92.7563,319.0864 94.1177,317.6089 Q95.479,316.1313 97.5708,316.1313 Q98.1602,316.1313 98.7329,316.2642 Q99.3057,316.397 99.9531,316.6792 Z "/><text fill="#000000" font-family="sans-serif" font-size="12" lengthAdjust="spacingAndGlyphs" textLength="105" x="118.75" y="325.5352">CancellationToken</text><line style="stroke: #A80036; stroke-width: 1.5;" x1="39" x2="271" y1="337" y2="337"/><text fill="#000000" font-family="sans-serif" font-size="11" font-weight="bold" lengthAdjust="spacingAndGlyphs" textLength="222" x="44" y="351.6348">token to cancel various operations with</text><line style="stroke: #A80036; stroke-width: 1.0;" x1="39" x2="271" y1="357.9551" y2="357.9551"/><line style="stroke: #A80036; stroke-width: 1.0;" x1="39" x2="271" y1="359.9551" y2="359.9551"/><text fill="#000000" font-family="sans-serif" font-size="11" lengthAdjust="spacingAndGlyphs" textLength="69" x="44" y="372.5898">func cancel()</text><rect fill="#FEFECE" filter="url(#f1)" height="99.8203" style="stroke: #A80036; stroke-width: 1.5;" width="244" x="307" y="292"/><ellipse cx="369.25" cy="308" fill="#ADD1B2" rx="11" ry="11" style="stroke: #A80036; stroke-width: 1.0;"/><path d="M370.9531,303.6792 Q371.1191,303.3804 371.2935,303.2559 Q371.4678,303.1313 371.7334,303.1313 Q372.1401,303.1313 372.3103,303.3472 Q372.4805,303.563 372.4805,304.0859 L372.4971,306.2441 Q372.4971,306.8169 372.3103,307.0161 Q372.1235,307.2153 371.6338,307.2153 Q371.2852,307.2153 371.0984,307.0493 Q370.9116,306.8833 370.7788,306.4351 Q370.563,305.6465 370.0898,305.302 Q369.6167,304.9575 368.7783,304.9575 Q367.5,304.9575 366.8193,305.8208 Q366.1387,306.6841 366.1387,308.3193 Q366.1387,309.9463 366.8276,310.8179 Q367.5166,311.6895 368.7949,311.6895 Q369.6665,311.6895 370.7166,311.1084 Q371.7666,310.5273 372.0405,310.5273 Q372.3643,310.5273 372.5842,310.8013 Q372.8042,311.0752 372.8042,311.4819 Q372.8042,312.2124 371.5176,312.8599 Q370.231,313.5073 368.6206,313.5073 Q366.4458,313.5073 365.1011,312.0713 Q363.7563,310.6353 363.7563,308.3193 Q363.7563,306.0864 365.1177,304.6089 Q366.479,303.1313 368.5708,303.1313 Q369.1602,303.1313 369.7329,303.2642 Q370.3057,303.397 370.9531,303.6792 Z "/><text fill="#000000" font-family="sans-serif" font-size="12" lengthAdjust="spacingAndGlyphs" textLength="111" x="389.75" y="312.5352">ObservationSession</text><line style="stroke: #A80036; stroke-width: 1.5;" x1="308" x2="550" y1="324" y2="324"/><text fill="#000000" font-family="sans-serif" font-size="11" font-weight="bold" lengthAdjust="spacingAndGlyphs" textLength="178" x="313" y="338.6348">An object that is able to control</text><text fill="#000000" font-family="sans-serif" font-size="11" font-weight="bold" lengthAdjust="spacingAndGlyphs" textLength="232" x="313" y="351.5898">observation-related channel constructors</text><line style="stroke: #A80036; stroke-width: 1.0;" x1="308" x2="550" y1="357.9102" y2="357.9102"/><line style="stroke: #A80036; stroke-width: 1.0;" x1="308" x2="550" y1="359.9102" y2="359.9102"/><text fill="#000000" font-family="sans-serif" font-size="11" lengthAdjust="spacingAndGlyphs" textLength="100" x="313" y="372.5449">var isEnabled: Bool</text><text fill="#000000" font-family="sans-serif" font-size="11" lengthAdjust="spacingAndGlyphs" textLength="79" x="313" y="385.5">init(isEnabled:)</text><rect fill="#FEFECE" filter="url(#f1)" height="125.7305" style="stroke: #A80036; stroke-width: 1.5;" width="364" x="586" y="279"/><ellipse cx="658.75" cy="295" fill="#ADD1B2" rx="11" ry="11" style="stroke: #A80036; stroke-width: 1.0;"/><path d="M660.4531,290.6792 Q660.6191,290.3804 660.7935,290.2559 Q660.9678,290.1313 661.2334,290.1313 Q661.6401,290.1313 661.8103,290.3472 Q661.9805,290.563 661.9805,291.0859 L661.9971,293.2441 Q661.9971,293.8169 661.8103,294.0161 Q661.6235,294.2153 661.1338,294.2153 Q660.7852,294.2153 660.5984,294.0493 Q660.4116,293.8833 660.2788,293.4351 Q660.063,292.6465 659.5898,292.302 Q659.1167,291.9575 658.2783,291.9575 Q657,291.9575 656.3193,292.8208 Q655.6387,293.6841 655.6387,295.3193 Q655.6387,296.9463 656.3276,297.8179 Q657.0166,298.6895 658.2949,298.6895 Q659.1665,298.6895 660.2166,298.1084 Q661.2666,297.5273 661.5405,297.5273 Q661.8643,297.5273 662.0842,297.8013 Q662.3042,298.0752 662.3042,298.4819 Q662.3042,299.2124 661.0176,299.8599 Q659.731,300.5073 658.1206,300.5073 Q655.9458,300.5073 654.6011,299.0713 Q653.2563,297.6353 653.2563,295.3193 Q653.2563,293.0864 654.6177,291.6089 Q655.979,290.1313 658.0708,290.1313 Q658.6602,290.1313 659.2329,290.2642 Q659.8057,290.397 660.4531,290.6792 Z "/><text fill="#000000" font-family="sans-serif" font-size="12" lengthAdjust="spacingAndGlyphs" textLength="107" x="679.25" y="299.5352">ReactiveProperties</text><rect fill="#FFFFFF" height="16.1328" style="stroke: #000000; stroke-width: 1.0; stroke-dasharray: 2.0,2.0;" width="101" x="852" y="276"/><text fill="#000000" font-family="sans-serif" font-size="12" font-style="italic" lengthAdjust="spacingAndGlyphs" textLength="99" x="853" y="288.6016">Object: NSObject</text><line style="stroke: #A80036; stroke-width: 1.5;" x1="587" x2="949" y1="311" y2="311"/><text fill="#000000" font-family="sans-serif" font-size="11" font-weight="bold" lengthAdjust="spacingAndGlyphs" textLength="191" x="592" y="325.6348">An adaptor for reactive properties</text><text fill="#000000" font-family="sans-serif" font-size="11" font-weight="bold" lengthAdjust="spacingAndGlyphs" textLength="207" x="592" y="338.5898">Has multiple extensions that provide</text><text fill="#000000" font-family="sans-serif" font-size="11" font-weight="bold" lengthAdjust="spacingAndGlyphs" textLength="352" x="592" y="351.5449">convenience methods/properties that make reactive properties</text><line style="stroke: #A80036; stroke-width: 1.0;" x1="587" x2="949" y1="357.8652" y2="357.8652"/><line style="stroke: #A80036; stroke-width: 1.0;" x1="587" x2="949" y1="359.8652" y2="359.8652"/><text fill="#000000" font-family="sans-serif" font-size="11" lengthAdjust="spacingAndGlyphs" textLength="278" x="592" y="372.5">func updatable&lt;T&gt;(...) -&gt; ProducerProxy&lt;T, Void&gt;</text><text fill="#000000" font-family="sans-serif" font-size="11" lengthAdjust="spacingAndGlyphs" textLength="237" x="592" y="385.4551">func updating&lt;T&gt;(...) -&gt; Channel&lt;T, Void&gt;</text><text fill="#000000" font-family="sans-serif" font-size="11" lengthAdjust="spacingAndGlyphs" textLength="189" x="592" y="398.4102">func sink&lt;T&gt;(...) -&gt; Sink&lt;T, Void&gt;</text><rect fill="#FEFECE" filter="url(#f1)" height="48" style="stroke: #A80036; stroke-width: 1.5;" width="131" x="982.5" y="115"/><ellipse cx="997.5" cy="131" fill="#ADD1B2" rx="11" ry="11" style="stroke: #A80036; stroke-width: 1.0;"/><path d="M999.2031,126.6792 Q999.3691,126.3804 999.5435,126.2559 Q999.7178,126.1313 999.9834,126.1313 Q1000.3901,126.1313 1000.5603,126.3472 Q1000.7305,126.563 1000.7305,127.0859 L1000.7471,129.2441 Q1000.7471,129.8169 1000.5603,130.0161 Q1000.3735,130.2153 999.8838,130.2153 Q999.5352,130.2153 999.3484,130.0493 Q999.1616,129.8833 999.0288,129.4351 Q998.813,128.6465 998.3398,128.302 Q997.8667,127.9575 997.0283,127.9575 Q995.75,127.9575 995.0693,128.8208 Q994.3887,129.6841 994.3887,131.3193 Q994.3887,132.9463 995.0776,133.8179 Q995.7666,134.6895 997.0449,134.6895 Q997.9165,134.6895 998.9666,134.1084 Q1000.0166,133.5273 1000.2905,133.5273 Q1000.6143,133.5273 1000.8342,133.8013 Q1001.0542,134.0752 1001.0542,134.4819 Q1001.0542,135.2124 999.7676,135.8599 Q998.481,136.5073 996.8706,136.5073 Q994.6958,136.5073 993.3511,135.0713 Q992.0063,133.6353 992.0063,131.3193 Q992.0063,129.0864 993.3677,127.6089 Q994.729,126.1313 996.8208,126.1313 Q997.4102,126.1313 997.9829,126.2642 Q998.5557,126.397 999.2031,126.6792 Z "/><text fill="#000000" font-family="sans-serif" font-size="12" lengthAdjust="spacingAndGlyphs" textLength="99" x="1011.5" y="135.5352">NSObjectProtocol</text><line style="stroke: #A80036; stroke-width: 1.5;" x1="983.5" x2="1112.5" y1="147" y2="147"/><line style="stroke: #A80036; stroke-width: 1.5;" x1="983.5" x2="1112.5" y1="155" y2="155"/><path d="M2653.5404,180.1494 C2630.921,193.7037 2604.8767,208.0838 2580,219 C2496.9662,255.4365 2466.5695,239.3939 2385,279 C2370.3074,286.134 2355.3394,295.476 2341.8986,304.7732 " fill="none" style="stroke: #A80036; stroke-width: 1.0; stroke-dasharray: 7.0,7.0;"/><polygon fill="none" points="2650.1482,174.0184,2670.8587,169.5381,2657.4625,185.9558,2650.1482,174.0184" style="stroke: #A80036; stroke-width: 1.0;"/><path d="M2771.201,182.3181 C2819.7949,221.155 2889.8589,277.151 2932.8029,311.4724 " fill="none" style="stroke: #A80036; stroke-width: 1.0; stroke-dasharray: 7.0,7.0;"/><polygon fill="none" points="2766.5545,187.5656,2755.3014,169.6109,2775.295,176.6292,2766.5545,187.5656" style="stroke: #A80036; stroke-width: 1.0;"/><path d="M2401.0885,171.6834 C2346.1657,198.2954 2268.4525,238.0421 2204,279 C2191.6325,286.8592 2178.782,296.0521 2166.9922,304.948 " fill="none" style="stroke: #A80036; stroke-width: 1.0; stroke-dasharray: 7.0,7.0;"/><polygon fill="none" points="2398.088,165.359,2419.1469,163.0086,2404.1501,177.9785,2398.088,165.359" style="stroke: #A80036; stroke-width: 1.0;"/><path d="M2471,183.1797 C2471,221.9268 2471,277.2541 2471,311.334 " fill="none" style="stroke: #A80036; stroke-width: 1.0; stroke-dasharray: 7.0,7.0;"/><polygon fill="none" points="2464.0001,183.084,2471,163.0839,2478.0001,183.0839,2464.0001,183.084" style="stroke: #A80036; stroke-width: 1.0;"/><path d="M2717,190.0453 C2717,228.1925 2717,279.0913 2717,311.2118 " fill="none" style="stroke: #A80036; stroke-width: 1.0; stroke-dasharray: 7.0,7.0;"/><polygon fill="none" points="2710.0001,189.8314,2717,169.8313,2724.0001,189.8313,2710.0001,189.8314" style="stroke: #A80036; stroke-width: 1.0;"/><path d="M2515.6337,175.8319 C2562.6517,214.6313 2635.8502,275.0349 2679.8383,311.334 " fill="none" style="stroke: #A80036; stroke-width: 1.0; stroke-dasharray: 7.0,7.0;"/><polygon fill="none" points="2511.1561,181.2126,2500.1855,163.0839,2520.0668,170.4144,2511.1561,181.2126" style="stroke: #A80036; stroke-width: 1.0;"/><path d="M2659.8951,384.7267 C2602.4648,427.6969 2515.9485,492.4296 2469.3968,527.2602 " fill="none" style="stroke: #A80036; stroke-width: 1.0; stroke-dasharray: 7.0,7.0;"/><polygon fill="none" points="2655.7784,379.0644,2675.9857,372.6875,2664.1656,390.274,2655.7784,379.0644" style="stroke: #A80036; stroke-width: 1.0;"/><path d="M2717.9725,392.9364 C2718.7874,435.614 2719.9146,494.6526 2720.5383,527.3175 " fill="none" style="stroke: #A80036; stroke-width: 1.0; stroke-dasharray: 7.0,7.0;"/><polygon fill="none" points="2710.9734,393.0425,2717.5902,372.9124,2724.9708,392.7751,2710.9734,393.0425" style="stroke: #A80036; stroke-width: 1.0;"/><path d="M2165.3883,394.0817 C2177.2225,406.3501 2190.4953,418.8085 2204,429 C2258.9013,470.432 2329.7791,505.4869 2378.8737,527.3433 " fill="none" style="stroke: #A80036; stroke-width: 1.0; stroke-dasharray: 7.0,7.0;"/><polygon fill="none" points="2160.217,398.7998,2151.7478,379.3763,2170.4812,389.279,2160.217,398.7998" style="stroke: #A80036; stroke-width: 1.0;"/><path d="M2330.8996,396.0591 C2359.8683,438.4994 2398.8221,495.568 2420.5656,527.423 " fill="none" style="stroke: #A80036; stroke-width: 1.0; stroke-dasharray: 7.0,7.0;"/><polygon fill="none" points="2325.0593,399.9195,2319.5655,379.4544,2336.6224,392.0268,2325.0593,399.9195" style="stroke: #A80036; stroke-width: 1.0;"/><path d="M2513.8608,387.2679 C2527.5727,401.0858 2543.0747,416.0425 2558,429 C2600.1016,465.5507 2652.0962,503.4948 2685.8747,527.2828 " fill="none" style="stroke: #A80036; stroke-width: 1.0; stroke-dasharray: 7.0,7.0;"/><polygon fill="none" points="2508.7642,392.068,2499.7965,372.8695,2518.7792,382.2854,2508.7642,392.068" style="stroke: #A80036; stroke-width: 1.0;"/><path d="M2924.2301,386.6761 C2909.3601,400.5021 2892.6954,415.6123 2877,429 C2835.343,464.5321 2785.2536,503.182 2753.276,527.37 " fill="none" style="stroke: #A80036; stroke-width: 1.0; stroke-dasharray: 7.0,7.0;"/><polygon fill="none" points="2919.5847,381.436,2938.9608,372.8588,2929.1625,391.647,2919.5847,381.436" style="stroke: #A80036; stroke-width: 1.0;"/><path d="M2282.205,398.8491 C2264.3164,485.0681 2230.8151,646.5367 2215.7212,719.2854 " fill="none" style="stroke: #A80036; stroke-width: 1.0; stroke-dasharray: 7.0,7.0;"/><polygon fill="none" points="2275.3752,397.3097,2286.2924,379.1489,2289.0833,400.1539,2275.3752,397.3097" style="stroke: #A80036; stroke-width: 1.0;"/><path d="M2254.8427,808.6657 C2271.9745,827.7444 2290.9918,848.9227 2306.7015,866.4176 " fill="none" style="stroke: #A80036; stroke-width: 1.0;"/><polygon fill="none" points="2249.4634,813.1522,2241.3092,793.5943,2259.8801,803.7984,2249.4634,813.1522" style="stroke: #A80036; stroke-width: 1.0;"/><path d="M2183.421,812.0864 C2176.4282,827.9008 2168.9145,844.8934 2162.285,859.8863 " fill="none" style="stroke: #A80036; stroke-width: 1.0;"/><polygon fill="none" points="2177.1075,809.055,2191.5978,793.5943,2189.9116,814.7168,2177.1075,809.055" style="stroke: #A80036; stroke-width: 1.0;"/><path d="M2974.3314,392.8033 C2977.5443,488.3765 2969.4138,694.7536 2851,800 C2706.7717,928.1904 2604.424,800.0816 2421,860 C2415.0825,861.933 2409.0881,864.2867 2403.1776,866.8879 " fill="none" style="stroke: #A80036; stroke-width: 1.0; stroke-dasharray: 7.0,7.0;"/><polygon fill="none" points="2967.3279,392.8812,2973.4208,372.5864,2981.3137,392.2512,2967.3279,392.8812" style="stroke: #A80036; stroke-width: 1.0;"/><path d="M2442.4178,595.9259 C2446.6426,630.5696 2452.4784,678.4232 2456.6785,712.864 " fill="none" style="stroke: #A80036; stroke-width: 1.0; stroke-dasharray: 7.0,7.0;"/><polygon fill="none" points="2435.4387,596.5215,2439.966,575.8212,2449.3357,594.8267,2435.4387,596.5215" style="stroke: #A80036; stroke-width: 1.0;"/><path d="M2495.8096,817.8581 C2506.2469,836.8 2517.294,856.8484 2526.0737,872.7819 " fill="none" style="stroke: #A80036; stroke-width: 1.0;"/><polygon fill="none" points="2489.6046,821.1019,2486.0834,800.2068,2501.8664,814.3454,2489.6046,821.1019" style="stroke: #A80036; stroke-width: 1.0;"/><path d="M2778.6569,587.242 C2806.0565,607.7249 2836.034,636.1073 2851,670 C2874.3388,722.8542 2884.7262,753.0872 2851,800 C2826.592,833.9513 2727.163,863.2897 2647.7879,881.972 " fill="none" style="stroke: #A80036; stroke-width: 1.0; stroke-dasharray: 7.0,7.0;"/><polygon fill="none" points="2774.3792,592.7905,2762.0871,575.5306,2782.4597,581.3579,2774.3792,592.7905" style="stroke: #A80036; stroke-width: 1.0;"/><path d="M2594.3153,947.6422 C2615.5879,965.9412 2640.5296,987.3964 2663.1289,1006.8367 " fill="none" style="stroke: #A80036; stroke-width: 1.0;"/><polygon fill="none" points="2589.4598,952.699,2578.8627,934.3496,2598.5897,942.0856,2589.4598,952.699" style="stroke: #A80036; stroke-width: 1.0;"/><path d="M2460.8551,942.8509 C2407.5649,968.3791 2338.5756,1001.4278 2286.2803,1026.4795 " fill="none" style="stroke: #A80036; stroke-width: 1.0;"/><polygon fill="none" points="2457.9352,936.4879,2478.9966,934.1603,2463.9836,949.1139,2457.9352,936.4879" style="stroke: #A80036; stroke-width: 1.0;"/><path d="M2523.1485,953.1288 C2514.6246,974.4385 2504.7502,999.1245 2496.5041,1019.7396 " fill="none" style="stroke: #A80036; stroke-width: 1.0;"/><polygon fill="none" points="2516.7329,950.3194,2530.6602,934.3496,2529.7316,955.5189,2516.7329,950.3194" style="stroke: #A80036; stroke-width: 1.0;"/><path d="M2721,595.9259 C2721,630.5696 2721,678.4232 2721,712.864 " fill="none" style="stroke: #A80036; stroke-width: 1.0; stroke-dasharray: 7.0,7.0;"/><polygon fill="none" points="2714.0001,595.8212,2721,575.8212,2728.0001,595.8212,2714.0001,595.8212" style="stroke: #A80036; stroke-width: 1.0;"/><path d="M1573,202.5906 C1573,238.8627 1573,282.6777 1573,311.3848 " fill="none" style="stroke: #A80036; stroke-width: 1.0; stroke-dasharray: 7.0,7.0;"/><polygon fill="none" points="1566.0001,202.5486,1573,182.5486,1580.0001,202.5486,1566.0001,202.5486" style="stroke: #A80036; stroke-width: 1.0;"/><path d="M1580.1368,385.9755 C1583.8475,408.8398 1588.5167,437.61 1592.917,464.724 " fill="none" style="stroke: #A80036; stroke-width: 1.0;"/><polygon fill="#A80036" points="1578.0168,372.9124,1575.0297,379.4757,1579.9393,384.7574,1582.9264,378.1941,1578.0168,372.9124" style="stroke: #A80036; stroke-width: 1.0;"/><path d="M1653.8041,193.8603 C1705.7072,229.0989 1771.7265,273.9214 1817.4834,304.9871 " fill="none" style="stroke: #A80036; stroke-width: 1.0; stroke-dasharray: 7.0,7.0;"/><polygon fill="none" points="1649.7578,199.5741,1637.143,182.5486,1657.6217,187.9914,1649.7578,199.5741" style="stroke: #A80036; stroke-width: 1.0;"/><path d="M1872,392.6799 C1872,432.6905 1872,487.2013 1872,520.8354 " fill="none" style="stroke: #A80036; stroke-width: 1.0;"/><polygon fill="#A80036" points="1872,379.4544,1868,385.4544,1872,391.4544,1876,385.4544,1872,379.4544" style="stroke: #A80036; stroke-width: 1.0;"/><path d="M1492.1959,193.8603 C1440.2928,229.0989 1374.2735,273.9214 1328.5166,304.9871 " fill="none" style="stroke: #A80036; stroke-width: 1.0; stroke-dasharray: 7.0,7.0;"/><polygon fill="none" points="1488.3783,187.9914,1508.857,182.5486,1496.2422,199.5741,1488.3783,187.9914" style="stroke: #A80036; stroke-width: 1.0;"/><path d="M1086.3657,177.4568 C1099.9606,190.8082 1115.4868,205.7487 1130,219 C1162.4141,248.5958 1200.1815,280.7735 1228.904,304.7917 " fill="none" style="stroke: #A80036; stroke-width: 1.0; stroke-dasharray: 7.0,7.0;"/><polygon fill="none" points="1081.2847,182.2768,1071.9941,163.2325,1091.1331,172.3264,1081.2847,182.2768" style="stroke: #A80036; stroke-width: 1.0;"/><path d="M1518.8258,385.154 C1471.0052,423.2468 1402.0247,478.1951 1356.6197,514.3637 " fill="none" style="stroke: #A80036; stroke-width: 1.0; stroke-dasharray: 7.0,7.0;"/><polygon fill="none" points="1514.471,379.6735,1534.4759,372.6875,1523.1938,390.6239,1514.471,379.6735" style="stroke: #A80036; stroke-width: 1.0;"/><path d="M1283.8281,399.1939 C1290.1319,435.8789 1298.1334,482.4427 1303.6196,514.3699 " fill="none" style="stroke: #A80036; stroke-width: 1.0; stroke-dasharray: 7.0,7.0;"/><polygon fill="none" points="1276.9244,400.351,1280.4361,379.4544,1290.7222,397.98,1276.9244,400.351" style="stroke: #A80036; stroke-width: 1.0;"/></g></svg>