<?xml version="1.0" encoding="UTF-8" standalone="yes"?><svg xmlns="http://www.w3.org/2000/svg" xmlns:xlink="http://www.w3.org/1999/xlink" height="276px" style="width:970px;height:276px;" version="1.1" viewBox="0 0 970 276" width="970px"><defs><filter height="300%" id="f1" width="300%" x="-1" y="-1"><feGaussianBlur result="blurOut" stdDeviation="2.0"/><feColorMatrix in="blurOut" result="blurOut2" type="matrix" values="0 0 0 0 0 0 0 0 0 0 0 0 0 0 0 0 0 0 .4 0"/><feOffset dx="4.0" dy="4.0" in="blurOut2" result="blurOut3"/><feBlend in="SourceGraphic" in2="blurOut3" mode="normal"/></filter></defs><g><rect fill="#FEFECE" filter="url(#f1)" height="73.9102" style="stroke: #A80036; stroke-width: 1.5;" width="215" x="6" y="14.5"/><ellipse cx="67.25" cy="30.5" fill="#A9DCDF" rx="11" ry="11" style="stroke: #A80036; stroke-width: 1.0;"/><path d="M71.5303,32.6821 L71.6714,32.6821 Q72.1196,32.6821 72.3521,32.9104 Q72.5845,33.1387 72.5845,33.5786 Q72.5845,34.0684 72.3396,34.2842 Q72.0947,34.5 71.5303,34.5 L69.0317,34.5 Q68.459,34.5 68.2183,34.2883 Q67.9775,34.0767 67.9775,33.5786 Q67.9775,33.0972 68.2183,32.8896 Q68.459,32.6821 69.0317,32.6821 L69.3223,32.6821 L68.9819,31.7109 L65.396,31.7109 L65.0391,32.6821 L65.3296,32.6821 Q65.894,32.6821 66.1389,32.8938 Q66.3838,33.1055 66.3838,33.5786 Q66.3838,34.0684 66.1389,34.2842 Q65.894,34.5 65.3296,34.5 L63.188,34.5 Q62.6152,34.5 62.3745,34.2842 Q62.1338,34.0684 62.1338,33.5786 Q62.1338,33.1387 62.3662,32.9104 Q62.5986,32.6821 63.0469,32.6821 L63.188,32.6821 L65.4126,26.4897 L64.7485,26.4897 Q64.1841,26.4897 63.9392,26.2739 Q63.6943,26.0581 63.6943,25.5767 Q63.6943,25.0869 63.9392,24.8711 Q64.1841,24.6553 64.7485,24.6553 L67.8613,24.6553 Q68.6001,24.6553 68.8989,25.4521 L68.8989,25.4771 Z M67.1807,26.4897 L65.9771,29.9927 L68.3843,29.9927 Z "/><text fill="#000000" font-family="sans-serif" font-size="12" font-style="italic" lengthAdjust="spacingAndGlyphs" textLength="36" x="87.75" y="35.0352">Future</text><rect fill="#FFFFFF" height="16.1328" style="stroke: #000000; stroke-width: 1.0; stroke-dasharray: 2.0,2.0;" width="46" x="178" y="11.5"/><text fill="#000000" font-family="sans-serif" font-size="12" font-style="italic" lengthAdjust="spacingAndGlyphs" textLength="44" x="179" y="24.1016">Success</text><line style="stroke: #A80036; stroke-width: 1.5;" x1="7" x2="220" y1="46.5" y2="46.5"/><text fill="#000000" font-family="sans-serif" font-size="11" font-weight="bold" lengthAdjust="spacingAndGlyphs" textLength="203" x="12" y="61.1348">abstract immutable proxy of a value</text><text fill="#000000" font-family="sans-serif" font-size="11" font-weight="bold" lengthAdjust="spacingAndGlyphs" textLength="146" x="12" y="74.0898">that will be available later</text><line style="stroke: #A80036; stroke-width: 1.0;" x1="7" x2="220" y1="80.4102" y2="80.4102"/><line style="stroke: #A80036; stroke-width: 1.0;" x1="7" x2="220" y1="82.4102" y2="82.4102"/><rect fill="#FEFECE" filter="url(#f1)" height="73.9102" style="stroke: #A80036; stroke-width: 1.5;" width="126" x="50.5" y="174.5"/><ellipse cx="65.5" cy="190.5" fill="#ADD1B2" rx="11" ry="11" style="stroke: #A80036; stroke-width: 1.0;"/><path d="M67.2031,186.1792 Q67.3691,185.8804 67.5435,185.7559 Q67.7178,185.6313 67.9834,185.6313 Q68.3901,185.6313 68.5603,185.8472 Q68.7305,186.063 68.7305,186.5859 L68.7471,188.7441 Q68.7471,189.3169 68.5603,189.5161 Q68.3735,189.7153 67.8838,189.7153 Q67.5352,189.7153 67.3484,189.5493 Q67.1616,189.3833 67.0288,188.9351 Q66.813,188.1465 66.3398,187.802 Q65.8667,187.4575 65.0283,187.4575 Q63.75,187.4575 63.0693,188.3208 Q62.3887,189.1841 62.3887,190.8193 Q62.3887,192.4463 63.0776,193.3179 Q63.7666,194.1895 65.0449,194.1895 Q65.9165,194.1895 66.9666,193.6084 Q68.0166,193.0273 68.2905,193.0273 Q68.6143,193.0273 68.8342,193.3013 Q69.0542,193.5752 69.0542,193.9819 Q69.0542,194.7124 67.7676,195.3599 Q66.481,196.0073 64.8706,196.0073 Q62.6958,196.0073 61.3511,194.5713 Q60.0063,193.1353 60.0063,190.8193 Q60.0063,188.5864 61.3677,187.1089 Q62.729,185.6313 64.8208,185.6313 Q65.4102,185.6313 65.9829,185.7642 Q66.5557,185.897 67.2031,186.1792 Z "/><text fill="#000000" font-family="sans-serif" font-size="12" lengthAdjust="spacingAndGlyphs" textLength="46" x="79.5" y="195.0352">Promise</text><rect fill="#FFFFFF" height="16.1328" style="stroke: #000000; stroke-width: 1.0; stroke-dasharray: 2.0,2.0;" width="46" x="133.5" y="171.5"/><text fill="#000000" font-family="sans-serif" font-size="12" font-style="italic" lengthAdjust="spacingAndGlyphs" textLength="44" x="134.5" y="184.1016">Success</text><line style="stroke: #A80036; stroke-width: 1.5;" x1="51.5" x2="175.5" y1="206.5" y2="206.5"/><text fill="#000000" font-family="sans-serif" font-size="11" font-weight="bold" lengthAdjust="spacingAndGlyphs" textLength="83" x="56.5" y="221.1348">mutable future</text><line style="stroke: #A80036; stroke-width: 1.0;" x1="51.5" x2="175.5" y1="227.4551" y2="227.4551"/><line style="stroke: #A80036; stroke-width: 1.0;" x1="51.5" x2="175.5" y1="229.4551" y2="229.4551"/><ellipse cx="61.5" cy="239.4326" fill="#84BE84" rx="3" ry="3" style="stroke: #038048; stroke-width: 1.0;"/><text fill="#000000" font-family="sans-serif" font-size="11" lengthAdjust="spacingAndGlyphs" textLength="25" x="70.5" y="242.0898">init()</text><rect fill="#FEFECE" filter="url(#f1)" height="86.8652" style="stroke: #A80036; stroke-width: 1.5;" width="223" x="495" y="8"/><ellipse cx="531.15" cy="24" fill="#A9DCDF" rx="11" ry="11" style="stroke: #A80036; stroke-width: 1.0;"/><path d="M535.4303,26.1821 L535.5714,26.1821 Q536.0196,26.1821 536.2521,26.4104 Q536.4845,26.6387 536.4845,27.0786 Q536.4845,27.5684 536.2396,27.7842 Q535.9947,28 535.4303,28 L532.9317,28 Q532.359,28 532.1183,27.7883 Q531.8775,27.5767 531.8775,27.0786 Q531.8775,26.5972 532.1183,26.3896 Q532.359,26.1821 532.9317,26.1821 L533.2223,26.1821 L532.8819,25.2109 L529.296,25.2109 L528.9391,26.1821 L529.2296,26.1821 Q529.794,26.1821 530.0389,26.3938 Q530.2838,26.6055 530.2838,27.0786 Q530.2838,27.5684 530.0389,27.7842 Q529.794,28 529.2296,28 L527.088,28 Q526.5152,28 526.2745,27.7842 Q526.0338,27.5684 526.0338,27.0786 Q526.0338,26.6387 526.2662,26.4104 Q526.4986,26.1821 526.9469,26.1821 L527.088,26.1821 L529.3126,19.9897 L528.6485,19.9897 Q528.0841,19.9897 527.8392,19.7739 Q527.5943,19.5581 527.5943,19.0767 Q527.5943,18.5869 527.8392,18.3711 Q528.0841,18.1553 528.6485,18.1553 L531.7613,18.1553 Q532.5001,18.1553 532.7989,18.9521 L532.7989,18.9771 Z M531.0807,19.9897 L529.8771,23.4927 L532.2843,23.4927 Z "/><text fill="#000000" font-family="sans-serif" font-size="12" font-style="italic" lengthAdjust="spacingAndGlyphs" textLength="46" x="549.85" y="28.5352">Channel</text><rect fill="#FFFFFF" height="16.1328" style="stroke: #000000; stroke-width: 1.0; stroke-dasharray: 2.0,2.0;" width="96" x="625" y="5"/><text fill="#000000" font-family="sans-serif" font-size="12" font-style="italic" lengthAdjust="spacingAndGlyphs" textLength="94" x="626" y="17.6016">Update, Success</text><line style="stroke: #A80036; stroke-width: 1.5;" x1="496" x2="717" y1="40" y2="40"/><text fill="#000000" font-family="sans-serif" font-size="11" font-weight="bold" lengthAdjust="spacingAndGlyphs" textLength="211" x="501" y="54.6348">abstract immutable proxy for updates</text><text fill="#000000" font-family="sans-serif" font-size="11" font-weight="bold" lengthAdjust="spacingAndGlyphs" textLength="148" x="501" y="67.5898">that will arrive one by one</text><text fill="#000000" font-family="sans-serif" font-size="11" font-weight="bold" lengthAdjust="spacingAndGlyphs" textLength="143" x="501" y="80.5449">followed by a completion</text><line style="stroke: #A80036; stroke-width: 1.0;" x1="496" x2="717" y1="86.8652" y2="86.8652"/><line style="stroke: #A80036; stroke-width: 1.0;" x1="496" x2="717" y1="88.8652" y2="88.8652"/><rect fill="#FEFECE" filter="url(#f1)" height="73.9102" style="stroke: #A80036; stroke-width: 1.5;" width="249" x="212" y="174.5"/><ellipse cx="257.25" cy="190.5" fill="#ADD1B2" rx="11" ry="11" style="stroke: #A80036; stroke-width: 1.0;"/><path d="M258.9531,186.1792 Q259.1191,185.8804 259.2935,185.7559 Q259.4678,185.6313 259.7334,185.6313 Q260.1401,185.6313 260.3103,185.8472 Q260.4805,186.063 260.4805,186.5859 L260.4971,188.7441 Q260.4971,189.3169 260.3103,189.5161 Q260.1235,189.7153 259.6338,189.7153 Q259.2852,189.7153 259.0984,189.5493 Q258.9116,189.3833 258.7788,188.9351 Q258.563,188.1465 258.0898,187.802 Q257.6167,187.4575 256.7783,187.4575 Q255.5,187.4575 254.8193,188.3208 Q254.1387,189.1841 254.1387,190.8193 Q254.1387,192.4463 254.8276,193.3179 Q255.5166,194.1895 256.7949,194.1895 Q257.6665,194.1895 258.7166,193.6084 Q259.7666,193.0273 260.0405,193.0273 Q260.3643,193.0273 260.5842,193.3013 Q260.8042,193.5752 260.8042,193.9819 Q260.8042,194.7124 259.5176,195.3599 Q258.231,196.0073 256.6206,196.0073 Q254.4458,196.0073 253.1011,194.5713 Q251.7563,193.1353 251.7563,190.8193 Q251.7563,188.5864 253.1177,187.1089 Q254.479,185.6313 256.5708,185.6313 Q257.1602,185.6313 257.7329,185.7642 Q258.3057,185.897 258.9531,186.1792 Z "/><text fill="#000000" font-family="sans-serif" font-size="12" lengthAdjust="spacingAndGlyphs" textLength="52" x="277.75" y="195.0352">Producer</text><rect fill="#FFFFFF" height="16.1328" style="stroke: #000000; stroke-width: 1.0; stroke-dasharray: 2.0,2.0;" width="96" x="368" y="171.5"/><text fill="#000000" font-family="sans-serif" font-size="12" font-style="italic" lengthAdjust="spacingAndGlyphs" textLength="94" x="369" y="184.1016">Update, Success</text><line style="stroke: #A80036; stroke-width: 1.5;" x1="213" x2="460" y1="206.5" y2="206.5"/><text fill="#000000" font-family="sans-serif" font-size="11" font-weight="bold" lengthAdjust="spacingAndGlyphs" textLength="237" x="218" y="221.1348">mutable Channel you can update manually</text><line style="stroke: #A80036; stroke-width: 1.0;" x1="213" x2="460" y1="227.4551" y2="227.4551"/><line style="stroke: #A80036; stroke-width: 1.0;" x1="213" x2="460" y1="229.4551" y2="229.4551"/><ellipse cx="223" cy="239.4326" fill="#84BE84" rx="3" ry="3" style="stroke: #038048; stroke-width: 1.0;"/><text fill="#000000" font-family="sans-serif" font-size="11" lengthAdjust="spacingAndGlyphs" textLength="25" x="232" y="242.0898">init()</text><rect fill="#FEFECE" filter="url(#f1)" height="86.8652" style="stroke: #A80036; stroke-width: 1.5;" width="221" x="496" y="168"/><ellipse cx="514.15" cy="184" fill="#ADD1B2" rx="11" ry="11" style="stroke: #A80036; stroke-width: 1.0;"/><path d="M515.8531,179.6792 Q516.0191,179.3804 516.1935,179.2559 Q516.3678,179.1313 516.6334,179.1313 Q517.0401,179.1313 517.2103,179.3472 Q517.3805,179.563 517.3805,180.0859 L517.3971,182.2441 Q517.3971,182.8169 517.2103,183.0161 Q517.0235,183.2153 516.5338,183.2153 Q516.1852,183.2153 515.9984,183.0493 Q515.8116,182.8833 515.6788,182.4351 Q515.463,181.6465 514.9898,181.302 Q514.5167,180.9575 513.6783,180.9575 Q512.4,180.9575 511.7193,181.8208 Q511.0387,182.6841 511.0387,184.3193 Q511.0387,185.9463 511.7276,186.8179 Q512.4166,187.6895 513.6949,187.6895 Q514.5665,187.6895 515.6166,187.1084 Q516.6666,186.5273 516.9405,186.5273 Q517.2643,186.5273 517.4842,186.8013 Q517.7042,187.0752 517.7042,187.4819 Q517.7042,188.2124 516.4176,188.8599 Q515.131,189.5073 513.5206,189.5073 Q511.3458,189.5073 510.0011,188.0713 Q508.6563,186.6353 508.6563,184.3193 Q508.6563,182.0864 510.0177,180.6089 Q511.379,179.1313 513.4708,179.1313 Q514.0602,179.1313 514.6329,179.2642 Q515.2057,179.397 515.8531,179.6792 Z "/><text fill="#000000" font-family="sans-serif" font-size="12" lengthAdjust="spacingAndGlyphs" textLength="84" x="528.85" y="188.5352">ProducerProxy</text><rect fill="#FFFFFF" height="16.1328" style="stroke: #000000; stroke-width: 1.0; stroke-dasharray: 2.0,2.0;" width="96" x="624" y="165"/><text fill="#000000" font-family="sans-serif" font-size="12" font-style="italic" lengthAdjust="spacingAndGlyphs" textLength="94" x="625" y="177.6016">Update, Success</text><line style="stroke: #A80036; stroke-width: 1.5;" x1="497" x2="716" y1="200" y2="200"/><text fill="#000000" font-family="sans-serif" font-size="11" font-weight="bold" lengthAdjust="spacingAndGlyphs" textLength="170" x="502" y="214.6348">mutable Channel that acts like</text><text fill="#000000" font-family="sans-serif" font-size="11" font-weight="bold" lengthAdjust="spacingAndGlyphs" textLength="187" x="502" y="227.5898">a proxy to some read-write value</text><line style="stroke: #A80036; stroke-width: 1.0;" x1="497" x2="716" y1="233.9102" y2="233.9102"/><line style="stroke: #A80036; stroke-width: 1.0;" x1="497" x2="716" y1="235.9102" y2="235.9102"/><ellipse cx="507" cy="245.8877" fill="#84BE84" rx="3" ry="3" style="stroke: #038048; stroke-width: 1.0;"/><text fill="#000000" font-family="sans-serif" font-size="11" lengthAdjust="spacingAndGlyphs" textLength="195" x="516" y="248.5449">init(updateExecutor:updateHandler:)</text><rect fill="#FEFECE" filter="url(#f1)" height="112.7754" style="stroke: #A80036; stroke-width: 1.5;" width="209" x="752" y="155"/><ellipse cx="786.35" cy="171" fill="#ADD1B2" rx="11" ry="11" style="stroke: #A80036; stroke-width: 1.0;"/><path d="M788.0531,166.6792 Q788.2191,166.3804 788.3935,166.2559 Q788.5678,166.1313 788.8334,166.1313 Q789.2401,166.1313 789.4103,166.3472 Q789.5805,166.563 789.5805,167.0859 L789.5971,169.2441 Q789.5971,169.8169 789.4103,170.0161 Q789.2235,170.2153 788.7338,170.2153 Q788.3852,170.2153 788.1984,170.0493 Q788.0116,169.8833 787.8788,169.4351 Q787.663,168.6465 787.1898,168.302 Q786.7167,167.9575 785.8783,167.9575 Q784.6,167.9575 783.9193,168.8208 Q783.2387,169.6841 783.2387,171.3193 Q783.2387,172.9463 783.9276,173.8179 Q784.6166,174.6895 785.8949,174.6895 Q786.7665,174.6895 787.8166,174.1084 Q788.8666,173.5273 789.1405,173.5273 Q789.4643,173.5273 789.6842,173.8013 Q789.9042,174.0752 789.9042,174.4819 Q789.9042,175.2124 788.6176,175.8599 Q787.331,176.5073 785.7206,176.5073 Q783.5458,176.5073 782.2011,175.0713 Q780.8563,173.6353 780.8563,171.3193 Q780.8563,169.0864 782.2177,167.6089 Q783.579,166.1313 785.6708,166.1313 Q786.2602,166.1313 786.8329,166.2642 Q787.4057,166.397 788.0531,166.6792 Z "/><text fill="#000000" font-family="sans-serif" font-size="12" lengthAdjust="spacingAndGlyphs" textLength="98" x="804.65" y="175.5352">DynamicProperty</text><rect fill="#FFFFFF" height="16.1328" style="stroke: #000000; stroke-width: 1.0; stroke-dasharray: 2.0,2.0;" width="34" x="930" y="152"/><text fill="#000000" font-family="sans-serif" font-size="12" font-style="italic" lengthAdjust="spacingAndGlyphs" textLength="32" x="931" y="164.6016">Value</text><line style="stroke: #A80036; stroke-width: 1.5;" x1="753" x2="960" y1="187" y2="187"/><text fill="#000000" font-family="sans-serif" font-size="11" font-weight="bold" lengthAdjust="spacingAndGlyphs" textLength="170" x="758" y="201.6348">mutable Channel that acts like</text><text fill="#000000" font-family="sans-serif" font-size="11" font-weight="bold" lengthAdjust="spacingAndGlyphs" textLength="108" x="758" y="214.5898">a dynamic property</text><text fill="#000000" font-family="sans-serif" font-size="11" lengthAdjust="spacingAndGlyphs" textLength="83" x="758" y="227.5449">Update in Value</text><text fill="#000000" font-family="sans-serif" font-size="11" lengthAdjust="spacingAndGlyphs" textLength="82" x="758" y="240.5">Success is Void</text><line style="stroke: #A80036; stroke-width: 1.0;" x1="753" x2="960" y1="246.8203" y2="246.8203"/><line style="stroke: #A80036; stroke-width: 1.0;" x1="753" x2="960" y1="248.8203" y2="248.8203"/><ellipse cx="763" cy="258.7979" fill="#84BE84" rx="3" ry="3" style="stroke: #038048; stroke-width: 1.0;"/><text fill="#000000" font-family="sans-serif" font-size="11" lengthAdjust="spacingAndGlyphs" textLength="183" x="772" y="261.4551">init(_ initialValue:updateExecutor:)</text><path d="M113.5,108.9038 C113.5,130.678 113.5,154.885 113.5,174.3151 " fill="none" style="stroke: #A80036; stroke-width: 1.0;"/><polygon fill="none" points="106.5001,108.6094,113.5,88.6094,120.5001,108.6093,106.5001,108.6094" style="stroke: #A80036; stroke-width: 1.0;"/><path d="M691.5109,105.907 C716.1178,121.6554 743.0357,138.8828 767.8583,154.7693 " fill="none" style="stroke: #A80036; stroke-width: 1.0;"/><polygon fill="none" points="687.5554,111.6864,674.4834,95.0094,695.1022,99.8946,687.5554,111.6864" style="stroke: #A80036; stroke-width: 1.0;"/><path d="M515.6645,105.3285 C477.4566,127.9702 433.9445,153.7551 399.3692,174.2442 " fill="none" style="stroke: #A80036; stroke-width: 1.0;"/><polygon fill="none" points="512.3035,99.1834,533.078,95.0094,519.4407,111.2275,512.3035,99.1834" style="stroke: #A80036; stroke-width: 1.0;"/><path d="M606.5,115.5 C606.5,133.0632 606.5,151.6992 606.5,167.8322 " fill="none" style="stroke: #A80036; stroke-width: 1.0;"/><polygon fill="none" points="599.5001,115.2207,606.5,95.2207,613.5001,115.2207,599.5001,115.2207" style="stroke: #A80036; stroke-width: 1.0;"/></g></svg>